<svg width="6" height="12" viewBox="0 0 6 12" fill="none" xmlns="http://www.w3.org/2000/svg">
<path d="M0.161239 10.4616C0.109734 10.5161 0.0694683 10.5802 0.0427415 10.6502C0.0160148 10.7203 0.00334954 10.795 0.00547004 10.8699C0.00759053 10.9449 0.0244553 11.0187 0.0551002 11.0871C0.0857451 11.1556 0.129571 11.2173 0.184075 11.2688C0.238579 11.3203 0.302695 11.3606 0.37276 11.3873C0.442826 11.414 0.517469 11.4267 0.592429 11.4246C0.667388 11.4225 0.741197 11.4056 0.80964 11.3749C0.878082 11.3443 0.939819 11.3005 0.991324 11.246L5.84395 6.1079C5.94416 6.0019 6 5.86156 6 5.71569C6 5.56982 5.94416 5.42948 5.84395 5.32348L0.991324 0.18484C0.940158 0.129142 0.878435 0.0841652 0.809741 0.0525242C0.741047 0.0208822 0.666751 0.00320585 0.591167 0.000520298C0.515584 -0.00216525 0.44022 0.0101953 0.369453 0.036882C0.298687 0.0635687 0.233928 0.10405 0.178939 0.155976C0.123949 0.207902 0.0798256 0.270237 0.0491307 0.339359C0.0184357 0.408481 0.00178123 0.483014 0.000134707 0.558628C-0.00151181 0.634241 0.0118816 0.709428 0.0395381 0.779821C0.0671947 0.850214 0.108563 0.91441 0.161239 0.968681L4.64392 5.71569L0.161239 10.4616Z" fill="black"/>
</svg>
