<svg width="17" height="18" viewBox="0 0 17 18" fill="none" xmlns="http://www.w3.org/2000/svg">
<path d="M14.0586 14.2558L13.7642 14.3841L13.494 14.5082L12.1266 15.1163L11.5418 13.7387C11.2433 13.0396 11.5579 12.2246 12.2396 11.9185C12.4614 11.8192 12.6953 11.7903 12.9131 11.8151C12.9535 11.8192 12.9898 11.8233 13.0301 11.8358L13.6109 13.1968L13.8005 13.6394L14.0586 14.2558Z" fill="#FAC850"/>
<path d="M15.1005 16.7049H15.0965C14.9593 16.9324 14.7536 17.1186 14.4995 17.2344C14.3705 17.2965 14.2374 17.3296 14.1002 17.342L14.0276 17.3461C13.4831 17.3792 12.9547 17.0607 12.7248 16.5188L12.3174 15.559L12.1279 15.1164L13.4952 14.5082L13.7654 14.3841L14.0599 14.2559L14.2051 14.6034C14.3947 15.0419 14.7738 15.3315 15.1973 15.4059V15.4101C15.3829 15.8486 15.3345 16.3326 15.1005 16.7049Z" fill="#FA5D3F"/>
<path d="M16.0864 12.0968L15.7355 12.2499L15.2515 12.4691L14.9772 12.5932L14.1544 12.9614L13.6139 13.2013L13.0331 11.8403L13.0291 11.8279C12.7306 11.1205 13.0412 10.3097 13.7268 10.0077C13.9446 9.90424 14.1826 9.87529 14.4004 9.90011C14.5214 9.91252 14.6424 9.94148 14.7554 9.98285C14.8602 10.0242 14.953 10.0821 15.0417 10.1442C15.2112 10.2642 15.3483 10.4296 15.4532 10.6199L15.5016 10.7233L16.0864 12.0968Z" fill="#FA5D3F"/>
<path d="M16.5832 14.7937H16.5791C16.442 15.0171 16.2403 15.2074 15.9822 15.3232C15.8531 15.3811 15.7241 15.4184 15.5869 15.4308L15.5143 15.4349C15.4054 15.439 15.3005 15.4349 15.1997 15.4142V15.4101C14.7762 15.3356 14.397 15.046 14.2075 14.6075L14.0623 14.26L13.8082 13.6519L13.6186 13.2093L14.1591 12.9693L14.9819 12.6011L15.2562 12.477L15.7402 12.2578L16.0911 12.1006L16.2282 12.4233L16.688 13.4988C16.8655 13.9332 16.8171 14.4131 16.5832 14.7937Z" fill="#FAC850"/>
<path d="M8.47462 2.8916V2.39517H2.30746V2.8916C2.30746 3.37561 2.13806 3.84722 1.82748 4.2154L0.677945 5.58057C0.371402 5.94461 0.201996 6.40794 0.201996 6.88782V16.2372C0.201996 16.8743 0.702145 17.3872 1.3233 17.3872H9.45879C10.0799 17.3872 10.5801 16.8743 10.5801 16.2372V6.88782C10.5801 6.40794 10.4107 5.94048 10.1041 5.57643L8.9546 4.21126C8.64403 3.84722 8.47462 3.37561 8.47462 2.8916Z" fill="#8AE6DA"/>
<path d="M8.9164 2.39546H1.85784C1.68037 2.39546 1.53113 2.24653 1.53113 2.06037V0.542134C1.53113 0.360111 1.67634 0.207046 1.85784 0.207046H8.9164C9.0979 0.207046 9.24311 0.355974 9.24311 0.542134V2.06037C9.24311 2.24653 9.0979 2.39546 8.9164 2.39546Z" fill="#F1FCFB"/>
<path d="M10.5841 15.5133H0.206036V7.04512H10.5841V15.5133Z" fill="#F1FCFB"/>
<path d="M8.09543 10.4374H6.21181V8.50959H4.57422V10.4374H2.69463V12.1211H4.57422V14.0489H6.21181V12.1211H8.09543V10.4374Z" fill="#FA5D3F"/>
<path d="M0.944153 15.5132H0.20603V16.2372C0.20603 16.8743 0.706179 17.3872 1.32733 17.3872H1.51287C1.17809 17.1887 0.948186 16.8205 0.948186 16.3944V15.5132M2.32763 2.39517H2.30746V2.8916C2.30746 3.37561 2.13806 3.84722 1.82748 4.2154L0.677944 5.58057C0.371402 5.94461 0.201996 6.40794 0.201996 6.88782V7.04503H0.940119C0.940119 6.56515 1.10952 6.10182 1.41203 5.73777L2.56157 4.3726C2.87215 4.00442 3.04155 3.53695 3.04155 3.0488V2.55237H2.59787C2.48493 2.55237 2.3841 2.49032 2.32763 2.39517Z" fill="white"/>
<path d="M8.9164 0.211086H1.85784C1.68037 0.211086 1.53113 0.360014 1.53113 0.546174V2.06441C1.53113 2.24643 1.67634 2.3995 1.85784 2.3995H2.30152H2.32169C2.28942 2.34572 2.27329 2.28366 2.27329 2.22161V0.699238C2.27329 0.517215 2.41849 0.364151 2.6 0.364151H9.19067C9.13017 0.277276 9.03337 0.211086 8.9164 0.211086Z" fill="white"/>
<path d="M0.944159 7.04512H0.206036V15.5133H0.944159V7.04512Z" fill="white"/>
<path d="M14.0265 17.3423C14.0023 17.3423 13.9781 17.3464 13.9539 17.3464C13.9781 17.3464 14.0023 17.3464 14.0265 17.3423ZM12.7237 16.519C12.7237 16.5232 12.7277 16.5232 12.7277 16.5273C12.7277 16.5232 12.7277 16.5232 12.7237 16.519ZM12.9092 11.8195H12.9133C12.9133 11.8195 12.9133 11.8195 12.9092 11.8195ZM12.76 11.8113C12.5865 11.8113 12.4091 11.8485 12.2397 11.923C11.7355 12.1505 11.4289 12.6593 11.4289 13.193C11.4289 12.6593 11.7315 12.1505 12.2397 11.923C12.4091 11.8444 12.5865 11.8113 12.76 11.8113ZM14.3976 9.90003C14.5186 9.91244 14.6396 9.9414 14.7525 9.98277C14.7646 9.9869 14.7767 9.99104 14.7888 9.99931C14.7767 9.99518 14.7646 9.9869 14.7525 9.98277C14.6396 9.93726 14.5186 9.91244 14.3976 9.90003Z" fill="white"/>
<path d="M12.764 11.8112C12.5906 11.8112 12.4091 11.8485 12.2397 11.9229C11.7355 12.1504 11.4289 12.6593 11.4289 13.1929C11.4289 13.375 11.4652 13.5611 11.5419 13.7431L12.1267 15.1166L12.6914 14.8642L12.28 13.8962C11.9815 13.1971 12.2961 12.3821 12.9778 12.076C13.0222 12.0553 13.0665 12.0388 13.1109 12.0263L13.0302 11.8402C12.9899 11.8278 12.9536 11.8236 12.9133 11.8195H12.9092C12.8608 11.8112 12.8124 11.8112 12.764 11.8112Z" fill="#FFFFA0"/>
<path d="M12.6966 14.8639L12.1279 15.1162L12.3174 15.5589L12.7248 16.5186C12.7248 16.5228 12.7288 16.5228 12.7288 16.5269C12.7329 16.5352 12.7329 16.5393 12.7369 16.5476C12.9628 17.044 13.4428 17.346 13.951 17.346C13.9752 17.346 13.9994 17.346 14.0236 17.3419L14.0679 17.3377C13.8058 17.1971 13.588 16.9696 13.4629 16.6717L13.0555 15.712L12.866 15.2693L12.6966 14.8639Z" fill="#FFBA7E"/>
<path d="M14.2507 9.89175C14.0773 9.89175 13.8958 9.92899 13.7304 10.0034C13.7304 10.0034 13.7264 10.0034 13.7264 10.0076C13.2181 10.231 12.9156 10.7357 12.9156 11.2693C12.9156 11.4555 12.9519 11.6458 13.0286 11.8278L13.0326 11.8402L13.1133 12.0264C13.2423 11.985 13.3755 11.9643 13.5045 11.9643C13.557 11.9643 13.6054 11.9685 13.6578 11.9726C13.6981 11.9767 13.7344 11.9809 13.7748 11.9933L13.7707 11.9809C13.4723 11.2735 13.7828 10.4626 14.4685 10.1607C14.6097 10.0945 14.7549 10.0614 14.9041 10.0531C14.8678 10.0324 14.8315 10.0159 14.7952 9.99931C14.7831 9.99518 14.771 9.9869 14.7589 9.98277C14.646 9.93726 14.525 9.91244 14.404 9.90003C14.3515 9.89589 14.3031 9.89175 14.2507 9.89175Z" fill="#FFBA7E"/>
<path d="M12.1273 15.3236C12.0507 15.3236 11.9741 15.2781 11.9418 15.1995L11.3569 13.8219C11.0141 13.0235 11.3731 12.0844 12.1556 11.7286C12.4016 11.621 12.6719 11.5797 12.934 11.6128C12.9784 11.6169 13.0308 11.6252 13.0913 11.6459C13.1438 11.6624 13.1881 11.7038 13.2123 11.7576L14.2368 14.1735C14.257 14.2231 14.257 14.2811 14.2368 14.3307C14.2167 14.3803 14.1763 14.4217 14.1279 14.4424L12.1999 15.3029L12.1273 15.3236ZM12.7646 12.0182C12.6113 12.0182 12.4621 12.0513 12.3209 12.1133C11.7442 12.374 11.4779 13.069 11.728 13.6605L12.2322 14.8478L13.7932 14.1487L12.8897 12.0265C12.8493 12.0182 12.805 12.0182 12.7646 12.0182Z" fill="black"/>
<path d="M13.9518 17.5532C13.3428 17.5532 12.7821 17.1808 12.5361 16.6017L11.9391 15.1993C11.9189 15.1496 11.9149 15.0917 11.9351 15.0421C11.9552 14.9924 11.9915 14.9511 12.044 14.9262L13.976 14.0658C14.0768 14.0203 14.1978 14.0699 14.2382 14.1733L14.3834 14.5208C14.5407 14.8807 14.8553 15.1372 15.2223 15.2034C15.299 15.2158 15.3595 15.2779 15.3837 15.3523C15.5813 15.8364 15.537 16.3824 15.2627 16.8209L15.2385 16.854C15.0731 17.1064 14.8432 17.305 14.573 17.4291C14.4358 17.4952 14.2866 17.5366 14.1131 17.5532L14.0325 17.5573L13.9518 17.5532ZM12.3909 15.2241L12.9071 16.4362C13.0967 16.883 13.5404 17.1643 14.0123 17.1395L14.0849 17.1353C14.2019 17.1229 14.3108 17.094 14.4076 17.0485C14.6214 16.9533 14.7988 16.7961 14.9198 16.5975L14.9481 16.5645C15.1215 16.2707 15.1538 15.9108 15.0449 15.584C14.5931 15.464 14.214 15.1372 14.0204 14.6863L13.9518 14.5291L12.3909 15.2241Z" fill="black"/>
<path d="M13.6094 13.4121C13.5327 13.4121 13.4561 13.3666 13.4238 13.288L12.843 11.927C12.6736 11.5216 12.6655 11.083 12.8188 10.69C12.9721 10.297 13.2625 9.9909 13.6416 9.82129C13.8756 9.7096 14.1498 9.66823 14.4201 9.69719C14.5653 9.71373 14.7024 9.74683 14.8234 9.79233C14.9283 9.8337 15.0372 9.89162 15.1542 9.97436C15.3438 10.1067 15.5011 10.2929 15.6261 10.5163L15.6624 10.5908L15.6826 10.6363L16.2674 12.0138C16.2876 12.0635 16.2916 12.1214 16.2714 12.171C16.2513 12.2207 16.215 12.2621 16.1625 12.2869L13.69 13.3914L13.6094 13.4121ZM14.2467 10.0985C14.0934 10.0985 13.9401 10.1316 13.807 10.1936C13.5206 10.3177 13.3069 10.5452 13.1939 10.8348C13.081 11.1285 13.085 11.4512 13.2101 11.7408L13.7142 12.9281L15.8157 11.989L15.2954 10.7645L15.2752 10.7231C15.1824 10.5494 15.0654 10.4129 14.9243 10.3177C14.8355 10.2557 14.7589 10.2102 14.6823 10.1812C14.5935 10.144 14.4887 10.1233 14.3757 10.1109C14.3354 10.1026 14.291 10.0985 14.2467 10.0985Z" fill="black"/>
<path d="M15.4385 15.6374C15.3336 15.6374 15.2409 15.6291 15.1562 15.6084L15.1199 15.596C14.6358 15.4967 14.2285 15.1575 14.0228 14.6818L13.4298 13.2835C13.4097 13.2339 13.4056 13.176 13.4258 13.1263C13.446 13.0767 13.4863 13.0353 13.5347 13.0105L16.0072 11.9059C16.1081 11.8604 16.2291 11.9101 16.2734 12.0135L16.8704 13.4118C17.0761 13.8999 17.0317 14.4584 16.7574 14.901L16.7332 14.9341C16.5638 15.1906 16.3339 15.3892 16.0677 15.5092C15.9145 15.5753 15.7652 15.6167 15.6119 15.6333L15.5313 15.6374H15.4385ZM15.2731 15.2113C15.3417 15.2237 15.4143 15.2278 15.503 15.2237L15.5716 15.2196C15.6765 15.2113 15.7854 15.1782 15.8983 15.1286C16.104 15.0375 16.2775 14.8803 16.4065 14.6776L16.4267 14.6487C16.6163 14.326 16.6405 13.9247 16.4953 13.5731L15.979 12.3651L13.8776 13.3042L14.3898 14.5122C14.5471 14.8721 14.8617 15.1286 15.2288 15.1947L15.2731 15.2113Z" fill="black"/>
<path d="M9.45846 17.5944H1.32297C0.592919 17.5944 0 16.9863 0 16.2375V6.88813C0 6.35861 0.185539 5.84563 0.52435 5.44436L1.67389 4.07918C1.95219 3.74823 2.10547 3.32627 2.10547 2.8919V2.39547C2.10547 2.27964 2.1942 2.18863 2.30714 2.18863H8.4743C8.58724 2.18863 8.67597 2.27964 8.67597 2.39547V2.88776C8.67597 3.32627 8.82924 3.74823 9.10755 4.07918L10.2571 5.44436C10.5959 5.84563 10.7814 6.35861 10.7814 6.88813V16.2375C10.7814 16.9863 10.1845 17.5944 9.45846 17.5944ZM2.50478 2.60232V2.8919C2.50478 3.42556 2.31521 3.9468 1.9764 4.35222L0.826859 5.71739C0.552584 6.0442 0.403346 6.45789 0.403346 6.89226V16.2416C0.403346 16.7629 0.814759 17.1848 1.32297 17.1848H9.45846C9.96668 17.1848 10.3781 16.7629 10.3781 16.2416V6.89226C10.3781 6.46203 10.2248 6.0442 9.95055 5.71739L8.80101 4.35222C8.45817 3.9468 8.26859 3.42556 8.26859 2.8919V2.60232H2.50478Z" fill="black"/>
<path d="M8.92011 2.6021H1.86156C1.57115 2.6021 1.33317 2.35802 1.33317 2.06017V0.541931C1.33317 0.244076 1.57115 0 1.86156 0H8.92011C9.21052 0 9.4485 0.244076 9.4485 0.541931V2.06017C9.4485 2.36216 9.21052 2.6021 8.92011 2.6021ZM1.86156 0.417825C1.79299 0.417825 1.73652 0.475741 1.73652 0.546068V2.0643C1.73652 2.13463 1.79299 2.19255 1.86156 2.19255H8.92011C8.98868 2.19255 9.04515 2.13463 9.04515 2.0643V0.541931C9.04515 0.471605 8.98868 0.413688 8.92011 0.413688H1.86156V0.417825Z" fill="black"/>
<path d="M10.5798 15.72H0.201673C0.0887361 15.72 0 15.6289 0 15.5131V7.04492C0 6.92909 0.0887361 6.83808 0.201673 6.83808H10.5798C10.6927 6.83808 10.7814 6.92909 10.7814 7.04492V15.5131C10.7814 15.6289 10.6887 15.72 10.5798 15.72ZM0.403346 15.3063H10.3781V7.25176H0.403346V15.3063Z" fill="black"/>
<path d="M6.21148 14.2555H4.5739C4.46096 14.2555 4.37223 14.1645 4.37223 14.0487V12.3277H2.69431C2.58137 12.3277 2.49263 12.2367 2.49263 12.1209V10.4413C2.49263 10.3255 2.58137 10.2345 2.69431 10.2345H4.37223V8.50939C4.37223 8.39356 4.46096 8.30255 4.5739 8.30255H6.21148C6.32442 8.30255 6.41316 8.39356 6.41316 8.50939V10.2303H8.09511C8.20805 10.2303 8.29678 10.3213 8.29678 10.4372V12.1168C8.29678 12.2326 8.20805 12.3236 8.09511 12.3236H6.41719V14.0445C6.41316 14.1645 6.32442 14.2555 6.21148 14.2555ZM4.77557 13.8418H6.00981V12.1209C6.00981 12.0051 6.09855 11.914 6.21148 11.914H7.8894V10.6482H6.21148C6.09855 10.6482 6.00981 10.5571 6.00981 10.4413V8.71624H4.77557V10.4372C4.77557 10.553 4.68684 10.644 4.5739 10.644H2.89598V11.9099H4.5739C4.68684 11.9099 4.77557 12.0009 4.77557 12.1168V13.8418Z" fill="black"/>
<path d="M3.86682 6.03979H1.93076C1.81782 6.03979 1.72909 5.94878 1.72909 5.83294C1.72909 5.71711 1.81782 5.6261 1.93076 5.6261H3.86682C3.97976 5.6261 4.06849 5.71711 4.06849 5.83294C4.06849 5.94878 3.97573 6.03979 3.86682 6.03979Z" fill="black"/>
<path d="M5.27902 6.03979H4.75871C4.64577 6.03979 4.55703 5.94878 4.55703 5.83294C4.55703 5.71711 4.64577 5.6261 4.75871 5.6261H5.27902C5.39196 5.6261 5.4807 5.71711 5.4807 5.83294C5.4807 5.94878 5.39196 6.03979 5.27902 6.03979Z" fill="black"/>
<path d="M2.82358 1.29112C2.71065 1.29112 2.62191 1.2001 2.62191 1.08427V0.211389C2.62191 0.0955563 2.71065 0.00454491 2.82358 0.00454491C2.93652 0.00454491 3.02526 0.0955563 3.02526 0.211389V1.08427C3.02526 1.19597 2.93652 1.29112 2.82358 1.29112Z" fill="black"/>
<path d="M4.09616 1.29112C3.98322 1.29112 3.89449 1.2001 3.89449 1.08427V0.211389C3.89449 0.0955563 3.98322 0.00454491 4.09616 0.00454491C4.2091 0.00454491 4.29783 0.0955563 4.29783 0.211389V1.08427C4.29783 1.19597 4.20506 1.29112 4.09616 1.29112Z" fill="black"/>
<path d="M5.37278 1.29112C5.25984 1.29112 5.1711 1.2001 5.1711 1.08427V0.211389C5.1711 0.0955563 5.25984 0.00454491 5.37278 0.00454491C5.48571 0.00454491 5.57445 0.0955563 5.57445 0.211389V1.08427C5.57445 1.19597 5.48168 1.29112 5.37278 1.29112Z" fill="black"/>
<path d="M6.64131 1.29112C6.52837 1.29112 6.43964 1.2001 6.43964 1.08427V0.211389C6.43964 0.0955563 6.52837 0.00454491 6.64131 0.00454491C6.75425 0.00454491 6.84298 0.0955563 6.84298 0.211389V1.08427C6.84298 1.19597 6.75425 1.29112 6.64131 1.29112Z" fill="black"/>
<path d="M7.91793 1.29112C7.80499 1.29112 7.71625 1.2001 7.71625 1.08427V0.211389C7.71625 0.0955563 7.80499 0.00454491 7.91793 0.00454491C8.03086 0.00454491 8.1196 0.0955563 8.1196 0.211389V1.08427C8.1196 1.19597 8.02683 1.29112 7.91793 1.29112Z" fill="black"/>
</svg>
