<svg width="12" height="6" viewBox="0 0 12 6" fill="none" xmlns="http://www.w3.org/2000/svg">
<path d="M0.963246 0.161238C0.908742 0.109733 0.844627 0.0694676 0.774561 0.0427408C0.704496 0.0160141 0.629852 0.00334883 0.554892 0.00546932C0.479932 0.00758982 0.406124 0.0244546 0.337681 0.0550995C0.269239 0.0857444 0.207502 0.129571 0.155997 0.184074C0.104492 0.238578 0.0642263 0.302694 0.0374995 0.372759C0.0107727 0.442825 -0.00189215 0.517468 0.00022836 0.592428C0.00234887 0.667388 0.0192131 0.741197 0.0498581 0.809639C0.0805031 0.878082 0.124329 0.939818 0.178833 0.991323L5.31691 5.84395C5.42291 5.94416 5.56324 6 5.70911 6C5.85498 6 5.99532 5.94416 6.10132 5.84395L11.24 0.991323C11.2957 0.940158 11.3406 0.878435 11.3723 0.809741C11.4039 0.741047 11.4216 0.66675 11.4243 0.591167C11.427 0.515583 11.4146 0.440219 11.3879 0.369453C11.3612 0.298686 11.3208 0.233927 11.2688 0.178938C11.2169 0.123949 11.1546 0.0798249 11.0854 0.04913C11.0163 0.018435 10.9418 0.00178051 10.8662 0.000133991C10.7906 -0.00151253 10.7154 0.0118809 10.645 0.0395374C10.5746 0.067194 10.5104 0.108562 10.4561 0.161238L5.70911 4.64392L0.963246 0.161238Z" fill="black"/>
</svg>
