<svg width="88" height="88" viewBox="0 0 88 88" fill="none" xmlns="http://www.w3.org/2000/svg">
<path fill-rule="evenodd" clip-rule="evenodd" d="M60 32C60 36.2435 58.3143 40.3131 55.3137 43.3137C52.3131 46.3143 48.2435 48 44 48C39.7565 48 35.6869 46.3143 32.6863 43.3137C29.6857 40.3131 28 36.2435 28 32C28 27.7565 29.6857 23.6869 32.6863 20.6863C35.6869 17.6857 39.7565 16 44 16C48.2435 16 52.3131 17.6857 55.3137 20.6863C58.3143 23.6869 60 27.7565 60 32ZM52 32C52 34.1217 51.1571 36.1566 49.6569 37.6569C48.1566 39.1571 46.1217 40 44 40C41.8783 40 39.8434 39.1571 38.3431 37.6569C36.8429 36.1566 36 34.1217 36 32C36 29.8783 36.8429 27.8434 38.3431 26.3431C39.8434 24.8429 41.8783 24 44 24C46.1217 24 48.1566 24.8429 49.6569 26.3431C51.1571 27.8434 52 29.8783 52 32Z" fill="white"/>
<path fill-rule="evenodd" clip-rule="evenodd" d="M44 0C19.7 0 0 19.7 0 44C0 68.3 19.7 88 44 88C68.3 88 88 68.3 88 44C88 19.7 68.3 0 44 0ZM8 44C8 52.36 10.852 60.056 15.632 66.168C18.9889 61.7596 23.3196 58.187 28.2857 55.7292C33.2519 53.2715 38.719 51.9952 44.26 52C49.7293 51.9948 55.1277 53.2381 60.0437 55.6351C64.9598 58.0322 69.2639 61.5197 72.628 65.832C76.0938 61.2864 78.4273 55.9809 79.4356 50.3544C80.4438 44.7279 80.0977 38.9421 78.426 33.4759C76.7542 28.0097 73.8049 23.0202 69.8219 18.9201C65.839 14.8201 60.937 11.7274 55.5215 9.89804C50.1061 8.06863 44.3328 7.55509 38.6794 8.39989C33.0261 9.2447 27.6552 11.4236 23.0111 14.7562C18.367 18.0889 14.5832 22.4795 11.9729 27.5648C9.36259 32.6501 8.00072 38.2839 8 44ZM44 80C35.7358 80.0124 27.7211 77.1694 21.312 71.952C23.8917 68.2589 27.3254 65.2437 31.3208 63.1627C35.3162 61.0818 39.7551 59.9968 44.26 60C48.7086 59.9964 53.0939 61.0543 57.0517 63.0857C61.0095 65.1171 64.4255 68.0634 67.016 71.68C60.5572 77.0668 52.4103 80.0118 44 80Z" fill="white"/>
</svg>
