<svg width="20" height="24" viewBox="0 0 20 24" fill="none" xmlns="http://www.w3.org/2000/svg">
<path d="M2.4 24C1.74 24 1.1752 23.7652 0.7056 23.2956C0.236 22.826 0.0008 22.2608 0 21.6V2.4C0 1.74 0.2352 1.1752 0.7056 0.7056C1.176 0.236 1.7408 0.0008 2.4 0H16.8C17.46 0 18.0252 0.2352 18.4956 0.7056C18.966 1.176 19.2008 1.7408 19.2 2.4V21.6C19.2 22.26 18.9652 22.8252 18.4956 23.2956C18.026 23.766 17.4608 24.0008 16.8 24H2.4ZM2.4 21.6H16.8V2.4H14.4V10.8L11.4 9L8.4 10.8V2.4H2.4V21.6Z" fill="#008771"/>
</svg>
