<svg width="30" height="24" viewBox="0 0 30 24" fill="none" xmlns="http://www.w3.org/2000/svg">
<path fill-rule="evenodd" clip-rule="evenodd" d="M16.6055 9.4424H15.0527C14.7756 9.4424 14.5508 9.66824 14.5508 9.94428C14.5508 10.2213 14.7756 10.4462 15.0527 10.4462H16.6055V12C16.6055 12.277 16.8303 12.5019 17.1074 12.5019C17.3844 12.5019 17.6093 12.277 17.6093 12V10.4462H19.1631C19.4401 10.4462 19.665 10.2213 19.665 9.94428C19.665 9.66824 19.4401 9.4424 19.1631 9.4424H17.6093V7.88958C17.6093 7.61254 17.3844 7.3877 17.1074 7.3877C16.8303 7.3877 16.6055 7.61254 16.6055 7.88958V9.4424Z" fill="white"/>
<path fill-rule="evenodd" clip-rule="evenodd" d="M8.16918 6.38818C6.62274 6.38818 5.36719 7.64373 5.36719 9.19017C5.36719 10.7366 6.62274 11.9922 8.16918 11.9922C9.71562 11.9922 10.9712 10.7366 10.9712 9.19017C10.9712 7.64373 9.71562 6.38818 8.16918 6.38818ZM8.16918 7.39307C9.16143 7.39307 9.96627 8.19792 9.96627 9.19017C9.96627 10.1824 9.16143 10.9873 8.16918 10.9873C7.17693 10.9873 6.37209 10.1824 6.37209 9.19017C6.37209 8.19792 7.17693 7.39307 8.16918 7.39307Z" fill="white"/>
<path fill-rule="evenodd" clip-rule="evenodd" d="M12.4303 14.9768C12.1819 13.9845 11.2897 13.2866 10.2664 13.2866C9.0534 13.2866 7.28045 13.2866 6.06744 13.2866C5.04415 13.2866 4.15193 13.9845 3.90358 14.9768L3.90243 14.9802C3.66787 15.9207 3.87828 16.9164 4.47501 17.6799C5.07059 18.4433 5.98581 18.8906 6.95507 18.8906H9.37878C10.348 18.8906 11.2633 18.4433 11.8588 17.6799C12.4556 16.9164 12.666 15.9207 12.4314 14.9802L12.4303 14.9768ZM11.4564 15.2205L11.4576 15.224C11.6174 15.8644 11.4737 16.5428 11.0678 17.0625C10.6619 17.5822 10.0388 17.8857 9.37878 17.8857H6.95507C6.2951 17.8857 5.67192 17.5822 5.26605 17.0625C4.86018 16.5428 4.71646 15.8644 4.87628 15.224L4.87743 15.2205C5.0131 14.6744 5.50406 14.2915 6.06744 14.2915H10.2664C10.8298 14.2915 11.3207 14.6744 11.4564 15.2205Z" fill="white"/>
<path fill-rule="evenodd" clip-rule="evenodd" d="M10.2906 2.55559H4.33425C1.94028 2.55559 0 4.49586 0 6.88983C0 10.5425 0 16.012 0 19.6647C0 22.0587 1.94028 24 4.33425 24C9.70339 24 19.4058 24 24.7749 24C27.1689 24 29.1092 22.0587 29.1092 19.6647C29.1092 16.012 29.1092 10.5425 29.1092 6.88983C29.1092 4.49586 27.1689 2.55559 24.7749 2.55559H18.8186C18.8657 2.30164 18.8888 2.04165 18.8888 1.77967V1.71845C18.8888 0.769893 18.1199 0 17.1714 0C15.738 0 13.3711 0 11.9378 0C10.9892 0 10.2203 0.769893 10.2203 1.71845V1.77967C10.2203 2.04165 10.2434 2.30164 10.2906 2.55559ZM18.5074 3.55935C18.2936 4.03313 17.9945 4.46976 17.6191 4.84516C16.807 5.65721 15.7039 6.11393 14.5546 6.11393C13.4053 6.11393 12.3021 5.65721 11.4901 4.84516C11.1147 4.46976 10.8156 4.03313 10.6018 3.55935H4.33425C2.49536 3.55935 1.00376 5.04993 1.00376 6.88983V19.6647C1.00376 21.5046 2.49536 22.9962 4.33425 22.9962H24.7749C26.6138 22.9962 28.1054 21.5046 28.1054 19.6647V6.88983C28.1054 5.04993 26.6138 3.55935 24.7749 3.55935H18.5074ZM14.5546 5.11017C13.6713 5.11017 12.8241 4.75985 12.1997 4.13451C11.5744 3.51017 11.2241 2.66298 11.2241 1.77967V1.71845C11.2241 1.32397 11.5433 1.00376 11.9378 1.00376H17.1714C17.5659 1.00376 17.8851 1.32397 17.8851 1.71845V1.77967C17.8851 2.66298 17.5348 3.51017 16.9094 4.13451C16.2851 4.75985 15.4379 5.11017 14.5546 5.11017Z" fill="white"/>
<path fill-rule="evenodd" clip-rule="evenodd" d="M14.5568 15.6958H26.0544C26.3316 15.6958 26.5565 15.4709 26.5565 15.1937C26.5565 14.9165 26.3316 14.6917 26.0544 14.6917H14.5568C14.2795 14.6917 14.0547 14.9165 14.0547 15.1937C14.0547 15.4709 14.2795 15.6958 14.5568 15.6958Z" fill="white"/>
<path fill-rule="evenodd" clip-rule="evenodd" d="M20.9433 10.4468H26.0534C26.3305 10.4468 26.5553 10.2219 26.5553 9.9447C26.5553 9.66748 26.3305 9.44263 26.0534 9.44263H20.9433C20.6662 9.44263 20.4414 9.66748 20.4414 9.9447C20.4414 10.2219 20.6662 10.4468 20.9433 10.4468Z" fill="white"/>
<path fill-rule="evenodd" clip-rule="evenodd" d="M14.5568 19.5286H26.0544C26.3316 19.5286 26.5565 19.3037 26.5565 19.0265C26.5565 18.7493 26.3316 18.5244 26.0544 18.5244H14.5568C14.2795 18.5244 14.0547 18.7493 14.0547 19.0265C14.0547 19.3037 14.2795 19.5286 14.5568 19.5286Z" fill="white"/>
<path fill-rule="evenodd" clip-rule="evenodd" d="M4.3101 21.4446H11.9992C12.276 21.4446 12.5007 21.2197 12.5007 20.9425C12.5007 20.6653 12.276 20.4404 11.9992 20.4404H4.3101C4.03329 20.4404 3.80859 20.6653 3.80859 20.9425C3.80859 21.2197 4.03329 21.4446 4.3101 21.4446Z" fill="white"/>
</svg>
