<svg width="20" height="24" viewBox="0 0 20 24" fill="none" xmlns="http://www.w3.org/2000/svg">
<path fill-rule="evenodd" clip-rule="evenodd" d="M11.5862 0C13.4069 0 14.8966 1.48966 14.8966 3.31034V17.3793C14.8966 19.2 13.4069 20.6897 11.5862 20.6897H3.31034C1.48966 20.6897 0 19.2 0 17.3793V3.31034C0 1.48966 1.48966 0 3.31034 0H11.5862ZM15.7241 3.31034C17.5448 3.31034 19.0345 4.8 19.0345 6.62069V20.6897C19.0345 22.5103 17.5448 24 15.7241 24H7.44828C5.62759 24 4.13793 22.5103 4.13793 20.6897H5.38303C5.38303 21.8284 6.30952 22.7549 7.44828 22.7549H15.7241C16.8629 22.7549 17.7894 21.8284 17.7894 20.6897V6.62069C17.7894 5.48193 16.8629 4.55545 15.7241 4.55545H14.8966V3.31034H15.7241ZM11.5862 1.24138H3.31034C2.16952 1.24138 1.24138 2.16952 1.24138 3.31034V17.3793C1.24138 18.5201 2.16952 19.4483 3.31034 19.4483H11.5862C12.727 19.4483 13.6552 18.5201 13.6552 17.3793V3.31034C13.6552 2.16952 12.727 1.24138 11.5862 1.24138ZM3.51724 4.96552H6.41379C6.75659 4.96552 7.03448 5.24341 7.03448 5.58621C7.03448 5.929 6.75659 6.2069 6.41379 6.2069H3.51724C3.17444 6.2069 2.89655 5.929 2.89655 5.58621C2.89655 5.24341 3.17444 4.96552 3.51724 4.96552ZM3.51724 7.44828H11.3793C11.7221 7.44828 12 7.72617 12 8.06897C12 8.41176 11.7221 8.68966 11.3793 8.68966H3.51724C3.17444 8.68966 2.89655 8.41176 2.89655 8.06897C2.89655 7.72617 3.17444 7.44828 3.51724 7.44828ZM3.51724 9.51724H11.3793C11.7221 9.51724 12 9.79513 12 10.1379C12 10.4807 11.7221 10.7586 11.3793 10.7586H3.51724C3.17444 10.7586 2.89655 10.4807 2.89655 10.1379C2.89655 9.79513 3.17444 9.51724 3.51724 9.51724ZM8.48276 14.4828H11.3793C11.7221 14.4828 12 14.7607 12 15.1034C12 15.4462 11.7221 15.7241 11.3793 15.7241H8.48276C8.13996 15.7241 7.86207 15.4462 7.86207 15.1034C7.86207 14.7607 8.13996 14.4828 8.48276 14.4828Z" fill="white"/>
</svg>
