<svg width="23" height="24" viewBox="0 0 23 24" fill="none" xmlns="http://www.w3.org/2000/svg">
<path d="M4.7034 3.31659H13.1335C13.2066 3.31659 13.2665 3.25504 13.2665 3.17984V1.866C13.2665 1.61073 13.0633 1.40187 12.8149 1.40187H11.0937C10.6833 1.40187 10.3223 1.15072 10.1382 0.773761C9.91406 0.314911 9.45204 0 8.91842 0C8.38483 0 7.92277 0.314911 7.69865 0.773761C7.51452 1.15072 7.15359 1.40187 6.74317 1.40187H5.02192C4.77352 1.40187 4.57031 1.61073 4.57031 1.866V3.17982C4.57031 3.25504 4.6302 3.31659 4.7034 3.31659ZM8.91842 0.70422C9.23996 0.70422 9.50062 1.00861 9.50062 1.38411H8.33623C8.33623 1.00861 8.59689 0.70422 8.91842 0.70422Z" fill="white"/>
<path d="M10.6313 22.6025H1.17507C0.982663 22.6025 0.826681 22.4465 0.826681 22.254V5.12065C0.826681 4.92825 0.982663 4.77227 1.17508 4.77227H16.6609C16.8533 4.77227 17.0092 4.92823 17.0092 5.12065V5.70765C17.0092 5.92388 17.1648 6.12092 17.38 6.14247C17.6274 6.16723 17.8359 5.97359 17.8359 5.73126V3.20191C17.8359 2.59501 17.344 2.10303 16.7371 2.10303H13.8532V3.17997C13.8532 3.5791 13.5301 3.90378 13.1329 3.90378H4.70301C4.30588 3.90378 3.98273 3.5791 3.98273 3.17997V2.10303H1.09886C0.491987 2.10303 0 2.59501 0 3.20189V22.4124C0 23.0193 0.491987 23.5113 1.09886 23.5113H10.6313C10.8823 23.5113 11.0858 23.3078 11.0858 23.0569C11.0858 22.8059 10.8823 22.6025 10.6313 22.6025Z" fill="white"/>
<path d="M10.7519 8.06682H9.54004V6.85493C9.54004 6.75627 9.46006 6.67627 9.36139 6.67627H8.47545C8.37678 6.67627 8.2968 6.75627 8.2968 6.85493V8.06682H7.08491C6.98625 8.06682 6.90625 8.1468 6.90625 8.24547V9.13139C6.90625 9.23006 6.98625 9.31006 7.08491 9.31006H8.2968V10.5219C8.2968 10.6206 8.37678 10.7006 8.47545 10.7006H9.36139C9.46006 10.7006 9.54004 10.6206 9.54004 10.5219V9.31006H10.7519C10.8505 9.31006 10.9305 9.23006 10.9305 9.13139V8.24547C10.9305 8.1468 10.8505 8.06682 10.7519 8.06682Z" fill="white"/>
<path d="M16.9284 7.8501C16.494 7.8501 16.1406 8.20345 16.1406 8.63783C16.1406 9.07222 16.494 9.42558 16.9284 9.42558C17.3628 9.42558 17.7161 9.07222 17.7161 8.63783C17.7161 8.20345 17.3628 7.8501 16.9284 7.8501ZM16.9284 9.03418C16.7097 9.03418 16.532 8.85646 16.532 8.63783C16.532 8.41921 16.7097 8.24147 16.9284 8.24147C17.147 8.24147 17.3247 8.41921 17.3247 8.63783C17.3247 8.85646 17.147 9.03418 16.9284 9.03418Z" fill="white"/>
<path d="M19.1117 8.11027C19.7097 8.11027 20.196 7.62382 20.196 7.02584C20.196 6.42786 19.7097 5.94141 19.1117 5.94141C18.5137 5.94141 18.0273 6.42786 18.0273 7.02584C18.0273 7.62382 18.5137 8.11027 19.1117 8.11027ZM19.1117 6.33278C19.4937 6.33278 19.8046 6.64371 19.8046 7.02584C19.8046 7.40796 19.4937 7.71889 19.1117 7.71889C18.7297 7.71889 18.4187 7.40796 18.4187 7.02584C18.4187 6.64371 18.7297 6.33278 19.1117 6.33278Z" fill="white"/>
<path d="M22.6651 21.3172L19.5106 15.8515V11.4542H19.6867C19.8667 11.4542 20.033 11.3857 20.1564 11.2605C20.2816 11.1352 20.3501 10.9689 20.3501 10.7908C20.3501 10.4269 20.0526 10.1294 19.6867 10.1294H15.0507C14.8707 10.1294 14.7024 10.1998 14.581 10.3251C14.4577 10.4484 14.3873 10.6186 14.3873 10.7908C14.3873 11.1568 14.6848 11.4542 15.0507 11.4542H15.2268V15.8534L12.0703 21.3172C11.7474 21.8788 11.7474 22.5462 12.0703 23.1058C12.3951 23.6655 12.9744 24.0002 13.6221 24.0002H21.1172C21.763 24.0002 22.3422 23.6675 22.6651 23.1078C22.988 22.5481 22.988 21.8788 22.6651 21.3172ZM22.3266 22.9121C22.0742 23.3485 21.6221 23.6088 21.1172 23.6088H13.6221C13.1153 23.6088 12.6632 23.3485 12.4108 22.9102C12.1564 22.4738 12.1564 21.9513 12.4088 21.5129L14.6104 17.7008L14.8765 17.2429L15.5908 16.0022C15.5928 16.0002 15.5928 15.9963 15.5947 15.9924C15.6006 15.9806 15.6045 15.9669 15.6065 15.9552C15.6104 15.9415 15.6143 15.9298 15.6143 15.9161C15.6163 15.9121 15.6182 15.9082 15.6182 15.9043V11.2624C15.6182 11.2605 15.6182 11.2605 15.6182 11.2585C15.6182 11.1509 15.5301 11.0629 15.4225 11.0629H15.0507C14.9 11.0629 14.7787 10.9415 14.7787 10.7908C14.7787 10.7204 14.808 10.6519 14.8589 10.5991C14.9078 10.5501 14.9764 10.5208 15.0507 10.5208H19.6867C19.8374 10.5208 19.9587 10.6421 19.9587 10.7908C19.9587 10.8632 19.9293 10.9317 19.8765 10.9865C19.8276 11.0355 19.7611 11.0629 19.6867 11.0629H19.3149C19.2053 11.0629 19.1192 11.1509 19.1192 11.2585V15.9024C19.1192 15.9063 19.1211 15.9102 19.1211 15.9141C19.1211 15.9278 19.1251 15.9395 19.129 15.9532C19.1309 15.965 19.1348 15.9787 19.1407 15.9904C19.1426 15.9943 19.1426 15.9982 19.1446 16.0002L19.9039 17.3172L20.1074 17.6695L22.3266 21.5129C22.579 21.9513 22.579 22.4738 22.3266 22.9121Z" fill="white"/>
<path d="M14.6652 12.4551H3.0625V12.9174H14.6652V12.4551Z" fill="white"/>
<path d="M14.6652 14.3765H3.0625V14.8386H14.6652V14.3765Z" fill="white"/>
<path d="M14.3214 16.2974H3.0625V16.7596H14.0542L14.3214 16.2974Z" fill="white"/>
<path d="M13.2114 18.2188H3.0625V18.681H12.9443L13.2114 18.2188Z" fill="white"/>
<path d="M3.0625 20.6027H11.8343L12.1015 20.1406H3.0625V20.6027Z" fill="white"/>
<path d="M19.9151 18.1166C19.6211 18.1789 19.1848 18.249 18.6478 18.249C18.1894 18.249 17.7181 18.1982 17.2474 18.0977C16.0189 17.8355 15.2392 17.9547 14.8681 18.0397L12.7493 21.7094C12.5677 22.0241 12.5679 22.4001 12.7499 22.7148C12.932 23.0301 13.2582 23.2182 13.6225 23.2182H21.1175C21.4812 23.2182 21.8066 23.0305 21.9884 22.716C22.1703 22.4012 22.1705 22.0247 21.9884 21.7088L19.9151 18.1166ZM14.4817 22.1625C14.2525 22.1625 14.0666 21.9766 14.0666 21.7473C14.0666 21.5181 14.2525 21.3322 14.4817 21.3322C14.711 21.3322 14.8969 21.5181 14.8969 21.7473C14.8969 21.9766 14.711 22.1625 14.4817 22.1625ZM15.1156 20.353C15.0334 20.353 14.9667 20.2863 14.9667 20.2041C14.9667 20.1218 15.0334 20.0552 15.1156 20.0552C15.1979 20.0552 15.2646 20.1218 15.2646 20.2041C15.2646 20.2863 15.1979 20.353 15.1156 20.353ZM15.7882 19.4328C15.6166 19.4328 15.4774 19.2937 15.4774 19.122C15.4774 18.9504 15.6166 18.8112 15.7882 18.8112C15.9599 18.8112 16.099 18.9504 16.099 19.122C16.099 19.2937 15.9599 19.4328 15.7882 19.4328ZM16.9797 21.5947C16.7778 21.5947 16.6143 21.4311 16.6143 21.2293C16.6143 21.0275 16.7778 20.8639 16.9797 20.8639C17.1816 20.8639 17.3451 21.0275 17.3451 21.2293C17.3451 21.4311 17.1816 21.5947 16.9797 21.5947ZM17.561 19.8105C17.3452 19.8105 17.1704 19.6356 17.1704 19.4199C17.1704 19.2041 17.3452 19.0292 17.561 19.0292C17.7768 19.0292 17.9517 19.2041 17.9517 19.4199C17.9517 19.6356 17.7768 19.8105 17.561 19.8105ZM18.4877 22.3445C18.3224 22.3445 18.1884 22.2105 18.1884 22.0452C18.1884 21.8799 18.3224 21.7459 18.4877 21.7459C18.653 21.7459 18.787 21.8799 18.787 22.0452C18.787 22.2105 18.653 22.3445 18.4877 22.3445ZM18.9496 20.7867C18.7978 20.7867 18.6748 20.6636 18.6748 20.5119C18.6748 20.3601 18.7978 20.237 18.9496 20.237C19.1014 20.237 19.2244 20.3601 19.2244 20.5119C19.2244 20.6636 19.1014 20.7867 18.9496 20.7867ZM19.3734 19.2709C19.2911 19.2709 19.2244 19.2043 19.2244 19.122C19.2244 19.0398 19.2911 18.9731 19.3734 18.9731C19.4556 18.9731 19.5223 19.0398 19.5223 19.122C19.5223 19.2043 19.4556 19.2709 19.3734 19.2709ZM20.3237 21.8042C20.2415 21.8042 20.1748 21.7375 20.1748 21.6552C20.1748 21.573 20.2415 21.5063 20.3237 21.5063C20.406 21.5063 20.4727 21.573 20.4727 21.6552C20.4727 21.7375 20.406 21.8042 20.3237 21.8042Z" fill="white"/>
</svg>
