<svg width="43" height="50" viewBox="0 0 43 50" fill="none" xmlns="http://www.w3.org/2000/svg">
<path d="M42.0055 29.3567C42.224 29.3318 42.4246 29.2242 42.5664 29.0561C42.7081 28.8879 42.7801 28.6719 42.7676 28.4523C42.7551 28.2328 42.6591 28.0263 42.4993 27.8753C42.3394 27.7243 42.1278 27.6401 41.9079 27.6401C41.688 27.6401 41.4764 27.7243 41.3166 27.8753C41.1567 28.0263 41.0607 28.2328 41.0483 28.4523C41.0358 28.6719 41.1078 28.8879 41.2495 29.0561C41.3912 29.2242 41.5919 29.3318 41.8104 29.3567C41.8751 29.3662 41.9408 29.3662 42.0055 29.3567Z" fill="#008771"/>
<path d="M15.7511 39.4671L12.058 48.8042C12.0097 48.908 11.983 49.0206 11.9798 49.1351C11.9765 49.2496 11.9967 49.3636 12.039 49.47C12.0814 49.5765 12.145 49.6731 12.2261 49.7541C12.3071 49.835 12.4038 49.8986 12.5103 49.9408C12.6168 49.983 12.7308 50.003 12.8453 49.9996C12.9598 49.9962 13.0724 49.9695 13.1762 49.921C13.28 49.8725 13.3727 49.8033 13.4488 49.7177C13.5249 49.6321 13.5827 49.5318 13.6187 49.423L17.4799 39.6757L17.8768 39.3191C20.0313 39.7791 22.2665 39.6953 24.3805 39.0752C26.4945 38.4551 28.4207 37.3182 29.9854 35.7673C34.0821 35.8144 36.968 36.7763 38.3336 38.5523C38.7378 39.0949 39.0204 39.7183 39.162 40.38C39.3036 41.0416 39.301 41.7261 39.1542 42.3866C39.0962 42.6016 39.125 42.8307 39.2345 43.0246C39.3441 43.2184 39.5254 43.3614 39.7395 43.4226C39.8154 43.4321 39.8923 43.4321 39.9682 43.4226C40.1519 43.4218 40.3302 43.3608 40.476 43.249C40.6218 43.1373 40.727 42.9809 40.7754 42.8037C40.9878 41.8971 41.0002 40.9552 40.8121 40.0434C40.6239 39.1315 40.2395 38.2715 39.6857 37.523C37.9299 35.2224 34.553 34.0519 29.6356 34.0519C29.5228 34.0524 29.4112 34.0753 29.3073 34.1192C29.2034 34.1631 29.1092 34.2271 29.0302 34.3075C27.8232 35.579 26.3442 36.5608 24.7039 37.1794C23.0636 37.798 21.3045 38.0374 19.5586 37.8796L19.8008 37.6643L21.4892 35.9557C28.0077 35.6866 33.7323 29.4305 35.1181 21.0689C35.9664 20.8814 36.7227 20.4039 37.2569 19.7188C37.791 19.0336 38.0695 18.1836 38.0443 17.3152C38.0487 16.3621 37.7123 15.4388 37.0958 14.7119C37.5801 14.537 38.0645 14.3554 38.5623 14.1401C38.7674 14.0509 38.9288 13.8838 39.0108 13.6757C39.0928 13.4675 39.0887 13.2353 38.9995 13.0301C38.9103 12.825 38.7433 12.6636 38.5351 12.5816C38.327 12.4996 38.0947 12.5037 37.8896 12.5929C37.0169 12.9795 36.1177 13.3032 35.1988 13.5616L35.0912 13.5279C33.6852 5.51611 27.9807 0 21.0183 0C14.0559 0 8.35818 5.51612 6.95897 13.501C6.11142 13.7078 5.35784 14.1932 4.81899 14.8793C4.28015 15.5654 3.98726 16.4125 3.98726 17.2849C3.98726 18.1574 4.28015 19.0045 4.81899 19.6906C5.35784 20.3767 6.11142 20.8621 6.95897 21.0689C7.56923 25.1615 9.41384 28.9704 12.2464 31.9867L12.3136 32.0338L12.8316 33.4599L12.3136 34.4555C12.2437 34.3379 12.1456 34.2394 12.0282 34.1689C11.9108 34.0985 11.7777 34.0583 11.6409 34.0519C6.5419 34.0519 3.10442 35.2022 1.41595 37.4759C0.914988 38.1435 0.569284 38.9144 0.404033 39.7325C0.238782 40.5507 0.258148 41.3953 0.460719 42.205C0.512536 42.3773 0.618258 42.5285 0.762349 42.6362C0.906439 42.744 1.0813 42.8027 1.26123 42.8037C1.3436 42.8035 1.4254 42.7898 1.5034 42.7633C1.61158 42.7327 1.71244 42.6805 1.79993 42.6099C1.88742 42.5392 1.95972 42.4516 2.0125 42.3524C2.06529 42.2531 2.09745 42.1442 2.10707 42.0321C2.11668 41.9201 2.10355 41.8073 2.06846 41.7005C1.93717 41.1469 1.92938 40.5713 2.04564 40.0144C2.1619 39.4575 2.39936 38.933 2.74116 38.4783C4.08656 36.7023 7.1406 35.7875 11.5871 35.7875L5.14269 44.5325C5.06401 44.6196 5.00442 44.7222 4.96776 44.8336C4.9311 44.9451 4.91817 45.063 4.92982 45.1798C4.94147 45.2966 4.97743 45.4096 5.03539 45.5117C5.09335 45.6137 5.17202 45.7025 5.26635 45.7723C5.36068 45.8421 5.46858 45.8914 5.5831 45.917C5.69763 45.9426 5.81624 45.9439 5.93131 45.9209C6.04639 45.8979 6.15538 45.8511 6.25127 45.7834C6.34716 45.7158 6.42782 45.6288 6.48808 45.5281L12.6365 37.18L15.7511 39.4671ZM18.6168 36.44L16.7265 38.0948L13.5379 35.7404L14.473 33.9443C14.5268 33.8415 14.5588 33.7286 14.5669 33.6129C14.575 33.4971 14.5591 33.3809 14.5201 33.2716L13.4101 30.1301C13.3559 29.3615 13.5325 28.5942 13.9172 27.9267C14.302 27.2591 14.8773 26.7216 15.5695 26.3832C15.6168 26.358 15.6618 26.3287 15.704 26.2957L16.0673 26.0199C16.0839 26.0111 16.1023 26.0065 16.1211 26.0065C16.1399 26.0065 16.1584 26.0111 16.1749 26.0199C16.2153 26.0199 16.2287 26.0603 16.2287 26.0737C16.3681 26.4445 16.3681 26.8533 16.2287 27.224L15.6906 27.8564C15.619 27.9407 15.5648 28.0384 15.531 28.1437C15.4971 28.249 15.4844 28.36 15.4934 28.4702C15.5025 28.5805 15.5332 28.6879 15.5837 28.7863C15.6343 28.8847 15.7038 28.9721 15.7881 29.0437C15.8725 29.1152 15.9701 29.1695 16.0754 29.2033C16.1808 29.2371 16.2917 29.2499 16.402 29.2408C16.5122 29.2318 16.6196 29.2011 16.718 29.1505C16.8164 29.1 16.9039 29.0305 16.9754 28.9461L19.7469 25.6836C19.9395 25.451 20.1663 25.2491 20.4196 25.0849C20.5974 24.982 20.7995 24.9285 21.0049 24.9301L19.3971 27.4797C19.3209 27.6076 19.28 27.7535 19.2786 27.9025C19.2772 28.0514 19.3154 28.1981 19.3893 28.3274C19.4632 28.4567 19.5702 28.5641 19.6992 28.6385C19.8282 28.713 19.9747 28.7518 20.1236 28.7511C20.2665 28.7515 20.4072 28.7153 20.532 28.6458C20.6569 28.5763 20.7618 28.4759 20.8367 28.3542L23.5275 24.0826C23.6631 23.9547 23.8266 23.8603 24.0051 23.8067C24.0846 23.7835 24.1683 23.7788 24.2499 23.7927C24.3315 23.8067 24.4088 23.8391 24.476 23.8875L24.6374 24.0086C24.6038 24.096 24.5365 24.2305 24.4895 24.3382L24.4558 24.4054L21.6507 29.1143C21.5747 29.2418 21.5338 29.3871 21.5321 29.5355C21.5305 29.6838 21.5681 29.83 21.6412 29.9591C21.7143 30.0882 21.8203 30.1957 21.9484 30.2707C22.0765 30.3456 22.2221 30.3853 22.3705 30.3857C22.5165 30.3851 22.66 30.3471 22.7872 30.2753C22.9144 30.2034 23.0211 30.1002 23.097 29.9754L25.4716 25.9997C25.7088 26.4609 25.7594 26.9957 25.6129 27.4931C25.5261 27.7802 25.392 28.0508 25.216 28.2936L25.1689 28.3676L23.1508 31.8186L20.5878 34.4085C20.4348 34.4873 20.3101 34.6119 20.2313 34.765L18.6168 36.44ZM21.0183 1.68174C27.1735 1.68174 32.212 6.69333 33.4296 13.9248C31.0375 14.3522 28.5791 14.2218 26.2456 13.5439C23.9121 12.8661 21.7665 11.6589 19.9757 10.0165C19.8359 9.87234 19.6493 9.78295 19.4494 9.76445C19.2496 9.74594 19.0497 9.79954 18.8859 9.91555L14.177 13.1378L14.6143 11.086C14.6621 10.8942 14.6407 10.6916 14.5539 10.5138C14.4672 10.3361 14.3205 10.1947 14.1398 10.1144C13.9591 10.0341 13.7559 10.02 13.5658 10.0747C13.3758 10.1294 13.2111 10.2493 13.1007 10.4133C12.0187 11.8159 10.4822 12.7982 8.75507 13.1916C10.1408 6.35699 15.065 1.68174 21.0183 1.68174ZM7.5644 19.414C7.52208 19.407 7.4789 19.407 7.43659 19.414C6.93135 19.3518 6.46828 19.101 6.14019 18.7118C5.81209 18.3225 5.64322 17.8237 5.66739 17.3152C5.62563 16.7935 5.7882 16.2759 6.1208 15.8718C6.45341 15.4676 6.93001 15.2085 7.45004 15.1491H7.59131C7.73613 15.166 7.8825 15.1353 8.00838 15.0617C9.55435 14.8191 11.0324 14.2553 12.3473 13.4068L12.0446 14.8128C12.0089 14.9768 12.0232 15.1478 12.0855 15.3036C12.1479 15.4595 12.2554 15.5931 12.3944 15.6873C12.5326 15.7834 12.6969 15.835 12.8652 15.8353C13.0353 15.8327 13.2011 15.7814 13.3429 15.6873L19.2559 11.6511C21.4295 13.4705 24.0031 14.7494 26.7659 15.3831C29.5288 16.0168 32.4024 15.9873 35.1517 15.2971C35.5296 15.4784 35.8466 15.7657 36.064 16.1241C36.2814 16.4824 36.3898 16.8963 36.376 17.3152C36.4104 17.8335 36.2436 18.3452 35.9103 18.7436C35.577 19.1421 35.1029 19.3967 34.5866 19.4544H34.4521C34.2363 19.4352 34.0214 19.5 33.8522 19.6353C33.683 19.7707 33.5726 19.9661 33.544 20.1809C32.6089 27.1568 28.4584 32.6393 23.4535 34.0048L24.4827 32.9622C24.5348 32.9122 24.58 32.8557 24.6173 32.794L26.6354 29.2825C26.9017 28.9013 27.1081 28.4816 27.2475 28.038C27.4165 27.4528 27.4436 26.8357 27.3266 26.238C27.2096 25.6402 26.9519 25.0789 26.5748 24.6005C26.4988 24.5008 26.4025 24.4182 26.2923 24.3584C26.3758 23.9936 26.3312 23.6111 26.1658 23.2754C26.0003 22.9397 25.7243 22.6712 25.3841 22.5152C24.9949 22.2611 24.5378 22.1309 24.0731 22.1417C23.6084 22.1525 23.1578 22.3038 22.7808 22.5757C22.4542 22.804 22.1561 23.0704 21.8928 23.3695C21.5065 23.2587 21.1017 23.2272 20.7029 23.2769C20.304 23.3266 19.9194 23.4565 19.572 23.6588C19.1533 23.913 18.7785 24.2333 18.4621 24.6073L17.7894 25.4145C17.6882 25.1826 17.5386 24.975 17.3507 24.8056C17.1627 24.6363 16.9407 24.509 16.6996 24.4324C16.421 24.3426 16.1248 24.3221 15.8365 24.3725C15.5481 24.4229 15.2764 24.5427 15.0448 24.7216L14.7488 24.9571C13.9998 25.3464 13.3478 25.8992 12.8413 26.5746C12.3348 27.25 11.9866 28.0306 11.8226 28.8587C10.0481 26.2533 8.91199 23.2666 8.50617 20.1405C8.476 19.9265 8.36518 19.732 8.19636 19.597C8.02755 19.4619 7.81351 19.3965 7.59803 19.414H7.5644Z" fill="#008771"/>
<path d="M14.0753 19.7168L16.867 20.9142C16.9721 20.9558 17.0837 20.9786 17.1967 20.9814C17.3911 20.983 17.58 20.9172 17.7314 20.7952C17.8827 20.6731 17.9871 20.5024 18.0267 20.3121C18.0664 20.1218 18.0389 19.9236 17.9488 19.7513C17.8588 19.5789 17.7119 19.4431 17.533 19.367L14.7346 18.1696C14.5294 18.0804 14.2972 18.0763 14.0891 18.1583C13.8809 18.2403 13.7138 18.4016 13.6246 18.6068C13.5354 18.812 13.5314 19.0442 13.6134 19.2524C13.6954 19.4605 13.8567 19.6276 14.0619 19.7168H14.0753Z" fill="#008771"/>
<path d="M23.804 20.9814C23.9171 20.9793 24.0288 20.9565 24.1336 20.9142L26.959 19.7168C27.0606 19.6726 27.1525 19.6089 27.2294 19.5292C27.3064 19.4495 27.3669 19.3554 27.4075 19.2524C27.4481 19.1493 27.468 19.0392 27.466 18.9285C27.4641 18.8177 27.4404 18.7084 27.3962 18.6068C27.352 18.5052 27.2883 18.4133 27.2086 18.3364C27.1289 18.2594 27.0349 18.1989 26.9318 18.1583C26.8287 18.1177 26.7187 18.0978 26.6079 18.0997C26.4972 18.1017 26.3879 18.1254 26.2863 18.1696L23.4878 19.367C23.3863 19.4103 23.2942 19.4731 23.2169 19.552C23.1396 19.6309 23.0786 19.7242 23.0374 19.8266C22.9961 19.9291 22.9755 20.0386 22.9766 20.1491C22.9777 20.2595 23.0006 20.3686 23.0439 20.4702C23.109 20.6188 23.215 20.7458 23.3496 20.8363C23.4842 20.9268 23.6418 20.9772 23.804 20.9814Z" fill="#008771"/>
<path d="M3.86543 22.3202C3.71449 22.2505 3.54625 22.227 3.382 22.2529C3.21774 22.2788 3.06484 22.3527 2.94262 22.4655C2.8204 22.5782 2.73434 22.7247 2.69534 22.8863C2.65633 23.0479 2.66613 23.2175 2.72348 23.3736C2.78083 23.5297 2.88317 23.6652 3.01755 23.7631C3.15194 23.8611 3.31234 23.9169 3.47848 23.9237C3.64462 23.9305 3.80904 23.8879 3.95095 23.8012C4.09287 23.7146 4.2059 23.5878 4.27578 23.4369C4.3222 23.3366 4.34842 23.2282 4.35292 23.1178C4.35742 23.0074 4.34012 22.8972 4.30202 22.7935C4.26391 22.6898 4.20573 22.5946 4.13082 22.5134C4.05591 22.4322 3.96573 22.3666 3.86543 22.3202Z" fill="#008771"/>
<path d="M6.30575 23.4572C6.20471 23.4 6.09294 23.3644 5.97746 23.3525C5.86198 23.3407 5.74529 23.3529 5.63476 23.3883C5.52422 23.4238 5.42223 23.4818 5.33519 23.5586C5.24816 23.6354 5.17798 23.7294 5.12907 23.8347C5.08015 23.94 5.05357 24.0543 5.05099 24.1703C5.04841 24.2864 5.06989 24.4017 5.11407 24.5091C5.15825 24.6164 5.22419 24.7134 5.30772 24.7941C5.39125 24.8747 5.49057 24.9371 5.59942 24.9775C5.70871 25.0297 5.82812 25.0572 5.94922 25.0582C6.13997 25.0575 6.32482 24.992 6.47342 24.8724C6.62203 24.7529 6.72556 24.5863 6.76703 24.4001C6.80849 24.2139 6.78541 24.0192 6.70159 23.8478C6.61777 23.6765 6.47819 23.5387 6.30575 23.4572Z" fill="#008771"/>
<path d="M5.78171 26.4639C5.67402 26.4884 5.57227 26.5341 5.48238 26.5982C5.39248 26.6624 5.31622 26.7438 5.25802 26.8376C5.19982 26.9315 5.16084 27.036 5.14334 27.1451C5.12585 27.2541 5.13019 27.3655 5.1561 27.4729C5.19591 27.6617 5.29893 27.8313 5.44815 27.9536C5.59737 28.0759 5.78386 28.1436 5.97679 28.1456H6.17187C6.28275 28.1235 6.38803 28.0792 6.48141 28.0155C6.57479 27.9517 6.65436 27.8698 6.71535 27.7746C6.77634 27.6794 6.8175 27.5729 6.83638 27.4614C6.85525 27.3499 6.85145 27.2358 6.8252 27.1258C6.79895 27.0158 6.75079 26.9123 6.68361 26.8213C6.61642 26.7304 6.53158 26.6539 6.43416 26.5965C6.33675 26.5391 6.22876 26.502 6.11666 26.4873C6.00455 26.4726 5.89063 26.4806 5.78171 26.511V26.4639Z" fill="#008771"/>
<path d="M0.72315 29.3563C0.788014 29.3628 0.853369 29.3628 0.918233 29.3563C1.12595 29.3314 1.31634 29.2281 1.45047 29.0676C1.58461 28.9071 1.65238 28.7014 1.63993 28.4925C1.62747 28.2837 1.53574 28.0875 1.38347 27.9441C1.2312 27.8006 1.02989 27.7207 0.820692 27.7207C0.611489 27.7207 0.410182 27.8006 0.257914 27.9441C0.105645 28.0875 0.0139109 28.2837 0.00145667 28.4925C-0.0109976 28.7014 0.0567693 28.9071 0.190908 29.0676C0.325047 29.2281 0.51543 29.3314 0.72315 29.3563Z" fill="#008771"/>
<path d="M2.54054 28.0786C2.57895 28.2669 2.68067 28.4363 2.82876 28.5587C2.97685 28.681 3.16239 28.749 3.3545 28.7513C3.41918 28.7608 3.4849 28.7608 3.54958 28.7513C3.71058 28.7157 3.85757 28.6336 3.97227 28.5152C4.08697 28.3968 4.16431 28.2472 4.19469 28.0852C4.22507 27.9231 4.20713 27.7557 4.14312 27.6037C4.0791 27.4518 3.97183 27.322 3.83465 27.2306C3.69746 27.1391 3.53642 27.09 3.37154 27.0894C3.20667 27.0887 3.04524 27.1365 2.90733 27.2269C2.76943 27.3173 2.66113 27.4462 2.59592 27.5976C2.5307 27.7491 2.51145 27.9163 2.54054 28.0786Z" fill="#008771"/>
<path d="M6.15789 30.9576C6.30957 31.0931 6.50614 31.1674 6.7095 31.1662C6.88086 31.167 7.04839 31.1155 7.18964 31.0184C7.3309 30.9214 7.43914 30.7836 7.49987 30.6233C7.5606 30.4631 7.57092 30.2881 7.52945 30.1218C7.48799 29.9556 7.3967 29.8059 7.26784 29.693C7.09882 29.5467 6.87888 29.4732 6.65588 29.4883C6.43289 29.5034 6.22489 29.606 6.07716 29.7737C5.93131 29.9416 5.85791 30.1604 5.87304 30.3823C5.88817 30.6042 5.99059 30.8111 6.15789 30.9576Z" fill="#008771"/>
<path d="M4.29982 31.7918C4.15397 31.9597 4.08057 32.1786 4.0957 32.4004C4.11083 32.6223 4.21325 32.8292 4.38054 32.9757C4.53157 33.1131 4.72803 33.1898 4.93216 33.191C5.07239 33.1904 5.21025 33.1547 5.33318 33.0873C5.45612 33.0198 5.56022 32.9226 5.63602 32.8046C5.71182 32.6867 5.7569 32.5516 5.76717 32.4117C5.77744 32.2719 5.75257 32.1317 5.69482 32.0039C5.63706 31.8761 5.54827 31.7647 5.43651 31.68C5.32475 31.5953 5.19358 31.5399 5.05493 31.5188C4.91629 31.4978 4.77457 31.5117 4.64269 31.5594C4.5108 31.607 4.39294 31.6869 4.29982 31.7918Z" fill="#008771"/>
<path d="M36.7926 25.0579C36.9158 25.0562 37.0373 25.0287 37.1492 24.9772C37.3346 24.8891 37.481 24.7357 37.5604 24.5464C37.6398 24.357 37.6466 24.1451 37.5795 23.951C37.5123 23.757 37.376 23.5946 37.1966 23.4948C37.0171 23.395 36.8072 23.3649 36.607 23.4102C36.4067 23.4556 36.2303 23.5732 36.1113 23.7405C35.9923 23.9078 35.9393 24.1132 35.9623 24.3172C35.9853 24.5212 36.0827 24.7096 36.2359 24.8463C36.3891 24.9829 36.5873 25.0583 36.7926 25.0579Z" fill="#008771"/>
<path d="M38.8788 22.3203C38.7785 22.3666 38.6883 22.4323 38.6134 22.5135C38.5385 22.5947 38.4803 22.6899 38.4422 22.7936C38.4041 22.8973 38.3868 23.0075 38.3913 23.1179C38.3958 23.2283 38.422 23.3367 38.4685 23.4369C38.5359 23.583 38.6442 23.7065 38.7803 23.7925C38.9164 23.8784 39.0744 23.9231 39.2353 23.9213C39.3563 23.9259 39.4764 23.9004 39.5851 23.8473C39.7609 23.742 39.8921 23.5761 39.9542 23.3809C40.0163 23.1857 40.005 22.9745 39.9224 22.787C39.8398 22.5996 39.6916 22.4487 39.5057 22.3627C39.3197 22.2768 39.1088 22.2617 38.9124 22.3203H38.8788Z" fill="#008771"/>
<path d="M39.1953 28.7511C39.2601 28.758 39.3255 28.758 39.3904 28.7511C39.5482 28.7506 39.7027 28.7056 39.8362 28.6215C39.9697 28.5373 40.0768 28.4172 40.1452 28.275C40.2137 28.1328 40.2408 27.9742 40.2234 27.8174C40.2059 27.6605 40.1447 27.5118 40.0467 27.3881C39.9487 27.2644 39.8179 27.1707 39.6692 27.1179C39.5205 27.065 39.3599 27.0551 39.2058 27.0892C39.0517 27.1233 38.9104 27.2001 38.7979 27.3108C38.6854 27.4215 38.6063 27.5616 38.5697 27.7151C38.5416 27.8243 38.5356 27.9379 38.552 28.0494C38.5683 28.1609 38.6068 28.268 38.665 28.3644C38.7233 28.4609 38.8002 28.5448 38.8912 28.6112C38.9823 28.6776 39.0856 28.7251 39.1953 28.7511Z" fill="#008771"/>
<path d="M37.585 27.4732C37.6367 27.2556 37.5999 27.0263 37.4826 26.8358C37.3652 26.6453 37.1771 26.5092 36.9594 26.4574C36.7417 26.4057 36.5124 26.4425 36.3219 26.5599C36.1314 26.6772 35.9954 26.8654 35.9436 27.083C35.8989 27.2977 35.9391 27.5213 36.0557 27.707C36.1724 27.8926 36.3564 28.0258 36.5692 28.0786H36.7643C36.9483 28.0805 37.1278 28.0224 37.2759 27.9132C37.4239 27.8039 37.5324 27.6495 37.585 27.4732Z" fill="#008771"/>
<path d="M37.8091 33.191C38.0132 33.1897 38.2096 33.113 38.3607 32.9757C38.5037 32.8456 38.5967 32.6696 38.6234 32.4781C38.6502 32.2866 38.6091 32.0918 38.5072 31.9275C38.4053 31.7632 38.2491 31.6398 38.0657 31.5786C37.8823 31.5175 37.6833 31.5225 37.5032 31.5927C37.3231 31.663 37.1733 31.7942 37.0798 31.9634C36.9863 32.1326 36.955 32.3292 36.9913 32.5191C37.0277 32.709 37.1293 32.8801 37.2787 33.0029C37.4281 33.1256 37.6157 33.1921 37.8091 33.191Z" fill="#008771"/>
<path d="M35.475 29.6929C35.3082 29.8415 35.2069 30.05 35.193 30.273C35.1792 30.496 35.2539 30.7154 35.401 30.8836C35.4803 30.9729 35.5777 31.0442 35.6867 31.093C35.7957 31.1417 35.9139 31.1666 36.0333 31.1661C36.2367 31.1673 36.4332 31.093 36.5849 30.9576C36.668 30.8847 36.7358 30.7962 36.7847 30.697C36.8335 30.5979 36.8623 30.4902 36.8695 30.3799C36.8767 30.2697 36.8621 30.1591 36.8265 30.0545C36.791 29.9499 36.7352 29.8533 36.6623 29.7702C36.5894 29.6872 36.5009 29.6193 36.4018 29.5705C36.3027 29.5217 36.1949 29.4929 36.0847 29.4857C35.9744 29.4785 35.8638 29.4931 35.7592 29.5286C35.6546 29.5642 35.558 29.62 35.475 29.6929Z" fill="#008771"/>
</svg>
