<svg width="49" height="50" viewBox="0 0 49 50" fill="none" xmlns="http://www.w3.org/2000/svg">
<path d="M24.1892 4.61259e-05C24.0688 -0.00155328 23.9516 0.0384852 23.8573 0.113387C23.7631 0.188289 23.6977 0.29344 23.6721 0.41104L22.4625 5.64135C22.4274 5.72687 22.4157 5.82017 22.4285 5.9117C22.4424 6.04867 22.5099 6.17462 22.6163 6.26208C22.7226 6.34954 22.8593 6.39144 22.9965 6.37866L24.336 6.62711L23.2491 9.17381C23.2215 9.23694 23.2067 9.3049 23.2055 9.37378C23.2043 9.44265 23.2168 9.51109 23.2422 9.57512C23.2676 9.63916 23.3055 9.69753 23.3536 9.74687C23.4017 9.79621 23.4591 9.83554 23.5225 9.8626C23.5859 9.88965 23.654 9.90389 23.7229 9.9045C23.7918 9.90511 23.8602 9.89209 23.924 9.86616C23.9879 9.84023 24.046 9.80191 24.095 9.75343C24.1439 9.70496 24.1828 9.64726 24.2094 9.58369L25.552 6.43691C25.5533 6.435 25.5546 6.43308 25.5559 6.43115C25.56 6.42169 25.5639 6.41209 25.5674 6.4024C25.5953 6.32464 25.6044 6.24137 25.5938 6.15945C25.5832 6.07752 25.5533 5.9993 25.5066 5.93118C25.4598 5.86305 25.3976 5.80699 25.3249 5.76761C25.2523 5.72822 25.1713 5.70662 25.0887 5.70461L23.5853 5.42676L24.6916 0.64649C24.7104 0.570205 24.7117 0.490658 24.6954 0.413806C24.6791 0.336954 24.6457 0.264764 24.5976 0.20263C24.5495 0.140496 24.488 0.0900391 24.4176 0.0549806C24.3473 0.0199221 24.2699 0.00117432 24.1913 0.000163822L24.1892 4.61259e-05ZM16.9096 4.67186C16.8146 4.6687 16.7206 4.69153 16.6376 4.73786C16.5546 4.78419 16.4859 4.85226 16.4388 4.93476C16.3917 5.01727 16.368 5.11109 16.3703 5.20605C16.3726 5.30102 16.4008 5.39354 16.4519 5.47366L17.9363 7.88019L17.541 8.1523C17.4547 8.19404 17.3815 8.2587 17.3296 8.33923C17.2776 8.41976 17.2489 8.51305 17.2465 8.60884C17.2434 8.68543 17.2572 8.76174 17.2869 8.83238C17.3167 8.90302 17.3617 8.96624 17.4186 9.01754L18.6832 10.5286C18.7265 10.583 18.7804 10.6281 18.8415 10.6615C18.9026 10.6948 18.9697 10.7155 19.039 10.7225C19.1082 10.7295 19.1782 10.7226 19.2447 10.7022C19.3112 10.6818 19.373 10.6483 19.4264 10.6037C19.4798 10.559 19.5237 10.5042 19.5556 10.4424C19.5875 10.3805 19.6066 10.313 19.612 10.2436C19.6174 10.1743 19.6088 10.1045 19.5868 10.0385C19.5649 9.97253 19.5299 9.9116 19.484 9.8593L18.5405 8.73139L18.8592 8.51177C18.9379 8.47648 19.0065 8.42224 19.0591 8.35394C19.1117 8.28564 19.1466 8.20539 19.1605 8.12035C19.1606 8.11842 19.1606 8.11651 19.1605 8.11458C19.1621 8.10504 19.1634 8.09544 19.1644 8.08583C19.1731 8.01288 19.1662 7.93893 19.1443 7.8688C19.1224 7.79867 19.086 7.73394 19.0373 7.67887L17.3394 4.92661C17.2946 4.85157 17.2317 4.78898 17.1564 4.74457C17.0812 4.70015 16.997 4.67479 16.9096 4.67186ZM30.9501 4.67186C30.8565 4.6684 30.7636 4.69019 30.6813 4.73492C30.599 4.77964 30.5303 4.84567 30.4823 4.92608L28.779 7.68708C28.691 7.79099 28.647 7.92517 28.6566 8.061C28.6662 8.19682 28.7285 8.32353 28.8303 8.41406C28.8359 8.41998 28.8417 8.42577 28.8476 8.43142C28.8539 8.43736 28.8603 8.44315 28.8669 8.44878C28.8745 8.45477 28.8822 8.46057 28.8901 8.46614L29.2832 8.73707L28.3399 9.86457C28.2939 9.91685 28.2589 9.97781 28.2369 10.0438C28.2149 10.1098 28.2063 10.1796 28.2116 10.2489C28.217 10.3183 28.2362 10.3859 28.268 10.4478C28.2999 10.5096 28.3439 10.5645 28.3973 10.6091C28.4507 10.6538 28.5125 10.6873 28.5791 10.7077C28.6456 10.7281 28.7156 10.735 28.7849 10.728C28.8541 10.721 28.9213 10.7002 28.9824 10.6668C29.0435 10.6335 29.0973 10.5883 29.1407 10.5338L30.4517 8.96717C30.453 8.96525 30.4543 8.96334 30.4556 8.9614C30.4588 8.95759 30.4621 8.95374 30.4652 8.94984C30.5137 8.88855 30.5478 8.81716 30.5649 8.74096C30.5821 8.66475 30.5819 8.58567 30.5644 8.50954C30.547 8.4334 30.5126 8.36215 30.4639 8.30107C30.4152 8.23998 30.3533 8.19062 30.283 8.1566L29.888 7.88507L31.3725 5.47849C31.4219 5.40096 31.45 5.31175 31.4538 5.21991C31.4576 5.12807 31.4371 5.03688 31.3943 4.95551C31.3515 4.87414 31.288 4.80549 31.2102 4.75654C31.1323 4.7076 31.0429 4.68007 30.951 4.67675L30.9501 4.67186ZM8.75755 5.10884C8.6494 5.10698 8.54334 5.13873 8.45403 5.19973C8.36472 5.26072 8.29657 5.34795 8.25901 5.44933C8.22144 5.55071 8.2163 5.66124 8.24431 5.76567C8.27232 5.87009 8.33211 5.96325 8.41538 6.03225L12.1584 9.20818L11.1194 10.3267C11.0547 10.377 11.0027 10.4417 10.9677 10.5158C10.9327 10.5899 10.9157 10.6711 10.9179 10.753C10.9202 10.8349 10.9417 10.9151 10.9807 10.9871C11.0197 11.0591 11.0752 11.121 11.1425 11.1676C11.1425 11.1675 11.1426 11.1677 11.1425 11.1676C11.1554 11.1759 11.1689 11.1838 11.1825 11.1909L11.1863 11.1925C11.1876 11.1929 11.1889 11.1934 11.1902 11.1938L14.1415 12.9142C14.2008 12.9498 14.2665 12.9732 14.3349 12.9832C14.4033 12.9932 14.473 12.9896 14.54 12.9724C14.607 12.9553 14.6699 12.9251 14.725 12.8834C14.7802 12.8418 14.8266 12.7897 14.8614 12.73C14.8963 12.6703 14.9189 12.6043 14.9281 12.5358C14.9372 12.4673 14.9326 12.3977 14.9146 12.331C14.8966 12.2643 14.8655 12.2018 14.8231 12.1472C14.7808 12.0926 14.728 12.047 14.6678 12.0129L12.2744 10.6178L13.2176 9.60246C13.3144 9.53693 13.3865 9.44078 13.4222 9.32944C13.4579 9.21809 13.4551 9.098 13.4143 8.98841C13.4131 8.98454 13.4118 8.98069 13.4105 8.97685C13.4086 8.97297 13.4066 8.96912 13.4047 8.96528C13.362 8.85785 13.2848 8.7676 13.1853 8.70874L9.09435 5.23748C9.00171 5.15665 8.88348 5.1111 8.76052 5.10887L8.75755 5.10884ZM38.4 5.10884C38.2825 5.11461 38.1703 5.15993 38.0817 5.23745L33.9888 8.71033C33.8889 8.76979 33.8117 8.86087 33.7695 8.96914C33.7225 9.08043 33.7155 9.20461 33.7498 9.32046C33.7841 9.43631 33.8576 9.53667 33.9577 9.6044L34.9013 10.6202L32.5076 12.0153C32.448 12.0496 32.3958 12.0954 32.354 12.15C32.3121 12.2046 32.2815 12.2669 32.2639 12.3334C32.2462 12.3998 32.2419 12.4691 32.2511 12.5372C32.2603 12.6054 32.2829 12.671 32.3176 12.7304C32.3523 12.7898 32.3984 12.8417 32.4532 12.8833C32.5081 12.9248 32.5706 12.955 32.6372 12.9723C32.7038 12.9896 32.7731 12.9936 32.8412 12.984C32.9094 12.9744 32.9749 12.9515 33.0342 12.9165L35.9906 11.1933C35.9952 11.1895 35.9997 11.1857 36.0041 11.1817C36.008 11.1799 36.0118 11.1779 36.0157 11.1759C36.0854 11.1307 36.1434 11.0695 36.1847 10.9974C36.226 10.9253 36.2495 10.8444 36.2533 10.7614C36.257 10.6784 36.2408 10.5957 36.2061 10.5202C36.1714 10.4447 36.1191 10.3786 36.0537 10.3273L35.0132 9.20739L38.7564 6.03145C38.8409 5.96166 38.9013 5.86705 38.929 5.76105C38.9567 5.65504 38.9503 5.54303 38.9107 5.44086C38.8711 5.33869 38.8004 5.25155 38.7085 5.19181C38.6166 5.13208 38.5095 5.10357 38.4 5.10884ZM24.0121 11.2827C19.3521 11.2827 15.5841 15.0462 15.5841 19.702V20.6077C14.6966 20.8308 14.0502 21.6786 14.0502 22.6515C14.0502 23.6276 14.7008 24.4777 15.5927 24.6974C15.7883 29.1788 19.4777 32.7431 24.0121 32.7431C28.5489 32.7431 32.2395 29.1749 32.4314 24.69C33.3082 24.4589 33.9443 23.6168 33.9443 22.6515C33.9443 21.6893 33.3124 20.8493 32.44 20.6151V19.702C32.44 15.0462 28.672 11.2827 24.0121 11.2827ZM24.0121 12.3256C28.0035 12.3256 31.2202 15.4358 31.3875 19.3794C30.7928 19.1863 30.2558 18.8969 29.7871 18.532C29.2493 18.1129 28.8023 17.5948 28.4661 17.0128C28.419 16.9288 28.3496 16.8594 28.2655 16.8124C28.1815 16.7654 28.086 16.7426 27.9898 16.7464C27.9121 16.7494 27.8361 16.7697 27.7672 16.8058C27.6984 16.8419 27.6385 16.893 27.5919 16.9551C27.1273 17.4071 26.5804 17.7745 25.975 18.0304C25.347 18.2956 24.657 18.4426 23.9303 18.4426C23.2036 18.4426 22.5143 18.2962 21.8863 18.0304C21.2805 17.7744 20.7331 17.4064 20.2682 16.9541C20.2201 16.89 20.1578 16.8378 20.0862 16.8016C20.0146 16.7654 19.9357 16.7462 19.8555 16.7454C19.8337 16.7453 19.8119 16.7466 19.7903 16.7493C19.7903 16.7492 19.7903 16.7493 19.7903 16.7493C19.7764 16.7506 19.7626 16.7528 19.7488 16.7552C19.6633 16.7712 19.5831 16.8082 19.5156 16.863C19.448 16.9177 19.3952 16.9885 19.362 17.0688C19.0298 17.6274 18.5959 18.1257 18.076 18.5305C17.6511 18.8614 17.1687 19.1294 16.639 19.3205C16.8348 15.4039 20.0417 12.3242 24.0139 12.3242L24.0121 12.3256ZM10.091 15.644C8.9017 15.6728 7.75361 16.2988 7.1168 17.4019L0.237467 29.3191C0.221784 29.3431 0.208121 29.3684 0.196597 29.3947C0.195266 29.3985 0.193983 29.4024 0.192742 29.4062C0.187835 29.4176 0.183326 29.4291 0.179237 29.4408C0.177207 29.4465 0.175267 29.4523 0.17344 29.4581C-0.274568 30.8228 0.1638 32.3765 1.27525 33.2954C3.82049 35.8411 6.39971 38.963 8.99642 41.5792V49.4783C8.99644 49.6166 9.05143 49.7493 9.14929 49.8471C9.24715 49.9449 9.37987 49.9999 9.51828 50H38.5063C38.5749 50.0001 38.6428 49.9866 38.7062 49.9604C38.7696 49.9342 38.8272 49.8958 38.8757 49.8473C38.9242 49.7989 38.9627 49.7414 38.989 49.678C39.0153 49.6147 39.0288 49.5469 39.0288 49.4783V41.3752C41.6162 38.7758 44.1983 35.8489 46.7528 33.2948C47.8586 32.3799 48.2976 30.8363 47.8594 29.4763C47.8576 29.4705 47.8557 29.4647 47.8536 29.4589C47.8536 29.457 47.8536 29.4551 47.8498 29.4531C47.8485 29.4493 47.8473 29.4454 47.8459 29.4416C47.8424 29.4319 47.8385 29.4223 47.8344 29.4129C47.8221 29.3825 47.8071 29.3534 47.7894 29.3259L40.9054 17.4021C40.1777 16.1414 38.7827 15.5016 37.421 15.6698C36.9671 15.7275 36.5165 15.8716 36.0961 16.1142C34.4147 17.0845 33.8682 19.2246 34.8028 20.9123L39.9195 30.1519C38.5627 31.4057 36.4289 32.7972 34.9984 34.1692H31.7837L30.0274 32.6139C29.9351 32.5322 29.8168 32.4858 29.6936 32.483C29.6294 32.4809 29.5654 32.4906 29.5048 32.5117L24.9363 34.1454H23.0812L18.5119 32.5117C18.4462 32.4886 18.3765 32.4788 18.307 32.483C18.1897 32.4895 18.0781 32.5355 17.9901 32.6133L16.2337 34.1686H13.0213C11.5908 32.7966 9.45719 31.405 8.10046 30.1513L13.2171 20.9117C14.1517 19.224 13.6053 17.0839 11.9238 16.1137C11.5035 15.871 11.0528 15.7251 10.5989 15.6692C10.4287 15.6461 10.2578 15.6405 10.0879 15.6461L10.091 15.644ZM10.1103 16.6804C10.5476 16.6746 10.9941 16.7801 11.4052 17.0176C12.6013 17.7077 12.9821 19.1892 12.3078 20.4069L7.0368 29.9237C6.95723 30.0252 6.91808 30.1525 6.92691 30.2812C6.93574 30.4098 6.99192 30.5307 7.08461 30.6204C7.08652 30.6223 7.08867 30.6244 7.09061 30.6263C8.58721 32.1167 10.9776 33.6346 12.3624 34.9799C12.4118 35.0538 12.4792 35.1138 12.5583 35.1544C12.6374 35.1949 12.7255 35.2147 12.8143 35.2116C12.8182 35.2117 12.822 35.2117 12.8259 35.2116H16.4687L20.1398 37.3012C20.2323 37.3543 20.3388 37.3778 20.445 37.3685C20.5513 37.3592 20.6521 37.3176 20.734 37.2494L21.5193 36.5897L22.438 38.1765L19.9767 48.9555H10.0395V41.3643C10.0395 41.3585 10.0394 41.3527 10.0393 41.3469C10.0392 41.345 10.0391 41.343 10.039 41.3411C10.0379 41.2553 10.0156 41.1711 9.9741 41.096C9.93262 41.0209 9.87326 40.9572 9.80126 40.9105C7.22938 38.3279 4.62229 35.1669 1.99837 32.5446C1.98553 32.5324 1.97207 32.5209 1.95806 32.5101C1.1966 31.8932 0.865208 30.7652 1.15293 29.8275L8.02151 17.9291C8.47436 17.1446 9.27462 16.7023 10.1093 16.686L10.1103 16.6804ZM37.9173 16.6804C38.7521 16.6977 39.5527 17.1387 40.0056 17.9234L46.8744 29.8225C47.1618 30.7601 46.83 31.8877 46.0689 32.5044C46.0551 32.5152 46.0418 32.5267 46.0292 32.5389C43.4027 35.1637 40.7805 38.1409 38.1875 40.7369C38.1307 40.7809 38.0836 40.8362 38.0492 40.8993C38.0148 40.9624 37.9938 41.0319 37.9875 41.1035C37.9874 41.1073 37.9874 41.1112 37.9875 41.1151C37.9872 41.1247 37.9872 41.1342 37.9875 41.1438C37.9872 41.1515 37.9872 41.1592 37.9873 41.167V48.9485H28.0576L25.7985 38.1763L26.6595 36.7103L27.2933 37.2424C27.3751 37.3105 27.4758 37.3519 27.5819 37.3612C27.688 37.3705 27.7943 37.3471 27.8867 37.2942L31.5588 35.2046H35.2157C35.2209 35.2046 35.226 35.2045 35.2312 35.2044C35.2337 35.2043 35.2363 35.2043 35.2389 35.2042C35.3236 35.2032 35.4068 35.1817 35.4813 35.1414C35.5558 35.1011 35.6194 35.0433 35.6665 34.973C37.0478 33.6311 39.4296 32.1175 40.9271 30.6305C40.9284 30.6299 40.9297 30.6292 40.931 30.6286C40.9368 30.6228 40.9425 30.617 40.9464 30.6112C40.9483 30.6093 40.9503 30.6074 40.9522 30.6055C40.9588 30.598 40.9652 30.5904 40.9715 30.5825C41.0532 30.4912 41.1002 30.3741 41.1042 30.2516C41.1082 30.1292 41.069 30.0092 40.9934 29.9128L35.7228 20.3962C35.0485 19.1786 35.4285 17.6971 36.6246 17.0069C37.0357 16.77 37.4823 16.6616 37.9196 16.6697L37.9173 16.6804ZM19.9533 18.0702C20.4127 18.4449 20.9257 18.7565 21.4803 18.991C22.2339 19.3097 23.0634 19.4861 23.9312 19.4861C24.799 19.4861 25.6285 19.3091 26.3821 18.991C26.9366 18.7563 27.4498 18.445 27.9093 18.0703C28.2561 18.5511 28.671 18.9847 29.1459 19.3545C29.7914 19.8572 30.5476 20.2424 31.3858 20.4669C31.3896 20.4676 31.3935 20.4682 31.3974 20.4688V24.3226C31.3974 28.4181 28.1135 31.699 24.0137 31.699C19.9139 31.699 16.6293 28.4181 16.6293 24.3226V20.422C17.4069 20.1931 18.111 19.8263 18.7172 19.3542C19.1922 18.9841 19.6064 18.5511 19.9533 18.0702ZM15.5851 21.7265V23.5764C15.2968 23.4 15.0956 23.0628 15.0956 22.6515C15.0956 22.2399 15.2968 21.9026 15.5851 21.7265ZM32.4409 21.7438C32.7131 21.9249 32.901 22.2529 32.901 22.6498C32.901 23.047 32.7132 23.3747 32.4409 23.5555V21.7438ZM24.013 27.5681C23.1845 27.5681 22.4506 28.0183 21.9536 28.6772C21.9112 28.7318 21.8801 28.7943 21.8621 28.861C21.8441 28.9278 21.8396 28.9974 21.8487 29.0659C21.8578 29.1344 21.8805 29.2004 21.9154 29.2601C21.9503 29.3198 21.9966 29.372 22.0519 29.4136C22.1071 29.4552 22.17 29.4855 22.237 29.5026C22.304 29.5197 22.3737 29.5233 22.4422 29.5133C22.5106 29.5033 22.5763 29.4798 22.6356 29.4441C22.6949 29.4085 22.7464 29.3615 22.7874 29.3058C23.1308 28.8504 23.5589 28.6117 24.013 28.6117C24.4671 28.6117 24.8941 28.8504 25.2375 29.3058C25.2787 29.3609 25.3303 29.4073 25.3895 29.4424C25.4487 29.4775 25.5142 29.5006 25.5823 29.5103C25.6504 29.5201 25.7198 29.5162 25.7864 29.4991C25.8531 29.4819 25.9157 29.4518 25.9706 29.4104C26.0256 29.369 26.0718 29.3171 26.1066 29.2578C26.1414 29.1985 26.1642 29.1328 26.1736 29.0647C26.1829 28.9966 26.1788 28.9273 26.1613 28.8608C26.1437 28.7943 26.1133 28.7319 26.0716 28.6772C25.5746 28.0181 24.8414 27.5681 24.013 27.5681ZM18.4551 33.5979L21.9619 34.8528L20.3419 36.2131L17.3954 34.5361L18.4551 33.5979ZM29.5707 33.5979L30.6305 34.5361L27.684 36.2131L26.0638 34.852L29.5707 33.5979ZM23.2568 35.1895H24.8415L25.224 35.5106L25.7455 36.2037L24.9447 37.568H23.2945L22.5054 36.2037L23.2568 35.1895ZM23.4101 38.611H24.8198L26.9879 48.9522H21.0487L23.4101 38.611Z" fill="#008771"/>
</svg>
