<svg width="9" height="18" viewBox="0 0 9 18" fill="none" xmlns="http://www.w3.org/2000/svg">
<path d="M8.75814 1.51763C8.8354 1.43176 8.8958 1.33074 8.93589 1.22035C8.97598 1.10996 8.99497 0.992358 8.99179 0.874255C8.98861 0.756153 8.96332 0.639865 8.91735 0.532031C8.87138 0.424197 8.80564 0.326929 8.72389 0.24578C8.64213 0.164631 8.54596 0.101191 8.44086 0.059082C8.33576 0.0169728 8.2238 -0.00298116 8.11136 0.000359791C7.99892 0.00370074 7.8882 0.030271 7.78554 0.0785535C7.68288 0.126836 7.59027 0.195885 7.51301 0.281759L0.234076 8.37701C0.083756 8.54401 0 8.76512 0 8.99494C0 9.22477 0.083756 9.44588 0.234076 9.61288L7.51301 17.709C7.58976 17.7968 7.68235 17.8676 7.78539 17.9175C7.88843 17.9674 7.99987 17.9952 8.11325 17.9994C8.22662 18.0037 8.33967 17.9842 8.44582 17.9421C8.55197 17.9001 8.64911 17.8363 8.73159 17.7545C8.81407 17.6727 8.88026 17.5745 8.9263 17.4656C8.97235 17.3567 8.99733 17.2392 8.9998 17.1201C9.00227 17.001 8.98218 16.8825 8.94069 16.7716C8.89921 16.6607 8.83715 16.5596 8.75814 16.4741L2.03411 8.99494L8.75814 1.51763Z" fill="#008771"/>
</svg>
