<svg width="22" height="24" viewBox="0 0 22 24" fill="none" xmlns="http://www.w3.org/2000/svg">
<path d="M12.4468 0.54007C12.0111 0.19051 11.4692 0 10.9106 0C10.352 0 9.81008 0.19051 9.37437 0.54007L0.918671 7.32318C0.631955 7.5532 0.400556 7.84468 0.241552 8.1761C0.0825487 8.50751 5.11987e-07 8.8704 0 9.23798V21.5451C0 22.1962 0.258639 22.8206 0.719018 23.281C1.1794 23.7414 1.80381 24 2.45488 24H5.18253C5.8336 24 6.45801 23.7414 6.91839 23.281C7.37877 22.8206 7.63741 22.1962 7.63741 21.5451V15.5443C7.63741 14.7915 8.2484 14.1805 9.00123 14.1805H12.8199C13.5728 14.1805 14.1838 14.7915 14.1838 15.5443V21.5451C14.1838 22.1962 14.4424 22.8206 14.9028 23.281C15.3632 23.7414 15.9876 24 16.6386 24H19.3663C20.0174 24 20.6418 23.7414 21.1021 23.281C21.5625 22.8206 21.8212 22.1962 21.8212 21.5451V9.23798C21.8212 8.8704 21.7386 8.50751 21.5796 8.1761C21.4206 7.84468 21.1892 7.5532 20.9025 7.32318L12.4468 0.54007Z" fill="#008771"/>
</svg>
