<svg width="22" height="24" viewBox="0 0 22 24" fill="none" xmlns="http://www.w3.org/2000/svg">
<path d="M6.46154 11.0769C5.23746 11.0769 4.06352 10.5907 3.19797 9.72511C2.33242 8.85956 1.84615 7.68561 1.84615 6.46154V2.76923C1.84615 2.52442 1.94341 2.28963 2.11652 2.11652C2.28963 1.94341 2.52442 1.84615 2.76923 1.84615H3.69231C3.93712 1.84615 4.17191 1.7489 4.34502 1.57579C4.51813 1.40268 4.61538 1.16789 4.61538 0.923077C4.61538 0.678262 4.51813 0.443473 4.34502 0.270363C4.17191 0.0972524 3.93712 0 3.69231 0H2.76923C2.03479 0 1.33042 0.291757 0.811089 0.811089C0.291757 1.33042 0 2.03479 0 2.76923V6.46154C0.00118654 7.50437 0.255482 8.53133 0.741046 9.45423C1.22661 10.3771 1.92893 11.1684 2.78769 11.76C3.61276 12.4874 4.28189 13.3745 4.75466 14.3676C5.22744 15.3608 5.49407 16.4394 5.53846 17.5385C5.53846 19.2522 6.21923 20.8957 7.431 22.1075C8.64278 23.3192 10.2863 24 12 24C13.7137 24 15.3572 23.3192 16.569 22.1075C17.7808 20.8957 18.4615 19.2522 18.4615 17.5385V16.4862C19.3317 16.2615 20.09 15.7272 20.5944 14.9834C21.0988 14.2396 21.3146 13.3374 21.2013 12.4458C21.0881 11.5543 20.6536 10.7347 19.9793 10.1406C19.305 9.54654 18.4371 9.21878 17.5385 9.21878C16.6398 9.21878 15.7719 9.54654 15.0976 10.1406C14.4233 10.7347 13.9888 11.5543 13.8756 12.4458C13.7623 13.3374 13.9781 14.2396 14.4825 14.9834C14.9869 15.7272 15.7452 16.2615 16.6154 16.4862V17.5385C16.6154 18.7625 16.1291 19.9365 15.2636 20.802C14.398 21.6676 13.2241 22.1538 12 22.1538C10.7759 22.1538 9.60198 21.6676 8.73643 20.802C7.87088 19.9365 7.38462 18.7625 7.38462 17.5385C7.43134 16.4381 7.70085 15.3586 8.17684 14.3653C8.65283 13.3721 9.3254 12.4858 10.1538 11.76C11.0092 11.1663 11.7079 10.3742 12.1902 9.4514C12.6725 8.52864 12.924 7.50274 12.9231 6.46154V2.76923C12.9231 2.03479 12.6313 1.33042 12.112 0.811089C11.5927 0.291757 10.8883 0 10.1538 0H9.23077C8.98595 0 8.75117 0.0972524 8.57806 0.270363C8.40494 0.443473 8.30769 0.678262 8.30769 0.923077C8.30769 1.16789 8.40494 1.40268 8.57806 1.57579C8.75117 1.7489 8.98595 1.84615 9.23077 1.84615H10.1538C10.3987 1.84615 10.6334 1.94341 10.8066 2.11652C10.9797 2.28963 11.0769 2.52442 11.0769 2.76923V6.46154C11.0769 7.06764 10.9575 7.66781 10.7256 8.22777C10.4937 8.78773 10.1537 9.29653 9.72511 9.72511C9.29653 10.1537 8.78773 10.4937 8.22777 10.7256C7.66781 10.9575 7.06764 11.0769 6.46154 11.0769ZM17.5385 14.7692C17.0488 14.7692 16.5793 14.5747 16.233 14.2285C15.8868 13.8823 15.6923 13.4127 15.6923 12.9231C15.6923 12.4334 15.8868 11.9639 16.233 11.6176C16.5793 11.2714 17.0488 11.0769 17.5385 11.0769C18.0281 11.0769 18.4977 11.2714 18.8439 11.6176C19.1901 11.9639 19.3846 12.4334 19.3846 12.9231C19.3846 13.4127 19.1901 13.8823 18.8439 14.2285C18.4977 14.5747 18.0281 14.7692 17.5385 14.7692Z" fill="#008771"/>
</svg>
