<svg width="12" height="6" viewBox="0 0 12 6" fill="none" xmlns="http://www.w3.org/2000/svg">
<path d="M10.4625 5.83876C10.517 5.89027 10.5812 5.93053 10.6512 5.95726C10.7213 5.98399 10.7959 5.99665 10.8709 5.99453C10.9458 5.99241 11.0197 5.97555 11.0881 5.9449C11.1565 5.91426 11.2183 5.87043 11.2698 5.81593C11.3213 5.76142 11.3616 5.69731 11.3883 5.62724C11.415 5.55718 11.4277 5.48253 11.4256 5.40757C11.4234 5.33261 11.4066 5.2588 11.3759 5.19036C11.3453 5.12192 11.3015 5.06018 11.2469 5.00868L6.10887 0.156051C6.00288 0.0558373 5.86254 0 5.71667 0C5.5708 0 5.43046 0.0558373 5.32446 0.156051L0.185815 5.00868C0.130118 5.05984 0.0851404 5.12157 0.0534994 5.19026C0.0218574 5.25895 0.00418105 5.33325 0.0014955 5.40883C-0.00119005 5.48442 0.0111705 5.55978 0.0378572 5.63055C0.0645439 5.70131 0.105025 5.76607 0.156951 5.82106C0.208877 5.87605 0.271212 5.92018 0.340334 5.95087C0.409456 5.98156 0.483989 5.99822 0.559603 5.99987C0.635216 6.00151 0.710403 5.98812 0.780796 5.96046C0.851189 5.93281 0.915386 5.89144 0.969656 5.83876L5.71667 1.35608L10.4625 5.83876Z" fill="black"/>
</svg>
