<svg width="48" height="50" viewBox="0 0 48 50" fill="none" xmlns="http://www.w3.org/2000/svg">
<path d="M26.7086 14.0557C26.5751 14.1224 26.4416 14.1892 26.3081 14.3894C26.1079 14.7232 26.2414 15.0569 26.5751 15.2571L28.5108 16.3251L26.5751 16.9259C26.2414 17.0594 26.0411 17.3931 26.1746 17.7268C26.3081 18.0606 26.6419 18.2608 26.9756 18.1273L30.313 17.0594C30.847 16.9259 30.9138 16.1916 30.4465 15.9246L27.2426 14.1224C27.0424 14.0557 26.9089 14.0557 26.7086 14.0557Z" fill="#008771"/>
<path d="M33.3178 15.7913C32.9173 15.1239 32.8505 14.5231 32.9173 13.7889C32.9173 13.0546 33.0508 12.1869 32.9173 11.2524C32.183 7.44777 29.9803 4.64433 27.4439 2.84211C24.9074 1.0399 21.9705 0.172171 19.5676 0.0386736C12.8927 -0.428567 6.75183 3.3761 4.61587 9.38348C3.08066 13.7221 3.94839 19.329 7.01882 23.3339C7.9533 24.5354 9.02128 25.8036 9.62202 26.9384C10.2228 28.1398 10.4897 29.2078 9.88901 30.476L4.41563 39.6873C2.74691 42.424 0.811205 45.2942 0.0102221 48.9654C-0.0565265 49.3659 0.210468 49.7664 0.610959 49.8999C1.01145 49.9666 1.41194 49.6996 1.54544 49.2991C2.27967 45.9617 4.08189 43.2918 5.7506 40.4883L11.224 31.2103C11.224 31.2103 11.224 31.1435 11.2907 31.1435C12.0917 29.4081 11.6912 27.7393 10.957 26.2709C10.2228 24.8692 9.08803 23.6009 8.2203 22.3995C5.55035 18.8618 4.74937 13.6554 6.08434 9.91747C7.81981 4.51083 13.4267 1.10665 19.4341 1.50714C21.57 1.57389 24.24 2.37487 26.5094 4.04359C28.7789 5.64556 30.7146 8.0485 31.3821 11.5194C31.5156 12.1202 31.3821 12.8544 31.3821 13.7221C31.3153 14.5899 31.3821 15.5911 31.9828 16.5923C32.183 16.9261 32.6503 17.0596 33.0508 16.8593C33.4513 16.5923 33.518 16.1251 33.3178 15.7913Z" fill="#008771"/>
<path d="M46.7995 30.2092C46.666 30.1425 46.5325 30.1425 46.4657 30.0757C47.2 29.0077 47.5337 28.0065 47.3335 26.271C47.3335 26.004 47.1332 25.737 46.7995 25.737C42.8613 24.9361 39.3904 22.8669 35.4522 18.5282C34.985 17.9942 34.3842 17.7272 33.8502 17.6605C33.2495 17.5937 32.6488 17.6605 32.1815 17.9942C31.1803 18.5949 30.5796 19.8632 30.9801 21.2649C30.9801 21.3316 31.0468 21.3316 31.0468 21.3984C30.8466 21.5986 30.7131 21.8656 30.6463 22.1994L30.1791 24.4688C29.2446 24.3353 28.5771 25.0028 28.3769 25.737L27.1086 31.2104C27.0419 31.1437 26.9751 31.1437 26.8416 31.0769L25.2397 30.7432C24.3719 30.4762 23.571 30.0757 22.77 29.6752C22.5697 29.5417 22.3695 29.5417 22.1692 29.6085C21.969 29.6752 21.8355 29.8087 21.702 29.9422C21.5018 30.2759 21.5685 30.7432 21.969 31.0102C22.6365 31.4107 23.304 31.7444 23.9715 32.0114L22.7032 34.8149L20.901 38.8198C20.7008 39.3538 20.5673 39.8877 20.5005 40.4885C19.1656 39.6875 17.6303 39.02 15.6279 38.753C15.2274 38.6863 14.8269 38.9533 14.7601 39.4205C14.6934 39.821 14.9604 40.2215 15.4276 40.2882C18.2978 40.6887 20.1 41.8235 21.5685 43.2919C21.5685 43.2919 21.5685 43.2919 21.6353 43.3587C24.0382 45.4279 25.7737 47.3636 26.9084 49.4995C27.1086 49.9 27.5759 50.0335 27.9096 49.8333C28.3101 49.633 28.4436 49.1658 28.2434 48.8321C26.9751 46.4291 25.1062 44.4266 22.6365 42.2907C22.0357 41.7567 21.9022 40.5552 22.3027 39.554L24.105 35.6158L25.4399 32.6121L26.5079 32.8124C26.5746 32.8124 26.7081 32.8124 26.7749 32.8124V32.9459C26.5079 34.0806 26.6414 35.0818 27.0419 36.2166L29.0443 43.2252L29.4448 49.2325C29.5116 50.2338 30.7798 50.3005 30.7131 49.1658L30.3126 42.7579L28.3101 35.5491C27.9764 34.5479 27.8429 34.0139 28.1099 33.0126L29.6451 26.004C29.7118 25.737 29.9788 25.6035 30.1791 25.6035C30.3793 25.6035 30.5128 25.6703 30.6463 25.8038L30.5128 26.538C30.3793 27.2723 30.1791 27.8063 30.1791 28.674L29.9788 33.2129C29.9788 33.7469 30.7131 33.7469 30.7131 33.2129L30.9133 28.674C30.9133 27.9397 31.1136 27.4058 31.2471 26.6715L31.9145 22.5331C31.9813 22.1326 32.315 21.9991 32.7823 21.9991C33.3163 22.0659 33.4498 22.4664 33.4498 22.7334L33.3163 26.6715L32.7823 28.941L32.7155 33.1461C32.7155 33.6134 33.383 33.5466 33.383 33.2129L33.5165 29.0745L34.5845 24.3353C34.6512 23.9348 34.985 23.8013 35.252 23.8681C35.519 23.8681 35.786 24.0683 35.786 24.5356L35.6525 29.3415L36.0529 33.2129C36.1197 33.6134 36.7872 33.5466 36.7872 33.1461L36.5202 29.2747V26.4713C36.9207 26.4045 37.3212 26.6048 37.4547 27.1388L38.5227 33.6801C38.6561 34.3476 38.7229 35.0151 38.5894 35.6158L37.2544 42.7579L37.0542 48.9656C36.9874 50.1003 38.2557 49.9668 38.3224 48.9656L38.5227 42.8914L39.7909 36.2833C40.3916 36.2166 40.9256 36.0831 41.3261 35.8161C41.7933 35.4823 42.0603 35.1486 42.3273 34.8149C42.5276 34.4811 42.6611 34.2809 42.7946 34.2141C42.8613 34.1474 42.9281 34.0806 43.3285 34.2141C44.3965 34.4811 45.5313 34.3476 46.2655 33.6801C47.0665 33.0794 47.5337 32.0114 47.467 30.7432C47.2667 30.5429 47.0665 30.3427 46.7995 30.2092ZM40.3249 28.0732C42.1271 29.8087 43.996 30.5429 45.865 31.1437C45.7982 31.8779 45.6647 32.4119 45.2643 32.7456C44.797 33.0794 44.1295 33.2129 43.3953 33.0126C42.7946 32.8791 42.1938 32.9459 41.8601 33.2129C41.4596 33.4799 41.3261 33.8136 41.1258 34.0806C40.9256 34.3476 40.7921 34.5479 40.5251 34.7481C40.3916 34.8816 40.1246 34.9484 39.8576 35.0151C39.8576 34.4811 39.7909 33.9471 39.7241 33.4799L38.6561 26.9385C38.5226 26.004 37.7884 25.6035 37.0542 25.4033V24.5356C37.0542 24.0683 36.9207 23.5343 36.5869 23.2006C35.9862 22.6666 35.519 22.5999 34.7847 22.7334C34.718 22.1994 34.6512 21.8656 34.451 21.5986C33.9837 20.9311 33.383 20.7309 32.6488 20.6642C32.5153 20.6642 32.3818 20.6642 32.2483 20.7309C32.1148 19.9299 32.4485 19.3959 32.9158 19.0622C33.4498 18.7284 34.1172 18.7284 34.6512 19.3959C38.5226 23.6678 42.1271 25.8038 46.0652 26.7383C46.132 28.0732 45.9985 28.7407 45.2643 29.6752C43.8625 29.1412 42.5276 28.407 41.2593 27.1388C41.1258 27.0053 40.9923 26.9385 40.7921 26.9385C40.5919 26.9385 40.4584 27.0053 40.3249 27.1388C40.0579 27.4058 40.0579 27.8063 40.3249 28.0732Z" fill="#008771"/>
</svg>
