<svg width="26" height="26" viewBox="0 0 26 26" fill="none" xmlns="http://www.w3.org/2000/svg">
<path d="M16.9021 10.4C16.6624 10.4 16.4688 10.2063 16.4688 9.9667V7.80002C16.4688 7.56038 16.6624 7.3667 16.9021 7.3667C17.1417 7.3667 17.3354 7.56038 17.3354 7.80002V9.9667C17.3354 10.2063 17.1417 10.4 16.9021 10.4Z" fill="#ECF0F1"/>
<path d="M22.1013 10.4C21.8616 10.4 21.668 10.2063 21.668 9.9667V7.80002C21.668 7.56038 21.8616 7.3667 22.1013 7.3667C22.3409 7.3667 22.5346 7.56038 22.5346 7.80002V9.9667C22.5346 10.2063 22.3409 10.4 22.1013 10.4Z" fill="#ECF0F1"/>
<path d="M1.30078 23.8332H13.4341V3.8999H1.30078V23.8332Z" fill="#ECF0F1"/>
<path d="M13.4336 23.8335H24.7003V9.9668H13.4336V23.8335Z" fill="#B0BAC1"/>
<path d="M23.3346 2.2334V7.30008H15.668V2.2334H23.3346Z" fill="#1FC29D" stroke="#1FC29D"/>
<path d="M18.6325 6.50033C18.3929 6.50033 18.1992 6.30665 18.1992 6.06701V3.46701C18.1992 3.22737 18.3929 3.03369 18.6325 3.03369C18.8722 3.03369 19.0659 3.22737 19.0659 3.46701V6.06701C19.0659 6.30665 18.8722 6.50033 18.6325 6.50033Z" fill="white"/>
<path d="M20.3669 6.50033C20.1273 6.50033 19.9336 6.30665 19.9336 6.06701V3.46701C19.9336 3.22737 20.1273 3.03369 20.3669 3.03369C20.6065 3.03369 20.8002 3.22737 20.8002 3.46701V6.06701C20.8002 6.30665 20.6065 6.50033 20.3669 6.50033Z" fill="white"/>
<path d="M20.3658 5.20013H18.6325C18.3929 5.20013 18.1992 5.00645 18.1992 4.76681C18.1992 4.52718 18.3929 4.3335 18.6325 4.3335H20.3658C20.6055 4.3335 20.7992 4.52718 20.7992 4.76681C20.7992 5.00645 20.6055 5.20013 20.3658 5.20013Z" fill="white"/>
<path d="M6.06641 23.8334H8.66641V20.3667H6.06641V23.8334Z" fill="#556080"/>
<path d="M3.46484 8.66689H6.06484V6.06689H3.46484V8.66689Z" fill="#556080"/>
<path d="M8.66797 8.66689H11.268V6.06689H8.66797V8.66689Z" fill="#556080"/>
<path d="M3.46484 13.4335H6.06484V10.8335H3.46484V13.4335Z" fill="#556080"/>
<path d="M8.66797 13.4335H11.268V10.8335H8.66797V13.4335Z" fill="#556080"/>
<path d="M3.46484 18.2001H6.06484V15.6001H3.46484V18.2001Z" fill="#556080"/>
<path d="M15.6016 15.6005H18.2016V13.0005H15.6016V15.6005Z" fill="#556080"/>
<path d="M15.6016 20.3671H18.2016V17.7671H15.6016V20.3671Z" fill="#556080"/>
<path d="M19.9336 15.6005H22.5336V13.0005H19.9336V15.6005Z" fill="#556080"/>
<path d="M19.9336 20.3671H22.5336V17.7671H19.9336V20.3671Z" fill="#556080"/>
<path d="M8.66797 18.2001H11.268V15.6001H8.66797V18.2001Z" fill="#556080"/>
<path d="M25.5667 24.267H0.433316C0.193679 24.267 0 24.0733 0 23.8337C0 23.5941 0.193679 23.4004 0.433316 23.4004H25.5666C25.8062 23.4004 25.9999 23.5941 25.9999 23.8337C26 24.0733 25.8063 24.267 25.5667 24.267Z" fill="#556080"/>
</svg>
