<svg width="20" height="29" viewBox="0 0 20 29" fill="none" xmlns="http://www.w3.org/2000/svg">
<path d="M13.3397 22.4976H8.05859V23.2237H13.3397V22.4976Z" fill="#4A5779"/>
<path d="M5.54036 24.5108C7.05338 24.5108 8.27993 23.831 8.27993 22.9924C8.27993 22.1539 7.05338 21.4741 5.54036 21.4741C4.02733 21.4741 2.80078 22.1539 2.80078 22.9924C2.80078 23.831 4.02733 24.5108 5.54036 24.5108Z" fill="#4A5779"/>
<path d="M5.54036 24.0166C7.05338 24.0166 8.27993 23.3368 8.27993 22.4983C8.27993 21.6598 7.05338 20.98 5.54036 20.98C4.02733 20.98 2.80078 21.6598 2.80078 22.4983C2.80078 23.3368 4.02733 24.0166 5.54036 24.0166Z" fill="#1FC29D"/>
<path d="M12.5333 19.7692L2.13672 18.1035L1.95396 19.2442L12.3505 20.9099L12.5333 19.7692Z" fill="#4A5779"/>
<path d="M14.6203 21.5074C14.1252 21.0453 13.6631 20.6163 13.168 20.1542C16.0396 17.1175 16.0396 12.3645 13.168 9.32789C13.6631 8.8658 14.1252 8.43671 14.6203 7.97461C18.185 11.7704 18.185 17.7116 14.6203 21.5074Z" fill="#1FC29D"/>
<path d="M13.8896 0.869745L11.1875 0L6.72753 13.8559L9.42958 14.7257L13.8896 0.869745Z" fill="#4A5779"/>
<path d="M12.9422 5.70139L9.17188 4.48779L6.41094 13.0653L10.1813 14.2789L12.9422 5.70139Z" fill="#1FC29D"/>
<path d="M8.91879 14.5607L7.31641 14.0449L6.64893 16.1186L8.25131 16.6344L8.91879 14.5607Z" fill="#DDD9C8"/>
<path d="M14.6618 7.67801L14.1667 7.51297L12.5164 6.98486L11.5922 9.82346L10.668 12.6621H10.701C11.6252 12.9591 12.5824 12.464 12.8794 11.5398L13.2425 10.3516L13.7376 10.5166C14.4968 10.7807 15.3219 10.3516 15.586 9.5594V9.5264C15.8501 8.73423 15.421 7.90906 14.6618 7.67801Z" fill="#4A5779"/>
<path d="M14.1924 9.85591C14.6481 9.85591 15.0175 9.48647 15.0175 9.03074C15.0175 8.57501 14.6481 8.20557 14.1924 8.20557C13.7366 8.20557 13.3672 8.57501 13.3672 9.03074C13.3672 9.48647 13.7366 9.85591 14.1924 9.85591Z" fill="#F1EEDB"/>
<path d="M16.6654 26.8545H9.66797V21.7714C9.66797 20.3191 10.8562 19.1309 12.3085 19.1309H12.8036C13.7608 19.1309 14.619 19.725 14.9821 20.6162L16.6654 26.8545Z" fill="#4A5779"/>
<path d="M12.5748 21.8708C13.067 21.8708 13.466 21.4718 13.466 20.9796C13.466 20.4874 13.067 20.0884 12.5748 20.0884C12.0826 20.0884 11.6836 20.4874 11.6836 20.9796C11.6836 21.4718 12.0826 21.8708 12.5748 21.8708Z" fill="#F1EEDB"/>
<path d="M0 29.0001H19.4741V27.8119C19.4741 27.2838 19.045 26.8877 18.5499 26.8877H0.957201C0.42909 26.8877 0.033007 27.3168 0.033007 27.8119V29.0001H0Z" fill="#1FC29D"/>
<path d="M5.5431 23.6533C6.80092 23.6533 7.82058 23.136 7.82058 22.498C7.82058 21.86 6.80092 21.3428 5.5431 21.3428C4.28529 21.3428 3.26562 21.86 3.26562 22.498C3.26562 23.136 4.28529 23.6533 5.5431 23.6533Z" fill="#F1EEDB"/>
<path opacity="0.1" d="M18.5148 26.8546H16.6664L15.0821 20.9133C17.1616 18.3718 17.7557 15.0051 16.8975 12.0015C16.6004 13.6518 16.1383 15.3022 15.4782 16.9855C14.0589 20.4512 12.0455 23.3888 9.66898 25.5343V26.8876H8.01864C6.69836 27.8448 5.31207 28.5709 3.92578 29H19.472V27.8118C19.472 27.2837 19.0429 26.8546 18.5148 26.8546Z" fill="#292928"/>
<path opacity="0.1" d="M14.6523 7.67762L14.1572 7.51259L12.8039 7.0835C10.8565 9.69104 8.61205 11.7375 6.43359 13.0908L6.89569 13.2558L6.69765 13.8829L7.29177 14.081L6.63163 16.1604L8.21597 16.6885L8.87611 14.6091L9.40422 14.7741L9.60226 14.147L10.1304 14.312L10.6585 12.6617H10.6915C11.6157 12.9587 12.5729 12.4636 12.8699 11.5394L13.233 10.3512L13.7281 10.5162C14.4873 10.7803 15.3125 10.3512 15.5765 9.55901V9.52601C15.8406 8.73384 15.4115 7.90867 14.6523 7.67762Z" fill="#1D1D1B"/>
</svg>
