<svg width="19" height="24" viewBox="0 0 19 24" fill="none" xmlns="http://www.w3.org/2000/svg">
<path d="M0.479593 20.8794H3.59542C1.77586 19.4967 0.474792 16.7841 0.474792 13.8123C0.474792 7.99836 4.90129 5.84272 6.4136 5.28101L6.28397 4.92093C6.24076 4.80091 6.24556 4.67128 6.30317 4.55606C6.36079 4.44084 6.45681 4.34962 6.57683 4.30641L6.97531 4.16238L5.98151 1.41142C5.89029 1.16177 6.01991 0.888117 6.26957 0.796898L8.3964 0.0287426C8.51642 -0.0144662 8.64605 -0.00966523 8.76127 0.0479464C8.87649 0.100757 8.96771 0.201577 9.01092 0.321602L10.0047 3.07256L10.4032 2.92853C10.5232 2.88532 10.6529 2.89012 10.7681 2.94773C10.8833 3.00054 10.9745 3.10137 11.0177 3.22139L13.8167 10.975C13.9079 11.2246 13.7783 11.4983 13.5286 11.5895L13.2694 11.6855L13.9847 12.8233C14.0615 12.9482 14.0807 13.097 14.0327 13.2362C13.9847 13.3754 13.8791 13.4811 13.7399 13.5339L10.7729 14.6045C10.7201 14.6237 10.6625 14.6333 10.6096 14.6333C10.5232 14.6333 10.4368 14.6093 10.36 14.5613C10.2352 14.4845 10.1536 14.3596 10.1343 14.2156L9.95671 12.8809L9.69746 12.9578C9.64465 12.977 9.58704 12.9866 9.53423 12.9866C9.46221 12.9866 9.395 12.9722 9.33259 12.9434C9.21736 12.8905 9.12614 12.7897 9.08294 12.6697L7.98351 9.63069C7.14814 9.78912 5.12694 10.4469 5.12694 13.0586C5.12694 13.2122 5.13174 13.361 5.14134 13.5099C5.20855 14.7197 6.28877 16.184 7.53222 16.184H8.3964H13.2646H16.0732C16.3372 16.184 16.5532 16.4001 16.5532 16.6641C16.5532 16.9282 16.3372 17.1442 16.0732 17.1442H14.0135L15.7323 20.8794H18.0512C18.3152 20.8794 18.5312 21.0954 18.5312 21.3595V23.5199C18.5312 23.784 18.3152 24 18.0512 24H0.479593C0.21554 24 -0.00050354 23.784 -0.00050354 23.5199V21.3595C-0.00050354 21.0954 0.21554 20.8794 0.479593 20.8794ZM8.26677 1.08976L7.04252 1.53145L7.87309 3.83111L8.4012 3.63907L9.09734 3.38942L8.26677 1.08976ZM11.0033 13.4811L12.8517 12.8137L12.3428 12.0024L10.8833 12.5305L11.0033 13.4811ZM9.82229 11.8919L10.288 11.7239L12.3812 10.9702L12.7509 10.8357L10.2784 3.98474L9.8799 4.12877L9.07333 4.42163L7.34498 5.04096L7.47941 5.41063L8.75167 8.93455L9.82229 11.8919ZM4.18114 13.5627C4.17154 13.3947 4.16674 13.2266 4.16674 13.0586C4.16674 10.1876 6.18795 9.02577 7.65225 8.7089L6.73526 6.16919C5.41019 6.64448 1.43499 8.51206 1.43499 13.8075C1.43499 17.4275 3.50901 20.6105 5.9383 20.8506L7.64745 17.1394H7.53222C5.72225 17.149 4.27236 15.2574 4.18114 13.5627ZM12.9573 17.149H8.69886L6.98011 20.8842H14.6761L12.9573 17.149ZM0.95969 23.0398H17.5711V21.8396H15.4298H15.425H6.23116H6.22636H0.95969V23.0398Z" fill="white"/>
</svg>
