<svg width="20" height="24" viewBox="0 0 20 24" fill="none" xmlns="http://www.w3.org/2000/svg">
<path d="M13.4203 8.69701H12.3236V7.51104C12.3236 7.4062 12.2851 7.30565 12.2165 7.23151C12.148 7.15737 12.055 7.11572 11.958 7.11572H10.4958C10.3988 7.11572 10.3059 7.15737 10.2373 7.23151C10.1687 7.30565 10.1302 7.4062 10.1302 7.51104V8.69701H9.03353C8.93658 8.69701 8.8436 8.73866 8.77504 8.8128C8.70648 8.88693 8.66797 8.98749 8.66797 9.09233V10.6736C8.66797 10.7785 8.70648 10.879 8.77504 10.9532C8.8436 11.0273 8.93658 11.0689 9.03353 11.0689H10.1302V12.2549C10.1302 12.3598 10.1687 12.4603 10.2373 12.5344C10.3059 12.6086 10.3988 12.6502 10.4958 12.6502H11.958C12.055 12.6502 12.148 12.6086 12.2165 12.5344C12.2851 12.4603 12.3236 12.3598 12.3236 12.2549V11.0689H13.4203C13.5173 11.0689 13.6102 11.0273 13.6788 10.9532C13.7474 10.879 13.7859 10.7785 13.7859 10.6736V9.09233C13.7859 8.98749 13.7474 8.88693 13.6788 8.8128C13.6102 8.73866 13.5173 8.69701 13.4203 8.69701ZM13.0547 10.2783H11.958C11.8611 10.2783 11.7681 10.3199 11.6996 10.3941C11.631 10.4682 11.5925 10.5688 11.5925 10.6736V11.8596H10.8614V10.6736C10.8614 10.5688 10.8228 10.4682 10.7543 10.3941C10.6857 10.3199 10.5927 10.2783 10.4958 10.2783H9.3991V9.48765H10.4958C10.5927 9.48765 10.6857 9.44601 10.7543 9.37187C10.8228 9.29773 10.8614 9.19718 10.8614 9.09233V7.90637H11.5925V9.09233C11.5925 9.19718 11.631 9.29773 11.6996 9.37187C11.7681 9.44601 11.8611 9.48765 11.958 9.48765H13.0547V10.2783Z" fill="white"/>
<path d="M15.2494 9.88297C15.2494 9.02291 15.0136 8.18216 14.5718 7.46705C14.1299 6.75193 13.5019 6.19457 12.7671 5.86544C12.0323 5.53631 11.2238 5.45019 10.4437 5.61798C9.6637 5.78577 8.94719 6.19993 8.38482 6.80808C7.82244 7.41624 7.43946 8.19107 7.2843 9.03461C7.12914 9.87814 7.20877 10.7525 7.51313 11.5471C7.81749 12.3417 8.33289 13.0208 8.99418 13.4986C9.65546 13.9765 10.4329 14.2315 11.2282 14.2315C12.2943 14.2302 13.3164 13.7716 14.0703 12.9563C14.8241 12.1411 15.2482 11.0359 15.2494 9.88297ZM11.2282 13.4409C10.5775 13.4409 9.94142 13.2322 9.40037 12.8413C8.85932 12.4503 8.43762 11.8946 8.1886 11.2445C7.93959 10.5944 7.87443 9.87902 8.00138 9.18886C8.12833 8.49869 8.44168 7.86473 8.9018 7.36715C9.36193 6.86957 9.94816 6.53072 10.5864 6.39343C11.2246 6.25615 11.8861 6.32661 12.4873 6.5959C13.0885 6.86519 13.6023 7.32121 13.9638 7.90631C14.3254 8.4914 14.5183 9.17928 14.5183 9.88297C14.5173 10.8262 14.1703 11.7305 13.5535 12.3975C12.9367 13.0645 12.1005 13.4397 11.2282 13.4409Z" fill="white"/>
<path d="M19.4955 10.6737C19.7207 10.4633 19.8809 10.1833 19.9545 9.8715C20.0281 9.55968 20.0116 9.23096 19.9073 8.92957C19.803 8.62817 19.6158 8.36855 19.371 8.18564C19.1261 8.00272 18.8354 7.90529 18.5378 7.90644H17.8066V2.76725C17.8059 2.03359 17.536 1.33021 17.0563 0.811435C16.5766 0.292655 15.9261 0.00083704 15.2477 0H7.20527C6.52683 0.00083704 5.87641 0.292655 5.39668 0.811435C4.91695 1.33021 4.6471 2.03359 4.64632 2.76725V4.96524C4.42555 4.82145 4.17291 4.74495 3.91519 4.74386H2.8185C2.72155 4.74386 2.62856 4.78551 2.56001 4.85965C2.49145 4.93379 2.45294 5.03434 2.45294 5.13919V17.6274L0 20.2761L0.519101 20.8374L3.07805 18.0702C3.14539 17.9948 3.18334 17.8943 3.18407 17.7895V5.53451H3.91519C4.10892 5.53513 4.29455 5.61863 4.43154 5.76677C4.56853 5.91491 4.64574 6.11565 4.64632 6.32515V9.48773C4.64634 9.55868 4.66402 9.62832 4.6975 9.68934L5.06672 10.3535C5.50942 11.1526 5.74317 12.0667 5.74302 12.9982V13.5714C5.74429 14.289 5.56347 14.9932 5.22026 15.6073L5.84903 16.0184C6.25831 15.279 6.47436 14.4332 6.47414 13.5714V12.9982C6.47418 11.923 6.20376 10.868 5.69184 9.9463L5.37745 9.37704V2.76725C5.37745 2.24302 5.57002 1.74027 5.91281 1.36958C6.25559 0.998893 6.7205 0.790644 7.20527 0.790644H15.2477C15.4877 0.790644 15.7254 0.841771 15.9472 0.941105C16.1689 1.04044 16.3704 1.18603 16.5402 1.36958C16.7099 1.55313 16.8445 1.77102 16.9364 2.01084C17.0282 2.25065 17.0755 2.50768 17.0755 2.76725V7.90644C16.7779 7.90529 16.4871 8.00272 16.2423 8.18564C15.9974 8.36855 15.8103 8.62817 15.706 8.92957C15.6016 9.23096 15.5852 9.55968 15.6588 9.8715C15.7324 10.1833 15.8926 10.4633 16.1177 10.6737C15.9595 10.8203 15.8325 11.0022 15.7454 11.207C15.6584 11.4117 15.6133 11.6343 15.6133 11.8597C15.6133 12.085 15.6584 12.3077 15.7454 12.5124C15.8325 12.7171 15.9595 12.899 16.1177 13.0456C15.9595 13.1923 15.8325 13.3742 15.7454 13.5789C15.6584 13.7836 15.6133 14.0063 15.6133 14.2316C15.6133 14.4569 15.6584 14.6796 15.7454 14.8843C15.8325 15.089 15.9595 15.2709 16.1177 15.4176C15.8926 15.628 15.7324 15.9079 15.6588 16.2198C15.5852 16.5316 15.6016 16.8603 15.706 17.1617C15.8103 17.4631 15.9974 17.7227 16.2423 17.9056C16.4871 18.0885 16.7779 18.186 17.0755 18.1848V18.5801C17.0755 18.8397 17.0282 19.0967 16.9364 19.3366C16.8445 19.5764 16.7099 19.7943 16.5402 19.9778C16.3704 20.1614 16.1689 20.3069 15.9472 20.4063C15.7254 20.5056 15.4877 20.5567 15.2477 20.5567H7.20527C6.7205 20.5567 6.25559 20.3485 5.91281 19.9778C5.57002 19.6071 5.37745 19.1044 5.37745 18.5801V16.6035H4.64632V18.5801C4.6471 19.3138 4.91695 20.0172 5.39668 20.536C5.87641 21.0547 6.52683 21.3466 7.20527 21.3474H11.8077L9.87024 23.4386L10.3893 24L12.8386 21.3474H15.2477C15.9261 21.3466 16.5766 21.0547 17.0563 20.536C17.536 20.0172 17.8059 19.3138 17.8066 18.5801V18.1848H18.5378C18.8354 18.186 19.1261 18.0885 19.371 17.9056C19.6158 17.7227 19.803 17.4631 19.9073 17.1617C20.0116 16.8603 20.0281 16.5316 19.9545 16.2198C19.8809 15.9079 19.7207 15.628 19.4955 15.4176C19.6538 15.2709 19.7808 15.089 19.8678 14.8843C19.9549 14.6796 20 14.4569 20 14.2316C20 14.0063 19.9549 13.7836 19.8678 13.5789C19.7808 13.3742 19.6538 13.1923 19.4955 13.0456C19.6538 12.899 19.7808 12.7171 19.8678 12.5124C19.9549 12.3077 20 12.085 20 11.8597C20 11.6343 19.9549 11.4117 19.8678 11.207C19.7808 11.0022 19.6538 10.8203 19.4955 10.6737ZM18.5378 17.3942H17.0755C16.8816 17.3942 16.6956 17.3109 16.5585 17.1626C16.4214 17.0143 16.3444 16.8132 16.3444 16.6035C16.3444 16.3938 16.4214 16.1927 16.5585 16.0445C16.6956 15.8962 16.8816 15.8129 17.0755 15.8129H18.5378C18.7317 15.8129 18.9176 15.8962 19.0548 16.0445C19.1919 16.1927 19.2689 16.3938 19.2689 16.6035C19.2689 16.8132 19.1919 17.0143 19.0548 17.1626C18.9176 17.3109 18.7317 17.3942 18.5378 17.3942ZM18.5378 15.0222H17.0755C16.8816 15.0222 16.6956 14.9389 16.5585 14.7907C16.4214 14.6424 16.3444 14.4413 16.3444 14.2316C16.3444 14.0219 16.4214 13.8208 16.5585 13.6725C16.6956 13.5242 16.8816 13.4409 17.0755 13.4409H18.5378C18.7317 13.4409 18.9176 13.5242 19.0548 13.6725C19.1919 13.8208 19.2689 14.0219 19.2689 14.2316C19.2689 14.4413 19.1919 14.6424 19.0548 14.7907C18.9176 14.9389 18.7317 15.0222 18.5378 15.0222ZM18.5378 12.6503H17.0755C16.8816 12.6503 16.6956 12.567 16.5585 12.4187C16.4214 12.2705 16.3444 12.0694 16.3444 11.8597C16.3444 11.65 16.4214 11.4489 16.5585 11.3006C16.6956 11.1523 16.8816 11.069 17.0755 11.069H18.5378C18.7317 11.069 18.9176 11.1523 19.0548 11.3006C19.1919 11.4489 19.2689 11.65 19.2689 11.8597C19.2689 12.0694 19.1919 12.2705 19.0548 12.4187C18.9176 12.567 18.7317 12.6503 18.5378 12.6503ZM18.5378 10.2784H17.0755C16.8816 10.2784 16.6956 10.1951 16.5585 10.0468C16.4214 9.89852 16.3444 9.69742 16.3444 9.48773C16.3444 9.27804 16.4214 9.07693 16.5585 8.92866C16.6956 8.78038 16.8816 8.69708 17.0755 8.69708H18.5378C18.7317 8.69708 18.9176 8.78038 19.0548 8.92866C19.1919 9.07693 19.2689 9.27804 19.2689 9.48773C19.2689 9.69742 19.1919 9.89852 19.0548 10.0468C18.9176 10.1951 18.7317 10.2784 18.5378 10.2784Z" fill="white"/>
<path d="M10.4951 17.394C10.2043 17.394 9.92532 17.519 9.71965 17.7414C9.51398 17.9638 9.39844 18.2655 9.39844 18.58C9.39844 18.8945 9.51398 19.1962 9.71965 19.4186C9.92532 19.641 10.2043 19.766 10.4951 19.766H11.9574C12.2482 19.766 12.5272 19.641 12.7329 19.4186C12.9385 19.1962 13.0541 18.8945 13.0541 18.58C13.0541 18.2655 12.9385 17.9638 12.7329 17.7414C12.5272 17.519 12.2482 17.394 11.9574 17.394H10.4951ZM12.323 18.58C12.323 18.6849 12.2844 18.7854 12.2159 18.8595C12.1473 18.9337 12.0543 18.9753 11.9574 18.9753H10.4951C10.3982 18.9753 10.3052 18.9337 10.2366 18.8595C10.1681 18.7854 10.1296 18.6849 10.1296 18.58C10.1296 18.4752 10.1681 18.3746 10.2366 18.3005C10.3052 18.2263 10.3982 18.1847 10.4951 18.1847H11.9574C12.0543 18.1847 12.1473 18.2263 12.2159 18.3005C12.2844 18.3746 12.323 18.4752 12.323 18.58Z" fill="white"/>
</svg>
