<svg width="41" height="63" viewBox="0 0 41 63" fill="none" xmlns="http://www.w3.org/2000/svg">
<path d="M26.4669 0V5.21881H31.5094L26.0675 11.3429C23.7971 9.7698 21.0459 8.84147 18.0803 8.84147C12.9737 8.84147 8.50765 11.5854 6.04145 15.6694C7.15185 15.4276 8.30471 15.2966 9.48852 15.2966C10.691 15.2966 11.8612 15.4333 12.9881 15.6845C14.4303 14.6655 16.1847 14.0617 18.0796 14.0617C22.9594 14.0617 26.9297 18.0298 26.9297 22.9111C26.9297 27.7902 22.9587 31.7619 18.0796 31.7619C13.8603 31.7619 10.3262 28.7905 9.44534 24.8297C7.5383 24.8412 5.82196 25.6572 4.60938 26.9533C6.35018 32.7457 11.728 36.9807 18.0796 36.9807C25.838 36.9807 32.1485 30.6695 32.1485 22.9111C32.1485 20.0023 31.2604 17.2958 29.7427 15.0505L35.402 8.70474V14.1546H40.6215V0H26.4669Z" fill="#008771"/>
<path d="M24.0096 42.5191C24.8322 41.6951 25.5252 40.7804 26.1117 39.8104C24.9984 40.0522 23.8441 40.1846 22.6574 40.1846C21.4549 40.1846 20.2833 40.0486 19.1535 39.801C17.6739 40.8495 15.913 41.4202 14.0621 41.4202C11.6981 41.4202 9.47583 40.4998 7.80411 38.8281C4.35489 35.3774 4.35489 29.7614 7.80411 26.3114C9.47583 24.6397 11.6981 23.7193 14.0621 23.7193C16.4247 23.7193 18.6483 24.639 20.32 26.3114C21.529 27.5218 22.3394 29.0216 22.6963 30.6508C24.6084 30.6393 26.3269 29.8204 27.5395 28.5229C26.8817 26.3164 25.6835 24.2935 24.0096 22.6197C21.3527 19.9642 17.82 18.499 14.0621 18.499C10.3041 18.499 6.76999 19.9635 4.11453 22.6197C-1.37127 28.1062 -1.37127 37.0311 4.11309 42.5184C6.20652 44.6125 8.84902 45.951 11.7125 46.4289V50.5949H4.5276V55.8137H11.7125V63H16.932V55.8137H24.1169V50.5949H16.932V46.3447C19.5939 45.7927 22.0436 44.4851 24.0096 42.5191Z" fill="#008771"/>
</svg>
