<svg width="20" height="20" viewBox="0 0 20 20" fill="none" xmlns="http://www.w3.org/2000/svg">
<path d="M14.0611 11.3846V13.5086C14.0611 14.0486 14.2757 14.5692 14.6592 14.9514C15.0414 15.3349 15.6894 15.5495 16.2308 15.5495H1C1.54138 15.5495 2.18938 15.3349 2.57154 14.9514C2.76132 14.7621 2.91186 14.5372 3.01451 14.2897C3.11716 14.0421 3.16989 13.7766 3.16969 13.5086V8.52262C3.16969 7.07833 3.74343 5.69319 4.7647 4.67193C5.78597 3.65066 7.1711 3.07692 8.61539 3.07692M7.23077 19H10M15.1923 7.92308C16.1104 7.92308 16.9908 7.55838 17.64 6.90922C18.2892 6.26005 18.6538 5.3796 18.6538 4.46154C18.6538 3.54348 18.2892 2.66303 17.64 2.01386C16.9908 1.3647 16.1104 1 15.1923 1C14.2743 1 13.3938 1.3647 12.7446 2.01386C12.0955 2.66303 11.7308 3.54348 11.7308 4.46154C11.7308 5.3796 12.0955 6.26005 12.7446 6.90922C13.3938 7.55838 14.2743 7.92308 15.1923 7.92308Z" stroke="#008771" stroke-width="2" stroke-linecap="round" stroke-linejoin="round"/>
</svg>
