<svg width="27" height="24" viewBox="0 0 27 24" fill="none" xmlns="http://www.w3.org/2000/svg">
<g clip-path="url(#clip0_98_358)">
<path fill-rule="evenodd" clip-rule="evenodd" d="M6.64422 9.86378C7.45403 11.3266 8.38843 12.7293 9.60422 14.0116C10.82 15.3005 12.3322 16.4733 14.2934 17.4721C14.4373 17.5452 14.5748 17.5452 14.6994 17.4936C14.8884 17.4206 15.0753 17.2702 15.2643 17.0812C15.4082 16.9351 15.5908 16.7053 15.7777 16.4518C16.5295 15.4594 17.4639 14.2307 18.7806 14.8451C18.8085 14.8601 18.8322 14.873 18.8601 14.888L23.2528 17.4141C23.2679 17.4206 23.2808 17.4356 23.2958 17.442C23.8758 17.8394 24.1142 18.4559 24.1206 19.1497C24.1206 19.8586 23.8607 20.6555 23.4762 21.3278C22.9693 22.2171 22.2239 22.8035 21.3626 23.1945C20.5442 23.5704 19.6334 23.7745 18.757 23.9033C17.3823 24.1053 16.0934 23.9764 14.7767 23.5704C13.4879 23.173 12.1926 22.5136 10.7749 21.6372L10.6739 21.5727C10.0231 21.1667 9.32068 20.7328 8.6333 20.2195C6.10721 18.3163 3.53817 15.5647 1.86699 12.5402C0.462178 10.0013 -0.30467 7.25821 0.114197 4.6462C0.346185 3.21346 0.962671 1.9096 2.03239 1.04824C2.96679 0.296427 4.22554 -0.115996 5.85375 0.0279223C6.04277 0.0429585 6.20817 0.15036 6.29409 0.309315L9.11017 5.07151C9.52259 5.60637 9.57414 6.13479 9.3486 6.6632C9.15957 7.09711 8.78367 7.49664 8.27029 7.87255C8.11778 8.00358 7.93734 8.13246 7.74831 8.26993C7.11894 8.72532 6.4015 9.25373 6.64852 9.87666L6.64422 9.86378Z" fill="#393939"/>
<path fill-rule="evenodd" clip-rule="evenodd" d="M15.2373 0.358887H21.5826C22.2141 0.358887 22.7318 0.876563 22.7318 1.50809V2.73247L26.3942 0.53073V7.47962L22.7318 5.50343V7.09727C22.7318 7.7288 22.2141 8.24647 21.5826 8.24647H15.2373C14.6036 8.24647 14.0859 7.7288 14.0859 7.09727V1.50809C14.0859 0.876563 14.6036 0.358887 15.2373 0.358887Z" fill="white"/>
</g>
<defs>
<clipPath id="clip0_98_358">
<rect width="26.3951" height="24" fill="white"/>
</clipPath>
</defs>
</svg>
