<svg width="12" height="6" viewBox="0 0 12 6" fill="none" xmlns="http://www.w3.org/2000/svg">
<path d="M0.963246 0.16124C0.908741 0.109735 0.844626 0.069469 0.774561 0.0427423C0.704495 0.0160155 0.629852 0.00335026 0.554892 0.00547075C0.479932 0.00759125 0.406124 0.024456 0.337681 0.0551009C0.269239 0.0857458 0.207502 0.129572 0.155997 0.184076C0.104492 0.23858 0.0642263 0.302695 0.0374995 0.372761C0.0107727 0.442826 -0.00189215 0.517469 0.00022836 0.592429C0.00234887 0.667389 0.0192131 0.741198 0.0498581 0.80964C0.0805031 0.878083 0.124329 0.939819 0.178833 0.991324L5.31691 5.84395C5.4229 5.94416 5.56324 6 5.70911 6C5.85498 6 5.99532 5.94416 6.10132 5.84395L11.24 0.991324C11.2957 0.940159 11.3406 0.878436 11.3723 0.809742C11.4039 0.741048 11.4216 0.666751 11.4243 0.591168C11.427 0.515584 11.4146 0.44022 11.3879 0.369454C11.3612 0.298687 11.3208 0.233929 11.2688 0.178939C11.2169 0.12395 11.1546 0.0798264 11.0854 0.0491314C11.0163 0.0184364 10.9418 0.00178194 10.8662 0.000135422C10.7906 -0.0015111 10.7154 0.0118823 10.645 0.0395389C10.5746 0.0671954 10.5104 0.108563 10.4561 0.16124L5.70911 4.64392L0.963246 0.16124Z" fill="white"/>
</svg>
