<svg width="51" height="63" viewBox="0 0 51 63" fill="none" xmlns="http://www.w3.org/2000/svg">
<path d="M47.5921 63C47.7168 63 47.8421 62.9667 47.9556 62.8968C48.281 62.6954 48.3807 62.2689 48.1799 61.9435C48.1204 61.8473 42.2135 52.2386 42.3714 47.427C42.5334 42.4825 43.8869 37.2258 45.664 34.6414C47.5271 31.9303 50.2049 25.5831 50.0319 20.5708C49.8463 15.1984 45.2729 0 27.3738 0C27.227 0 27.0809 0.000692279 26.9328 0.00276922C18.7081 0.115617 8.3171 2.70487 5.52361 14.3981L5.45507 14.6812C5.31661 15.2344 5.15876 15.7675 5.00645 16.2881C4.4976 18.0161 4.01644 19.6486 4.36537 21.396C4.74545 23.2957 4.66722 23.5034 3.69798 25.1567C3.44321 25.5907 3.01397 26.2034 2.55912 26.8514C1.10526 28.9256 0.0716335 30.4792 0.00724804 31.5765C-0.111139 33.5877 1.14264 34.1775 2.32719 34.5721C2.64358 34.6774 3.04789 34.8671 3.17805 35.1689C3.26459 35.3683 3.23205 35.6328 3.08251 35.9568C2.71074 36.7619 2.82358 37.4106 2.98351 37.8122C3.12681 38.1715 3.36359 38.4851 3.67444 38.7357C3.29366 39.5125 3.22443 40.4028 4.22067 41.3997C4.71499 41.8934 4.62429 42.1329 4.46091 42.567C4.43391 42.6383 4.40829 42.7061 4.38683 42.7719C4.13206 43.5383 3.83851 46.7326 5.8033 47.7677C6.63201 48.2038 8.2091 48.406 10.034 48.64C11.7745 48.8629 13.9408 49.1405 14.5147 49.6071C15.7477 50.6082 16.294 52.6928 15.907 54.9179C15.7186 56.0041 15.9665 56.9083 16.2538 57.9551C16.5425 59.006 16.8693 60.1954 16.8963 61.9857C16.9025 62.3686 17.2092 62.6497 17.599 62.6677C17.9818 62.6614 18.2864 62.3471 18.2809 61.965C18.2511 59.9981 17.8842 58.6619 17.5893 57.5882C17.3262 56.6286 17.1358 55.9356 17.2715 55.1547C17.7437 52.4442 17.0036 49.8439 15.3884 48.532C14.5085 47.8168 12.4205 47.5489 10.2106 47.2657C8.7318 47.0767 7.0557 46.8614 6.44854 46.5423C5.32353 45.9503 5.58177 43.566 5.70084 43.2102L5.75692 43.0558C5.95561 42.5282 6.3267 41.5458 5.2003 40.4208C4.66306 39.8829 4.66168 39.6544 5.19476 38.8922L5.696 38.1763L4.8846 37.8523C4.58691 37.7332 4.36329 37.5318 4.27052 37.2999C4.18329 37.0825 4.20683 36.8249 4.34045 36.5369C4.74061 35.6695 4.62014 35.0159 4.44914 34.6192C4.18121 33.9996 3.6149 33.542 2.76474 33.2588C1.59265 32.8677 1.3358 32.5686 1.38911 31.6575C1.43549 30.8669 2.79381 28.9291 3.69313 27.6455C4.16391 26.9733 4.60837 26.3391 4.89084 25.8566C6.01585 23.9375 6.17923 23.4127 5.72161 21.1239C5.43984 19.7123 5.85315 18.3069 6.33293 16.6786C6.49147 16.1406 6.65416 15.5882 6.79678 15.0163L6.86878 14.7193C8.9485 6.02729 15.7048 1.54248 26.9528 1.3874C47.4114 1.10286 48.6424 20.4233 48.6493 20.6178C48.8106 25.32 46.283 31.2975 44.5238 33.857C42.6123 36.6373 41.1591 42.1987 40.9895 47.3807C40.8171 52.6097 46.7503 62.2634 47.0037 62.6718C47.1338 62.8837 47.3602 63 47.5921 63Z" fill="#008771"/>
<path d="M24.6764 5.22598C24.5331 5.3319 24.0485 5.18859 23.6601 5.07297C22.8563 4.83482 21.7562 4.50943 20.8085 5.21836C20.2864 5.60952 20.1611 5.58321 19.9361 5.53613C19.518 5.45098 19.0638 5.41152 18.1209 5.88852C17.0021 6.45483 16.5722 7.43169 16.2876 8.07901C16.1928 8.29432 16.0495 8.6204 15.9678 8.66886C15.5199 8.59478 15.1031 8.69932 14.7431 8.90009C14.5008 8.62316 14.0847 8.26732 13.5205 8.23478C12.8759 8.20431 12.2528 8.58232 11.6664 9.3764C11.5127 9.58479 11.1811 9.75233 10.8197 9.8991C11.4276 8.89248 12.2064 7.92808 13.1736 7.39223C14.3166 6.75876 14.6205 6.44376 14.8649 6.19037C15.1619 5.88367 15.3842 5.67875 16.1817 5.35821C16.4316 5.25782 16.7273 5.13667 17.052 5.00374C19.2757 4.09335 21.3422 3.26811 22.1993 3.16772C22.7767 3.09918 23.5064 3.13103 24.2126 3.16288C24.394 3.17118 24.5691 3.17811 24.7387 3.18365C24.7436 3.23765 24.7574 3.29165 24.783 3.34219C24.7886 3.35326 25.44 4.66589 24.6764 5.22598Z" fill="#008771"/>
<path d="M10.3151 16.6559C10.3919 16.0072 10.6059 15.5454 10.9513 15.283C11.3605 14.9729 11.8292 15.0366 11.8333 15.0359C12.0666 15.0726 12.2854 14.9113 12.3221 14.678C12.3581 14.444 12.1975 14.2252 11.9642 14.1892C11.931 14.1836 11.1348 14.0687 10.4335 14.6011C9.89624 15.0103 9.57016 15.6673 9.46493 16.5555C9.35 17.5199 9.05785 17.9208 8.83284 18.0869C8.76292 18.1388 8.69853 18.1658 8.63969 18.1852C8.39045 17.747 8.24438 17.0865 8.52684 16.1214C8.74353 15.3814 8.84253 14.8621 8.92284 14.4453C9.00523 14.0147 9.06477 13.7039 9.20738 13.4117C9.23923 13.3466 9.28908 13.2116 9.3597 13.0254C9.53001 12.5761 9.80485 11.8519 10.1898 11.0585C10.358 10.9893 10.5276 10.9263 10.6412 10.8848C11.2691 10.6535 11.9808 10.3905 12.3533 9.88575C12.6309 9.51052 13.0553 9.08336 13.4686 9.09098C13.7268 9.10621 13.9435 9.29383 14.0813 9.4496C13.9124 9.65314 13.7767 9.87606 13.6894 10.1059C13.3488 11.0025 13.6389 11.8782 14.4461 12.3906C14.874 12.6619 15.4168 12.8122 16.0177 12.8122C17.1344 12.8122 18.4512 12.2922 19.6011 11.0565C19.7624 10.8834 19.7527 10.612 19.5796 10.4507C19.4066 10.2894 19.1352 10.2984 18.9739 10.4721C17.5228 12.0299 15.8273 12.2521 14.9051 11.6657C14.2557 11.2545 14.3991 10.6494 14.4904 10.4091C14.6864 9.89268 15.2416 9.41083 15.8301 9.50914C16.5404 9.62544 16.8215 8.98644 17.0686 8.42359C17.3317 7.82543 17.6592 7.08049 18.5038 6.65334C19.257 6.27256 19.5118 6.32518 19.7597 6.37572C20.1868 6.46503 20.5482 6.48233 21.3187 5.90494C21.9204 5.45355 22.6798 5.67856 23.413 5.89525C24.0714 6.08979 24.6938 6.27464 25.1791 5.9181C26.2785 5.11293 25.8583 3.71169 25.6395 3.17099C25.6506 3.16961 25.6658 3.16961 25.6762 3.16822C26.1442 3.10314 26.795 3.21945 27.4257 3.3323C27.9117 3.41953 28.4129 3.50884 28.6877 3.48392C28.7867 3.47492 28.8996 3.46176 29.0256 3.44653C29.6002 3.37938 30.4608 3.27968 31.5934 3.37107C31.0278 3.80515 30.746 4.32508 30.5923 4.6117C30.5785 4.63731 30.566 4.66085 30.5549 4.68162C30.4061 4.7287 30.2531 4.67678 29.9665 4.5577C29.6092 4.40885 29.1204 4.20739 28.5936 4.53485C28.1332 4.82216 28.0314 5.25901 27.9504 5.61002C27.8701 5.95687 27.8064 6.23033 27.4402 6.4581C27.1522 6.63603 26.905 6.90742 26.6433 7.19403C25.9046 8.00543 25.1396 8.84382 23.2178 8.20274C22.9928 8.12727 22.7504 8.24912 22.6757 8.47343C22.6009 8.69774 22.7214 8.94074 22.9464 9.01551C23.512 9.20452 24.007 9.28344 24.4432 9.28344C25.8991 9.28344 26.7008 8.40351 27.2768 7.77142C27.497 7.52981 27.7047 7.30204 27.8916 7.18573C28.5611 6.77103 28.6905 6.21164 28.7854 5.80317C28.8601 5.48194 28.9017 5.35248 29.0471 5.26178C29.1793 5.1794 29.2977 5.20778 29.6376 5.34832C29.9934 5.49579 30.4815 5.69863 31.0305 5.40648C31.1801 5.32755 31.25 5.1974 31.3469 5.0167C31.5664 4.60754 31.9769 3.86261 33.122 3.59815C33.9417 3.77815 34.4803 4.01492 34.8549 4.24339C34.3024 4.36662 33.6911 4.60962 33.2695 5.0887C32.6859 5.75194 33.329 6.45049 33.7126 6.86795C33.8607 7.02857 34.1688 7.36365 34.1612 7.47719C34.1612 7.47719 34.1453 7.51181 34.0643 7.56858C33.7908 7.76381 33.2556 7.59142 32.7184 7.37681C31.8205 7.01819 30.5383 7.07011 29.6944 7.99089C29.5774 8.11827 29.4486 8.21381 29.3129 8.27335C27.7933 8.93728 27.2768 10.1018 27.859 11.5522C27.9137 11.6878 27.8992 11.7377 27.8992 11.7377C27.8237 11.8789 27.0975 11.9675 26.7493 12.0098C26.0992 12.0894 25.4262 12.1711 24.9492 12.4937C23.8201 13.2559 22.5614 16.1685 23.2579 18.0502C23.6172 19.0243 23.5314 19.3649 23.5037 19.4355C23.3479 19.5498 23.2835 19.7596 23.3611 19.9458C23.4296 20.1106 23.5888 20.2096 23.7571 20.2096C23.8118 20.2096 23.8678 20.1992 23.9218 20.177C24.1918 20.0649 24.7464 19.6045 24.0624 17.7525C23.53 16.3132 24.5546 13.7946 25.4297 13.204C25.7364 12.997 26.3297 12.9243 26.8538 12.8606C27.6174 12.7679 28.3388 12.6799 28.6379 12.1732C28.7937 11.9094 28.7999 11.593 28.6552 11.2323C28.2454 10.2098 28.5541 9.5389 29.6577 9.05705C29.9041 8.94905 30.1291 8.78497 30.3278 8.56897C30.8955 7.94935 31.7789 7.92373 32.402 8.17158C33.1116 8.45474 33.9223 8.7199 34.562 8.26643C34.8341 8.07327 34.9864 7.83719 35.0155 7.56581C35.0674 7.07149 34.7005 6.67272 34.3453 6.28641C34.1979 6.12579 33.8898 5.7914 33.8974 5.67786C34.4513 5.04509 35.6407 4.96132 36.081 4.97932C36.9734 5.25763 39.3674 6.10433 40.3027 7.44673C41.2325 8.07258 43.1405 10.8661 43.1606 10.8952C43.3662 11.2025 43.7131 11.8637 44.0807 12.5636C44.4608 13.2871 44.8533 14.0348 45.0693 14.354C45.5352 15.0407 46.1195 16.6739 46.3792 17.4375C46.3445 17.5192 46.3141 17.6023 46.2857 17.6812C46.1258 18.1271 46.0462 18.2621 45.934 18.2448C45.6502 18.1908 45.5809 18.0419 45.4736 17.2534C45.3822 16.5777 45.268 15.7379 44.638 14.9272C43.3517 13.2719 42.1484 13.2179 41.137 13.4034C41.1183 13.1971 41.1889 12.7706 41.2339 12.4992C41.3045 12.0755 41.3703 11.6754 41.3287 11.3528C41.175 10.1578 39.699 8.51566 38.6052 8.3232C38.1365 8.24012 37.7543 8.41805 37.5521 8.80851C37.2101 9.47106 36.8564 9.59706 36.7816 9.61783L36.7588 9.61714C34.5683 9.52437 32.2594 9.5936 31.7305 10.8155C31.5747 11.1755 31.3905 11.3223 31.1344 11.5252C30.7169 11.8561 30.1977 12.2687 29.8543 13.6339C29.5407 14.8808 29.6064 15.607 30.0495 16.2011C30.3361 16.5874 30.7626 16.6185 31.2818 16.6185C31.2881 16.6185 31.2943 16.6185 31.3005 16.6185C31.5283 16.6185 31.718 16.6462 31.7284 16.4164C31.7388 16.1796 31.5553 16.0841 31.3185 16.0737C31.0617 16.0626 30.8658 16.0204 30.7349 15.8452C30.4615 15.4776 30.4428 14.7742 30.6837 13.8174C30.9558 12.7332 31.3005 12.4736 31.6654 12.1835C31.9506 11.9579 32.2739 11.7072 32.5156 11.1499C32.7586 10.5885 34.1743 10.3607 36.72 10.4701L36.7892 10.4749C36.7975 10.4756 36.8044 10.4721 36.8128 10.4728C36.8197 10.4728 36.8252 10.4763 36.8321 10.4763C36.9187 10.4715 37.6982 10.3939 38.313 9.20313C38.3296 9.17129 38.3414 9.14913 38.4556 9.16852C39.1375 9.28898 40.3623 10.5635 40.4779 11.4635C40.5035 11.6615 40.4419 12.0333 40.3879 12.3615C40.2729 13.0579 40.1643 13.7156 40.5346 14.0756C40.6593 14.1968 40.8822 14.3256 41.245 14.257C41.9947 14.1116 42.8864 14.0736 43.9616 15.4554C44.4497 16.0834 44.5431 16.7667 44.6241 17.3704C44.7218 18.0911 44.8332 18.9094 45.7734 19.088C45.8468 19.1019 45.9153 19.1088 45.9804 19.1088C46.3785 19.1088 46.6353 18.8651 46.8105 18.5861C47.0798 19.2673 47.3844 20.1902 47.3629 21.3962C47.1019 21.3865 46.7592 21.8081 46.4152 22.265C46.2739 22.452 45.943 22.8494 45.5865 22.8494C45.5802 22.8494 45.574 22.8494 45.5671 22.8494C45.1912 22.8494 44.8685 22.4333 44.7051 22.2048C44.5618 22.0033 44.4192 21.4966 44.2676 21.1026C43.8342 19.9742 43.1751 18.2046 41.4769 18.5944C41.2463 18.6477 41.103 18.8443 41.1556 19.0749C41.209 19.3054 41.4395 19.4321 41.67 19.3788C42.5728 19.1676 42.9861 20.0309 43.4673 21.282C43.6383 21.7278 43.8003 22.3343 44.0073 22.6244C44.3341 23.0813 44.8983 23.5417 45.5567 23.5417C45.5671 23.5417 45.5768 23.5417 45.5872 23.5417C46.2185 23.5417 46.7966 23.1034 47.1006 22.6991C47.1816 22.5911 47.2459 22.3973 47.2979 22.371C47.2362 22.8203 47.2833 23.316 47.1144 23.8331C47.0078 24.1599 46.969 24.1828 46.969 24.7955V24.7858C46.2767 24.1731 46.1313 24.423 45.5221 24.7041C45.3068 24.8031 45.1358 25.0121 45.2348 25.2275C45.3331 25.4421 45.5484 25.5141 45.7644 25.4151C45.9804 25.3161 46.1279 25.2863 46.2393 25.3521C46.2975 25.3867 46.3376 25.4372 46.3812 25.5058C45.7616 27.3854 45.286 28.4474 44.17 28.8033C43.8148 28.9168 43.5137 28.9486 43.2423 28.9563C43.0353 28.7112 42.4136 28.2833 40.8538 29.0463C40.0521 29.4402 39.1369 29.1023 38.1697 28.7465C38.1489 28.7389 38.1275 28.7313 38.1067 28.7236C38.529 28.2522 39.3452 27.1466 39.006 25.953C39.0012 25.9357 38.9887 25.9225 38.9818 25.9059C38.9749 25.89 38.9742 25.872 38.9652 25.8568C38.916 25.7716 38.8475 25.5501 38.7865 25.3548C38.5878 24.7151 38.3628 23.9903 37.7938 23.802C37.3825 23.6656 36.8259 23.7798 36.1807 23.9121C35.5472 24.0415 34.5897 24.2381 34.4347 23.9148C34.2969 23.6275 34.2858 22.859 34.3322 22.461C34.6306 22.1716 34.9262 21.8538 35.2253 21.5312C35.505 21.23 35.7909 20.9213 36.0893 20.627C36.1772 20.5405 36.2575 20.4526 36.333 20.3646C36.5981 21.284 37.1928 22.4658 38.7042 22.4658C39.1279 22.4658 39.5266 22.3495 39.9129 22.2373C40.4973 22.0663 41.0013 21.9196 41.5295 22.157C41.6188 22.1972 41.6763 22.2623 41.715 22.3682C41.9068 22.8944 41.5274 24.0242 41.2436 24.6134C41.1404 24.8266 41.2304 25.0828 41.443 25.1859C41.5032 25.215 41.5669 25.2288 41.6299 25.2288C41.7891 25.2288 41.9414 25.1395 42.0155 24.9872C42.1069 24.7982 42.8982 23.1124 42.5209 22.076C42.4032 21.7527 42.1817 21.5104 41.8805 21.3754C41.0663 21.0092 40.3256 21.2245 39.6741 21.4142C39.3307 21.5139 39.006 21.6087 38.7042 21.6087C37.5646 21.6087 37.2122 20.564 37.0004 19.4362C36.9914 19.3892 36.9838 19.3476 36.9761 19.3082C37.3355 18.4019 37.2953 17.4555 37.2545 16.5292C37.2365 16.1325 37.2184 15.7227 37.2295 15.3107C37.269 13.8631 38.1095 13.8396 38.1455 13.8389C38.3822 13.8368 38.5726 13.7309 38.5705 13.4941C38.5692 13.2587 38.3774 13.1569 38.1427 13.1569C38.1413 13.1569 38.1392 13.1569 38.1392 13.1569C37.5501 13.1569 36.423 13.5633 36.3738 15.3744C36.3614 15.8168 36.3808 16.1983 36.3994 16.6102C36.441 17.5393 36.4756 18.323 36.1731 19.0485C36.1613 19.0665 36.1557 19.0859 36.1474 19.1053C36.0055 19.4252 35.7964 19.7326 35.4897 20.0351C35.1817 20.339 34.8874 20.6471 34.5994 20.9573C34.2879 21.293 33.9888 21.6136 33.6953 21.894C33.6828 21.9023 33.6752 21.9154 33.6634 21.9244C32.9808 22.5704 32.3272 22.9857 31.6128 22.8217C29.8197 22.4084 27.812 22.139 26.5056 23.2848C26.5021 23.2876 26.4973 23.2883 26.4931 23.2917C25.0143 24.5282 25.2746 26.1268 25.6201 26.7997C25.6956 26.9479 25.8458 27.033 26.0016 27.033C26.0673 27.033 26.1338 27.0178 26.1968 26.9859C26.4066 26.8786 26.4903 26.6218 26.3837 26.4113C26.3526 26.3476 25.7336 25.0447 27.0435 23.9501C27.0456 23.9488 27.0463 23.946 27.0483 23.9446C27.0504 23.9432 27.0525 23.9425 27.0546 23.9411C28.0744 23.028 29.9235 23.3077 31.4203 23.6538C32.1798 23.8297 32.8396 23.6137 33.4571 23.1948C33.4716 23.5894 33.5277 24.0034 33.6641 24.2866C33.7617 24.4894 33.8995 24.6328 34.0636 24.7345C33.6115 26.1108 31.835 26.3774 31.556 26.367C31.3947 26.3144 31.2098 26.358 31.0928 26.4958C30.9392 26.6758 30.9606 26.9458 31.1413 27.0995C31.2458 27.1888 31.4127 27.222 31.6017 27.222C32.1299 27.222 32.8326 26.9645 32.8423 26.9603C33.9043 26.5664 34.6209 25.8582 34.8985 24.9436C35.3665 24.9519 35.8871 24.8467 36.3551 24.7511C36.7906 24.6625 37.3341 24.5531 37.5272 24.6154C37.6851 24.6888 37.8852 25.3334 37.971 25.6089C38.0444 25.845 38.1102 26.0506 38.1891 26.2112C38.457 27.2324 37.3098 28.3214 37.2974 28.3318C37.2676 28.3588 37.2496 28.3927 37.2288 28.4253C36.8993 28.3304 36.5698 28.264 36.2471 28.2577C35.3333 28.2418 34.4388 28.6773 33.4737 28.9694C32.1632 29.364 30.6809 29.7725 28.9204 29.7725H28.919C28.7141 29.7725 28.4267 29.4949 28.075 29.6479C27.8037 29.7649 27.5267 29.8314 27.2332 29.9878C26.3477 30.4593 25.3425 30.9529 24.2126 30.7521C23.827 30.685 23.5404 30.7134 23.2081 30.7694C22.5095 30.8885 21.7182 31.0124 20.0899 30.1097C19.8476 29.9754 19.6205 29.8438 19.4031 29.722C18.8562 29.265 18.7807 29.0248 18.6409 28.1393C18.5606 27.6312 18.6499 27.4643 18.7627 27.2552C18.9462 26.916 19.0846 26.5768 18.9226 25.8665C18.8347 25.4808 18.9019 25.1451 19.1234 24.8675C19.4426 24.4673 19.9902 24.2873 20.3917 24.2873C20.6285 24.2873 20.8203 24.0955 20.8203 23.8588C20.8203 23.622 20.6285 23.4302 20.3917 23.4302C19.6516 23.4302 18.8901 23.7847 18.4533 24.333C18.0669 24.8169 17.9409 25.413 18.0877 26.0562C18.1909 26.5096 18.1223 26.6363 18.0088 26.8461C17.8232 27.1902 17.6786 27.5342 17.7949 28.2695C17.8267 28.4703 17.8592 28.6461 17.8939 28.8053C17.0098 28.1947 16.6131 27.6616 16.7702 26.9299C16.8235 26.6786 16.737 26.5525 16.5355 26.2909C16.3362 26.0319 16.0634 25.6775 16.1215 25.1375C16.1527 24.846 16.1956 24.4756 16.3493 24.0505C16.8471 23.2364 17.3912 23.0245 17.7741 22.877C17.925 22.8182 18.0552 22.7684 18.1722 22.6915C18.9337 22.1903 19.5 21.8476 20.0172 21.6745C20.0186 21.6745 20.02 21.6738 20.0213 21.6738C20.029 21.6717 20.0359 21.6669 20.0435 21.6648C20.5683 21.4945 21.0432 21.5028 21.6192 21.7077C22.9976 22.2007 24.7644 21.5963 26.347 20.0939C27.0573 19.4196 27.4845 19.4079 28.2606 19.3871C28.3928 19.3836 28.5313 19.3802 28.6787 19.3725C28.8615 19.3629 29.3011 19.5172 29.7082 19.6661C30.6242 20.0019 31.763 20.4186 32.7122 19.9721C33.2286 19.7284 33.6122 19.2597 33.8517 18.5785C34.3149 17.2624 34.3537 16.0647 34.3827 15.1903C34.4035 14.5561 34.4236 13.9573 34.614 13.9213C34.8466 13.8776 34.9996 13.654 34.956 13.4214C34.9123 13.1895 34.6908 13.0358 34.4561 13.0794C33.59 13.2421 33.5603 14.1317 33.527 15.1626C33.4986 16.0273 33.4633 17.1031 33.0438 18.2946C32.8804 18.7585 32.6526 19.0534 32.3473 19.1974C31.7215 19.4937 30.7695 19.1434 30.0031 18.8623C29.5628 18.701 29.1758 18.5667 28.8407 18.5314C27.2713 17.1052 27.6313 16.1201 27.6479 16.0778C27.7337 15.8611 27.6327 15.6112 27.418 15.5205C27.2027 15.4298 26.9576 15.5226 26.8621 15.7344C26.8365 15.7912 26.3311 16.9771 27.6707 18.5577C27.0677 18.611 26.4813 18.7834 25.7565 19.4722C24.7194 20.4574 23.1631 21.3498 21.9065 20.9012C21.2959 20.6831 20.7594 20.6443 20.2373 20.7378C20.1799 20.6326 20.1093 20.5204 20.029 20.3937C19.795 20.0254 19.4031 19.4085 19.5346 19.124C19.6336 18.9087 19.5395 18.6546 19.3249 18.5556C19.1082 18.4566 18.8548 18.5508 18.7565 18.7654C18.4297 19.4743 18.9358 20.2712 19.3055 20.8534L19.3069 20.8548C18.4415 20.7918 16.6823 20.4096 16.1963 18.8194C16.1278 18.5937 15.8889 18.4642 15.6618 18.5348C15.4355 18.6041 15.3081 18.8429 15.3773 19.0693C15.8488 20.6139 17.2105 21.2937 18.3487 21.5616C18.141 21.6897 17.9271 21.8275 17.7014 21.9757C17.6619 22.002 17.5622 22.0407 17.4653 22.0774C17.0312 22.245 16.287 22.535 15.6411 23.5694C15.2395 23.5548 14.8248 23.5174 14.451 23.4337C13.7774 23.2821 13.3862 23.1027 13.0414 22.9456C12.7645 22.8189 12.525 22.7088 12.167 22.6327C11.2836 22.443 9.50439 21.4966 9.19146 20.069C9.062 19.4792 9.12361 19.1074 9.19354 18.8658C9.24269 18.8374 9.29116 18.8132 9.341 18.7765C9.86647 18.3874 10.1939 17.6743 10.3151 16.6559ZM23.7488 25.9059C23.5688 25.7522 23.2995 25.7737 23.1451 25.953C22.7698 26.3912 22.2381 27.1071 22.1675 27.7108C21.7937 27.6776 21.2848 27.7163 20.8563 28.1317C20.686 28.2965 20.6818 28.5679 20.8459 28.7375C20.9297 28.8247 21.0418 28.8683 21.154 28.8683C21.2613 28.8683 21.3693 28.8282 21.4517 28.7479C21.6933 28.5139 21.9986 28.5423 22.3454 28.5983C22.5608 28.6343 22.8557 28.6828 23.035 28.4149C23.116 28.2944 23.1748 28.0902 22.9983 27.8056C22.9893 27.6561 23.3694 27.0088 23.7952 26.5103C23.9495 26.3303 23.9288 26.0596 23.7488 25.9059ZM11.5827 20.7724H11.5841C11.8209 20.7724 12.012 20.2982 12.0113 20.0621C12.0099 19.7422 12.0929 19.5352 12.6932 19.3705C13.1446 19.2465 13.7074 19.0222 14.0771 18.4808C15.2291 16.7958 16.9184 16.5867 18.4089 16.4337C19.8102 16.289 21.2599 16.1228 21.2461 14.3803C21.2322 12.6557 21.2322 12.6467 22.6168 12.043C24.358 11.2842 24.2729 10.4472 24.2382 10.288C24.1877 10.0574 23.9613 9.9086 23.728 9.95914C23.5141 10.0055 23.3728 10.2042 23.3929 10.4168C23.3798 10.4666 23.2551 10.8218 22.2748 11.2489C20.6105 11.9752 20.3723 12.2202 20.3897 14.3699C20.3966 15.2581 19.8905 15.3848 18.3217 15.5468C16.8132 15.7019 14.7473 15.9144 13.371 17.9277C13.1778 18.2095 12.849 18.2995 12.4675 18.404C11.9434 18.548 11.1521 19.0458 11.1556 20.0649C11.1549 20.3009 11.3466 20.7724 11.5827 20.7724Z" fill="#008771"/>
<path d="M28.9538 30.2423L28.9565 30.3371C28.9642 30.5836 29.0348 31.8921 29.7202 32.6003C29.9978 32.8876 30.3938 33.186 30.7434 33.4491C30.8805 33.5522 31.0633 33.69 31.1366 33.7544C31.5223 34.2743 32.1827 34.6613 33.0959 34.9085C33.6096 36.714 34.1904 38.5514 34.3324 38.9163C34.6086 39.6259 33.1887 39.547 32.7553 39.5865C32.3219 39.6259 31.2176 37.2997 30.5475 36.156C29.8773 35.0123 28.7731 33.5536 27.5117 32.6079C27.0153 32.2362 26.6553 31.7176 26.3984 31.2261C27.6294 30.4181 28.1348 30.1557 28.9538 30.2423Z" fill="#008771"/>
<path d="M31.6591 30.1684C32.3971 30.025 33.0804 29.8049 33.7222 29.611C34.6353 29.3348 35.4329 29.08 36.1723 29.08C36.1917 29.08 36.211 29.08 36.2304 29.08C36.7178 29.08 37.28 29.3134 37.8747 29.5328C38.5614 29.7862 39.3092 30.0694 40.0631 30.0694C40.4535 30.0694 40.8454 29.9994 41.2317 29.8104C41.7786 29.5425 42.1186 29.4754 42.3249 29.4698C42.3249 30.2653 42.1172 32.3519 39.9662 33.1204C38.4666 33.6562 37.0709 33.4603 36.4658 33.5974C35.9521 33.7137 35.3726 34.1554 33.7727 34.1554C33.6571 34.1554 33.5352 34.1395 33.4085 34.1069C33.2445 34.0654 33.0368 34.0052 32.8215 33.9214C32.4414 33.7732 32.0364 33.5496 31.8024 33.2132C31.6791 33.0359 30.7625 32.4447 30.3361 32.0044C29.8473 31.499 29.8134 30.356 29.8134 30.356C30.469 30.3567 31.0803 30.2805 31.6591 30.1684Z" fill="#008771"/>
</svg>
