<svg width="24" height="24" viewBox="0 0 24 24" fill="none" xmlns="http://www.w3.org/2000/svg">
<path d="M24 5.36674V2.68319C24 1.20115 22.8624 0 21.4589 0H19.3059H18.9881V1.31861C18.9881 1.47557 18.8303 1.60237 18.6354 1.60237H17.2301C17.0355 1.60237 16.8773 1.47557 16.8773 1.31861V0H16.7379H6.70596V1.31861C6.70596 1.47557 6.54811 1.60237 6.35319 1.60237H4.94825C4.75333 1.60237 4.59548 1.47557 4.59548 1.31861V0H2.54148C1.13824 0 0.000340317 1.20115 0.000340317 2.68319V5.36674H8.52252V6.44432H0V21.3168C0 22.7985 1.1379 24 2.54114 24H21.4589C22.8624 24 24 22.7985 24 21.3168V6.44432H15.6813V7.05855H13.2061V9.67169H11.0225V7.05855H8.54735V4.75215H11.0225V2.13901H13.2061V4.75215H15.6813V5.36638L24 5.36674ZM18.0867 13.5327C18.0867 13.0848 18.4302 12.722 18.8544 12.722H19.5695C19.9937 12.722 20.3373 13.0848 20.3373 13.5327V14.2877C20.3373 14.7353 19.9937 15.0984 19.5695 15.0984H18.8544C18.4302 15.0984 18.0867 14.7353 18.0867 14.2877V13.5327ZM13.1054 13.5327C13.1054 13.0848 13.449 12.722 13.8732 12.722H14.5883C15.0121 12.722 15.356 13.0848 15.356 13.5327V14.2877C15.356 14.7353 15.0118 15.0984 14.5883 15.0984H13.8732C13.449 15.0984 13.1054 14.7353 13.1054 14.2877V13.5327ZM13.1054 19.3312C13.1054 18.8833 13.449 18.5208 13.8732 18.5208H14.5883C15.0121 18.5208 15.356 18.8833 15.356 19.3312V20.0862C15.356 20.5341 15.0118 20.8969 14.5883 20.8969H13.8732C13.449 20.8969 13.1054 20.5338 13.1054 20.0862V19.3312ZM6.06098 20.0862C6.06098 20.5341 5.7174 20.8969 5.29319 20.8969H4.57814C4.15427 20.8969 3.81035 20.5338 3.81035 20.0862V19.3312C3.81035 18.8833 4.15427 18.5208 4.57814 18.5208H5.29319C5.7174 18.5208 6.06098 18.8833 6.06098 19.3312V20.0862ZM6.06098 14.2874C6.06098 14.7349 5.7174 15.0981 5.29319 15.0981H4.57814C4.15427 15.0981 3.81035 14.7349 3.81035 14.2874V13.5323C3.81035 13.0844 4.15427 12.7216 4.57814 12.7216H5.29319C5.7174 12.7216 6.06098 13.0844 6.06098 13.5323V14.2874ZM10.6306 20.0862C10.6306 20.5341 10.2867 20.8969 9.86282 20.8969H9.14777C8.72356 20.8969 8.38032 20.5338 8.38032 20.0862V19.3312C8.38032 18.8833 8.7239 18.5208 9.14777 18.5208H9.86282C10.287 18.5208 10.6306 18.8833 10.6306 19.3312V20.0862ZM9.14777 12.722H9.86282C10.287 12.722 10.6306 13.0848 10.6306 13.5327V14.2877C10.6306 14.7353 10.2867 15.0984 9.86282 15.0984H9.14777C8.72356 15.0984 8.38032 14.7353 8.38032 14.2877V13.5327C8.38032 13.0848 8.7239 12.722 9.14777 12.722Z" fill="white"/>
</svg>
