<svg width="6" height="12" viewBox="0 0 6 12" fill="none" xmlns="http://www.w3.org/2000/svg">
<path d="M0.16124 10.4613C0.109735 10.5158 0.0694695 10.5799 0.0427423 10.65C0.0160155 10.7201 0.00335026 10.7947 0.00547075 10.8697C0.00759172 10.9446 0.024456 11.0184 0.0551009 11.0869C0.0857458 11.1553 0.129571 11.2171 0.184076 11.2686C0.23858 11.3201 0.302695 11.3603 0.372761 11.3871C0.442826 11.4138 0.517469 11.4265 0.592429 11.4243C0.667389 11.4222 0.741198 11.4053 0.80964 11.3747C0.878083 11.3441 0.939819 11.3002 0.991324 11.2457L5.84395 6.10765C5.94416 6.00166 6 5.86132 6 5.71545C6 5.56958 5.94416 5.42924 5.84395 5.32324L0.991324 0.184596C0.940159 0.128899 0.878437 0.0839224 0.809742 0.0522804C0.741048 0.0206385 0.666751 0.00296211 0.591168 0.000276566C0.515584 -0.00240898 0.44022 0.00995159 0.369454 0.0366383C0.298687 0.0633249 0.233928 0.103806 0.178939 0.155732C0.12395 0.207658 0.0798264 0.269993 0.0491314 0.339115C0.0184364 0.408237 0.00178194 0.48277 0.000135422 0.558384C-0.00151157 0.633997 0.0118823 0.709184 0.0395389 0.779577C0.0671954 0.849971 0.108563 0.914166 0.16124 0.968437L4.64392 5.71545L0.16124 10.4613Z" fill="#BDBDBD"/>
</svg>
