<svg width="24" height="24" viewBox="0 0 24 24" fill="none" xmlns="http://www.w3.org/2000/svg">
<path d="M1.49367 15.443V6.50633H16.4557V10.4051C16.962 10.3544 17.443 10.3544 17.9494 10.4051V4.07595C17.9494 2.83544 16.9367 1.8481 15.7215 1.8481H14.1013V0.658228C14.1013 0.303797 13.7975 0 13.443 0H11.7975C11.443 0 11.1392 0.303797 11.1392 0.658228V1.8481H6.81013V0.658228C6.81013 0.303797 6.50633 0 6.1519 0H4.50633C4.1519 0 3.8481 0.303797 3.8481 0.658228V1.8481H2.22785C0.987342 1.8481 0 2.86076 0 4.07595V15.443C0 16.6835 1.01266 17.6709 2.22785 17.6709H9.56962C9.59494 17.1646 9.64557 16.6835 9.77215 16.1772H2.25316C1.8481 16.2025 1.49367 15.8734 1.49367 15.443Z" fill="white"/>
<path d="M12.2016 8.35449C11.9232 8.35449 11.6953 8.58234 11.6953 8.86082V10.2026C11.6953 10.4811 11.9232 10.7089 12.2016 10.7089H14.0751C14.3535 10.7089 14.5814 10.4811 14.5814 10.2026V8.86082C14.5814 8.58234 14.3535 8.35449 14.0751 8.35449H12.2016Z" fill="white"/>
<path d="M9.92272 8.35449H8.0493C7.77082 8.35449 7.54297 8.58234 7.54297 8.86082V10.2026C7.54297 10.4811 7.77082 10.7089 8.0493 10.7089H9.92272C10.2012 10.7089 10.429 10.4811 10.429 10.2026V8.86082C10.4037 8.58234 10.2012 8.35449 9.92272 8.35449Z" fill="white"/>
<path d="M9.92272 12.0254H8.0493C7.77082 12.0254 7.54297 12.2532 7.54297 12.5317V13.8735C7.54297 14.152 7.77082 14.3798 8.0493 14.3798H9.92272C10.2012 14.3798 10.429 14.152 10.429 13.8735V12.5317C10.4037 12.2532 10.2012 12.0254 9.92272 12.0254Z" fill="white"/>
<path d="M6.25326 8.83543C6.25326 8.55695 6.02542 8.3291 5.74693 8.3291H3.87352C3.59504 8.3291 3.36719 8.55695 3.36719 8.83543V10.1772C3.36719 10.4557 3.59504 10.6835 3.87352 10.6835H5.74693C6.02542 10.6835 6.25326 10.4557 6.25326 10.1772V8.83543Z" fill="white"/>
<path d="M5.77037 12.0254H3.89695C3.61847 12.0254 3.39062 12.2532 3.39062 12.5317V13.8735C3.39062 14.152 3.61847 14.3798 3.89695 14.3798H5.77037C6.04885 14.3798 6.2767 14.152 6.2767 13.8735V12.5317C6.25138 12.2532 6.04885 12.0254 5.77037 12.0254Z" fill="white"/>
<path d="M17.1131 14.6074C16.708 14.6074 16.3789 14.9365 16.3789 15.3416V17.9492C16.3789 18.253 16.5561 18.5062 16.8346 18.6327L18.4042 19.3163C18.5055 19.3669 18.6068 19.3669 18.708 19.3669C18.9865 19.3669 19.265 19.1897 19.3916 18.9112C19.5435 18.5315 19.3916 18.1011 19.0118 17.9239L17.8979 17.4429V15.3163C17.8726 14.9365 17.5181 14.6074 17.1131 14.6074Z" fill="white"/>
<path d="M19.7217 16.0254L22.9115 16.6836C23.0634 16.7089 23.19 16.6836 23.2913 16.557C23.3926 16.4557 23.4179 16.3038 23.3926 16.1773L22.7343 12.9874C22.709 12.8355 22.5571 12.7089 22.4558 12.6583C22.3039 12.6076 22.1267 12.6583 22.0255 12.7595L21.2913 13.4937C20.152 12.4304 18.709 11.8481 17.1394 11.8481C15.5191 11.8481 13.9748 12.4811 12.8356 13.6203C10.4558 16 10.4558 19.8481 12.8356 22.2279C13.9748 23.3671 15.5191 24 17.1394 24C18.7596 24 20.3039 23.3671 21.4432 22.2279C22.3546 21.3165 22.9369 20.2026 23.1394 18.9368C23.2153 18.5317 22.9369 18.1519 22.5318 18.076C22.1267 18 21.747 18.2785 21.671 18.6836C21.5191 19.6203 21.0634 20.4811 20.3799 21.1646C18.5824 22.9621 15.671 22.9621 13.8736 21.1646C12.0761 19.3671 12.0761 16.4557 13.8736 14.6583C15.6204 12.9114 18.4052 12.8608 20.228 14.5064L19.4938 15.2406C19.3926 15.3418 19.3419 15.519 19.3926 15.6709C19.4432 15.8735 19.5698 16 19.7217 16.0254Z" fill="white"/>
</svg>
