<svg width="18" height="18" viewBox="0 0 18 18" fill="none" xmlns="http://www.w3.org/2000/svg">
<mask id="path-1-inside-1_67_392" fill="white">
<path d="M3.17648 4.23535H2.11765C1.55601 4.23535 1.01738 4.45846 0.620245 4.8556C0.223109 5.25273 0 5.79137 0 6.353V15.8824C0 16.4441 0.223109 16.9827 0.620245 17.3798C1.01738 17.777 1.55601 18.0001 2.11765 18.0001H11.6471C12.2087 18.0001 12.7473 17.777 13.1445 17.3798C13.5416 16.9827 13.7647 16.4441 13.7647 15.8824V14.8236"/>
</mask>
<path d="M3.17648 6.23535C4.28105 6.23535 5.17648 5.33992 5.17648 4.23535C5.17648 3.13078 4.28105 2.23535 3.17648 2.23535V6.23535ZM2.11765 4.23535V2.23535V4.23535ZM0 6.353H-2H0ZM0 15.8824H-2H0ZM15.7647 14.8236C15.7647 13.719 14.8693 12.8236 13.7647 12.8236C12.6602 12.8236 11.7647 13.719 11.7647 14.8236H15.7647ZM3.17648 2.23535H2.11765V6.23535H3.17648V2.23535ZM2.11765 2.23535C1.02558 2.23535 -0.0217588 2.66917 -0.793968 3.44138L2.03446 6.26981C2.05652 6.24775 2.08645 6.23535 2.11765 6.23535V2.23535ZM-0.793968 3.44138C-1.56618 4.21359 -2 5.26093 -2 6.353H2C2 6.3218 2.0124 6.29187 2.03446 6.26981L-0.793968 3.44138ZM-2 6.353V15.8824H2V6.353H-2ZM-2 15.8824C-2 16.9745 -1.56618 18.0218 -0.793968 18.7941L2.03446 15.9656C2.0124 15.9436 2 15.9136 2 15.8824H-2ZM-0.793968 18.7941C-0.0217596 19.5663 1.02558 20.0001 2.11765 20.0001V16.0001C2.08645 16.0001 2.05652 15.9877 2.03446 15.9656L-0.793968 18.7941ZM2.11765 20.0001H11.6471V16.0001H2.11765V20.0001ZM11.6471 20.0001C12.7391 20.0001 13.7865 19.5663 14.5587 18.7941L11.7303 15.9656C11.7082 15.9877 11.6783 16.0001 11.6471 16.0001V20.0001ZM14.5587 18.7941C15.3309 18.0218 15.7647 16.9745 15.7647 15.8824H11.7647C11.7647 15.9136 11.7523 15.9436 11.7303 15.9656L14.5587 18.7941ZM15.7647 15.8824V14.8236H11.7647V15.8824H15.7647Z" fill="#008771" mask="url(#path-1-inside-1_67_392)"/>
<path d="M16.6406 3.08889L16.6393 3.09016L15.8667 3.86553L14.1335 2.13226L14.9088 1.35966L14.9101 1.3584C15.1396 1.12892 15.4508 1 15.7753 1C16.0999 1 16.4111 1.12892 16.6406 1.3584C16.8701 1.58788 16.999 1.89911 16.999 2.22365C16.999 2.54818 16.8701 2.85942 16.6406 3.08889ZM12.7167 3.54395L14.455 5.28227L8.05418 11.706H6.29297V9.9448L12.7167 3.54395Z" stroke="#008771" stroke-width="2" stroke-linecap="round" stroke-linejoin="round"/>
</svg>
