<svg width="19" height="24" viewBox="0 0 19 24" fill="none" xmlns="http://www.w3.org/2000/svg">
<path d="M18.0517 20.8794H14.9358C16.7554 19.4967 18.0565 16.7841 18.0565 13.8123C18.0565 7.99836 13.63 5.84272 12.1177 5.28101L12.2473 4.92093C12.2905 4.80091 12.2857 4.67128 12.2281 4.55606C12.1705 4.44084 12.0744 4.34962 11.9544 4.30641L11.5559 4.16238L12.5497 1.41142C12.641 1.16177 12.5113 0.888117 12.2617 0.796898L10.1349 0.0287426C10.0148 -0.0144662 9.8852 -0.00966523 9.76998 0.0479464C9.65476 0.100757 9.56354 0.201577 9.52033 0.321602L8.52653 3.07256L8.12805 2.92853C8.00802 2.88532 7.8784 2.89012 7.76317 2.94773C7.64795 3.00054 7.55673 3.10137 7.51352 3.22139L4.71456 10.975C4.62334 11.2246 4.75296 11.4983 5.00261 11.5895L5.26187 11.6855L4.54652 12.8233C4.46971 12.9482 4.4505 13.097 4.49851 13.2362C4.54652 13.3754 4.65214 13.4811 4.79137 13.5339L7.75837 14.6045C7.81118 14.6237 7.86879 14.6333 7.9216 14.6333C8.00802 14.6333 8.09444 14.6093 8.17126 14.5613C8.29608 14.4845 8.3777 14.3596 8.3969 14.2156L8.57454 12.8809L8.83379 12.9578C8.8866 12.977 8.94421 12.9866 8.99702 12.9866C9.06904 12.9866 9.13625 12.9722 9.19866 12.9434C9.31389 12.8905 9.40511 12.7897 9.44831 12.6697L10.5477 9.63069C11.3831 9.78912 13.4043 10.4469 13.4043 13.0586C13.4043 13.2122 13.3995 13.361 13.3899 13.5099C13.3227 14.7197 12.2425 16.184 10.999 16.184H10.1349H5.26667H2.4581C2.19404 16.184 1.978 16.4001 1.978 16.6641C1.978 16.9282 2.19404 17.1442 2.4581 17.1442H4.51772L2.79897 20.8794H0.480097C0.216044 20.8794 0 21.0954 0 21.3595V23.5199C0 23.784 0.216044 24 0.480097 24H18.0517C18.3157 24 18.5318 23.784 18.5318 23.5199V21.3595C18.5318 21.0954 18.3157 20.8794 18.0517 20.8794ZM10.2645 1.08976L11.4887 1.53145L10.6582 3.83111L10.1301 3.63907L9.43391 3.38942L10.2645 1.08976ZM7.52793 13.4811L5.67955 12.8137L6.18845 12.0024L7.64795 12.5305L7.52793 13.4811ZM8.70896 11.8919L8.24327 11.7239L6.15005 10.9702L5.78037 10.8357L8.25287 3.98474L8.65135 4.12877L9.45792 4.42163L11.1863 5.04096L11.0518 5.41063L9.77958 8.93455L8.70896 11.8919ZM14.3501 13.5627C14.3597 13.3947 14.3645 13.2266 14.3645 13.0586C14.3645 10.1876 12.3433 9.02577 10.879 8.7089L11.796 6.16919C13.1211 6.64448 17.0963 8.51206 17.0963 13.8075C17.0963 17.4275 15.0222 20.6105 12.593 20.8506L10.8838 17.1394H10.999C12.809 17.149 14.2589 15.2574 14.3501 13.5627ZM5.57393 17.149H9.83239L11.5511 20.8842H3.85518L5.57393 17.149ZM17.5716 23.0398H0.960195V21.8396H3.10143H3.10623H12.3001H12.3049H17.5716V23.0398Z" fill="white"/>
</svg>
