<svg width="19" height="20" viewBox="0 0 19 20" fill="none" xmlns="http://www.w3.org/2000/svg">
<path d="M9.17949 18C11.1271 18 12.995 17.1571 14.3722 15.6569C15.7494 14.1566 16.5231 12.1217 16.5231 10C16.5231 7.87827 15.7494 5.84344 14.3722 4.34315C12.995 2.84285 11.1271 2 9.17949 2C7.23185 2 5.36398 2.84285 3.98679 4.34315C2.6096 5.84344 1.8359 7.87827 1.8359 10C1.8359 12.1217 2.6096 14.1566 3.98679 15.6569C5.36398 17.1571 7.23185 18 9.17949 18ZM9.17949 0C10.385 0 11.5786 0.258658 12.6923 0.761205C13.806 1.26375 14.818 2.00035 15.6704 2.92893C16.5228 3.85752 17.1989 4.95991 17.6602 6.17317C18.1215 7.38642 18.359 8.68678 18.359 10C18.359 12.6522 17.3919 15.1957 15.6704 17.0711C13.9489 18.9464 11.614 20 9.17949 20C4.10323 20 0 15.5 0 10C0 7.34784 0.967122 4.8043 2.68861 2.92893C4.4101 1.05357 6.74494 0 9.17949 0ZM9.63846 5V10.25L13.7692 12.92L13.0808 14.15L8.26154 11V5H9.63846Z" fill="black"/>
</svg>
