<svg width="47" height="47" viewBox="0 0 47 47" fill="none" xmlns="http://www.w3.org/2000/svg">
<path d="M23.5013 3.9165C12.6913 3.9165 3.91797 12.6898 3.91797 23.4998C3.91797 34.3098 12.6913 43.0832 23.5013 43.0832C34.3113 43.0832 43.0846 34.3098 43.0846 23.4998C43.0846 12.6898 34.3113 3.9165 23.5013 3.9165ZM23.5013 11.7498C27.2809 11.7498 30.3555 14.8244 30.3555 18.604C30.3555 22.3836 27.2809 25.4582 23.5013 25.4582C19.7217 25.4582 16.6471 22.3836 16.6471 18.604C16.6471 14.8244 19.7217 11.7498 23.5013 11.7498ZM23.5013 39.1665C19.5259 39.1665 14.8259 37.5607 11.4771 33.5265C14.9074 30.8352 19.1413 29.3725 23.5013 29.3725C27.8613 29.3725 32.0952 30.8352 35.5255 33.5265C32.1767 37.5607 27.4767 39.1665 23.5013 39.1665Z" fill="white"/>
</svg>
