<svg width="24" height="24" viewBox="0 0 24 24" fill="none" xmlns="http://www.w3.org/2000/svg">
<path d="M18.667 16.9752L18.392 17.3241L18.7062 17.6382L23.2895 22.2216C23.4256 22.3639 23.5008 22.5537 23.4991 22.7506C23.4973 22.9488 23.4178 23.1384 23.2777 23.2786C23.1375 23.4187 22.9479 23.4982 22.7497 23.5C22.5527 23.5017 22.363 23.4265 22.2207 23.2904L17.6373 18.7071L17.3232 18.3929L16.9743 18.6679C15.6999 19.6723 14.2037 20.3573 12.6107 20.6659C11.0177 20.9744 9.37398 20.8975 7.81672 20.4416C6.25946 19.9857 4.8338 19.164 3.65869 18.0451C2.48358 16.9261 1.5931 15.5424 1.06153 14.0093C0.52996 12.4762 0.372724 10.8383 0.602937 9.23205C0.833151 7.62584 1.44414 6.09797 2.38493 4.77592C3.32571 3.45386 4.56902 2.37596 6.01111 1.63214C7.45321 0.888312 9.05227 0.500138 10.6749 0.5C12.5855 0.499872 14.4575 1.03765 16.0768 2.05178C17.696 3.06591 18.997 4.51543 19.8309 6.23445C20.6648 7.95347 20.9979 9.87253 20.7921 11.772C20.5863 13.6715 19.8498 15.4747 18.667 16.9752ZM10.6749 2.01194C8.37706 2.01194 6.17339 2.92474 4.54861 4.54952C2.92383 6.1743 2.01104 8.37797 2.01104 10.6758C2.01104 12.9735 2.92383 15.1772 4.54861 16.802C6.17339 18.4268 8.37706 19.3396 10.6749 19.3396C12.9726 19.3396 15.1763 18.4268 16.8011 16.802C18.4259 15.1772 19.3387 12.9735 19.3387 10.6758C19.3387 8.37797 18.4259 6.1743 16.8011 4.54952C15.1763 2.92474 12.9726 2.01194 10.6749 2.01194ZM10.6749 4.26791C12.3743 4.26791 14.0042 4.94303 15.2059 6.14473C16.4076 7.34643 17.0827 8.97629 17.0827 10.6758C17.0827 12.3752 16.4076 14.0051 15.2059 15.2068C14.0042 16.4085 12.3743 17.0836 10.6749 17.0836C8.97539 17.0836 7.34553 16.4085 6.14382 15.2068C4.94212 14.0051 4.26701 12.3752 4.26701 10.6758C4.26701 8.97629 4.94212 7.34643 6.14382 6.14473C7.34553 4.94303 8.97539 4.26791 10.6749 4.26791Z" stroke="#C0C0C0"/>
</svg>
