<svg width="39" height="50" viewBox="0 0 39 50" fill="none" xmlns="http://www.w3.org/2000/svg">
<path d="M29.3474 38.1885C29.0629 38.1885 28.832 38.4188 28.832 38.7038V44.1295C28.832 44.4145 29.0629 44.6449 29.3474 44.6449C29.6319 44.6449 29.8627 44.4145 29.8627 44.1295V38.7038C29.8627 38.4188 29.6319 38.1885 29.3474 38.1885Z" fill="#008771"/>
<path d="M34.7562 30.8133C33.8312 30.6097 31.9362 30.1516 29.2816 29.4893C29.0667 28.6003 28.5421 28.153 28.0638 27.7567C27.3773 27.1878 26.729 26.6507 26.7826 24.5362C26.8043 23.6972 27.3712 22.7428 28.5683 21.5317C32.0923 17.966 32.6196 12.9278 30.0922 6.96208C29.1136 4.65173 27.6453 3.5262 25.4932 3.45095C24.8439 0.666483 20.6277 -0.144173 17.9793 0.0202261C11.861 0.395406 8.40915 3.32108 7.11457 9.22758L6.99707 9.74603C6.37709 12.4578 5.08664 18.1005 9.52386 22.3078C10.0944 22.849 10.7891 23.688 10.8586 24.613C11.0235 26.8167 10.0531 27.3418 8.92965 27.95C8.11281 28.3921 7.20321 28.8993 7.02232 30.1057C5.64787 30.4417 4.64137 30.6803 4.03789 30.8133C0.117577 31.6744 0.004199 42.8572 0.004199 44.1296C0.004199 44.1925 0.0196595 44.2512 0.0402738 44.3069C-0.179783 46.3822 0.479357 48.44 2.57686 49.3476C3.62715 49.8021 4.66096 50 5.6659 50C11.2884 49.9995 15.9962 43.8003 17.4763 41.6193C19.4233 38.7508 20.4082 37.9731 20.9967 37.5083C21.1817 37.3619 21.342 37.2357 21.5059 37.0594C22.1589 36.3565 22.7912 35.6726 23.3318 34.9135C23.4452 35.3448 23.4684 35.8607 23.1447 36.5219C23.0628 36.6894 23.0777 36.8878 23.1834 37.0409C23.2803 37.181 23.439 37.264 23.6075 37.264C23.623 37.264 23.639 37.2635 23.6544 37.2619C26.1967 37.029 29.2728 33.8889 29.3738 30.5752C31.8857 31.1998 33.6271 31.6203 34.5341 31.8198C36.8815 32.3356 37.7571 39.6439 37.7582 44.1296C37.7582 44.4146 37.989 44.6449 38.2735 44.6449C38.558 44.6449 38.7889 44.4146 38.7889 44.1296C38.7899 42.8572 38.6765 31.6744 34.7562 30.8133ZM4.26001 31.8198C4.83 31.6945 5.7463 31.4781 6.98728 31.1756C7.05067 32.4099 7.44079 33.4246 8.16384 34.193C9.17548 35.2685 10.8272 35.837 12.9402 35.837C13.1427 35.837 13.3267 35.7184 13.4102 35.5334C13.4936 35.3484 13.4607 35.1325 13.3262 34.9805C12.2542 33.7673 12.5444 33.288 13.2406 32.3166C13.185 34.1255 13.8482 35.8009 14.0781 36.3219C13.4297 39.3027 9.83204 39.4007 6.65126 39.4867C5.4041 39.5202 4.22548 39.5522 3.37875 39.7805C2.47739 40.0237 1.70075 40.5463 1.14056 41.2467C1.43586 37.0455 2.37123 32.2352 4.26001 31.8198ZM23.3143 26.291C23.3019 26.2859 23.2901 26.2756 23.2782 26.2709C23.2406 26.0318 23.1355 25.7958 22.9747 25.5938C23.372 25.2928 23.7632 24.9573 24.1425 24.5873C24.2388 24.493 24.3342 24.3883 24.4285 24.2775C24.428 24.2811 24.4269 24.2847 24.4264 24.2884C23.9915 24.9892 23.6199 25.6597 23.3143 26.291ZM25.6365 17.062C25.555 18.3695 25.3103 19.711 25.0479 21.0277C24.7614 21.9095 24.1007 23.1865 23.422 23.8498C22.9221 24.3378 22.4031 24.7615 21.878 25.1114C21.7976 25.1191 21.7167 25.1237 21.6363 25.148C21.3755 25.2263 21.1194 25.4056 20.855 25.6989C20.8535 25.6994 20.8519 25.6994 20.8504 25.6999C19.9186 26.1431 19.2002 26.2446 18.7616 26.2519C18.0752 26.2611 16.2802 26.0648 14.025 24.0018C13.3365 23.3715 12.6407 22.0898 12.2465 20.7288C11.5873 17.2233 11.7224 15.0764 12.18 14.1059C16.7084 13.9921 21.5358 11.3699 23.4375 9.30282C24.2079 10.2573 25.8967 12.8578 25.6365 17.062ZM15.8612 27.5475C15.5674 27.4011 15.2912 27.3753 15.0356 27.4563V26.0607C16.2895 26.8461 17.5645 27.2836 18.7055 27.2836C18.7297 27.2836 18.7539 27.2831 18.7781 27.2826C19.145 27.2769 19.5341 27.2192 19.933 27.1208C19.6882 27.5923 19.4285 28.1535 19.1456 28.8219C18.4297 30.5144 17.1099 31.8347 16.7327 31.8347C16.728 31.8347 16.7234 31.8347 16.7188 31.8342C16.2472 31.5343 16.2982 30.7262 16.4044 30.3541C16.5616 29.8058 17.0398 28.137 15.8612 27.5475ZM14.0049 25.3387V26.156C13.8405 25.737 13.6385 25.2918 13.3895 24.814C13.5926 24.998 13.7977 25.1743 14.0049 25.3387ZM20.7303 36.3807C20.6416 36.4765 20.5169 36.575 20.3587 36.6992C19.7238 37.2011 18.6606 38.0401 16.6239 41.0405C10.1696 50.554 4.55479 49.0806 2.98708 48.4014C0.562329 47.3526 0.872059 44.3816 1.4374 42.7912C1.78682 41.8079 2.61345 41.0544 3.64828 40.7756C4.37648 40.5788 5.49532 40.5489 6.67961 40.5164C9.94594 40.4283 14.4197 40.3072 15.1232 36.3482C15.1423 36.2415 15.1268 36.1302 15.0794 36.0328C15.0665 36.0065 13.8219 33.4014 14.4362 31.1895L14.5836 30.6556C14.8552 29.6682 15.1361 28.6478 15.3402 28.4442C15.3541 28.4488 15.3737 28.4566 15.4 28.47C15.5886 28.5643 15.7437 28.9183 15.4056 30.099C15.2283 30.7195 15.1588 32.063 16.1658 32.7041C16.3472 32.8201 16.6523 32.9293 17.079 32.7953C18.1499 32.4619 19.4785 30.6814 20.0949 29.2239C21.1647 26.6956 21.7053 26.2039 21.9321 26.1359C21.9718 26.1246 22.0532 26.0998 22.1532 26.2117C22.2521 26.323 22.2769 26.475 22.2573 26.5209C22.248 26.542 22.2454 26.5642 22.2387 26.5858C21.8883 27.4284 21.0586 29.3363 20.6545 29.8923C20.487 30.1222 20.5375 30.4443 20.7679 30.6118C20.8596 30.6783 20.9653 30.7102 21.0704 30.7102C21.2297 30.7102 21.3868 30.6365 21.4879 30.4979C21.9228 29.9001 22.6345 28.2911 23.0087 27.4124C23.0458 27.5181 23.0803 27.6871 23.0901 27.9381C22.9004 28.3818 22.1217 30.1768 21.5384 31.1101C21.3879 31.3518 21.4611 31.6698 21.7022 31.8203C21.7873 31.8739 21.8816 31.8986 21.9749 31.8986C22.1465 31.8986 22.3145 31.8126 22.4124 31.6564C22.8237 30.9983 23.305 29.9872 23.6462 29.2332C23.6487 29.3857 23.6338 29.5641 23.5818 29.7826C23.5802 29.7898 23.5802 29.7965 23.5787 29.8037L22.1449 32.5346C22.0125 32.7866 22.1099 33.0984 22.3614 33.2308C22.4377 33.2705 22.5196 33.2896 22.6005 33.2896C22.786 33.2896 22.9654 33.1896 23.0571 33.0139L23.6302 31.9223C23.6091 32.0043 23.5936 32.079 23.5673 32.1682C23.0643 33.8673 21.9924 35.0217 20.7303 36.3807ZM24.3883 36.0416C24.5599 35.1309 24.2821 34.4373 24.0987 33.9781C24.0744 33.9183 24.0466 33.8477 24.0244 33.7864C24.2347 33.3762 24.4151 32.9381 24.5563 32.4609C24.9902 30.9957 24.8047 30.1923 24.6279 29.8145C24.8294 28.7081 24.4187 28.103 24.1177 27.8196C24.1048 27.5975 24.0672 27.4052 24.0193 27.2264C24.3532 26.4673 24.8001 25.6345 25.3561 24.745C25.3932 24.6857 25.4174 24.6197 25.4283 24.5507C25.5597 23.7024 25.7328 22.8485 25.9158 21.9435C26.2348 20.3686 26.5646 18.7405 26.6646 17.1259C27.029 11.255 23.9059 8.26077 23.7729 8.13657C23.6647 8.03505 23.5173 7.98351 23.3705 8C23.2231 8.01443 23.0891 8.09174 23.0025 8.21233C21.61 10.1501 16.4621 13.0794 11.8765 13.0794C11.7038 13.0794 11.5425 13.1659 11.4472 13.3097C10.3392 14.9815 10.5582 18.957 12.0646 24.5038C12.0759 24.5465 12.0934 24.5883 12.1156 24.6264C14.5151 28.7745 13.4251 30.2928 12.4629 31.6322C11.8316 32.5114 11.1828 33.4153 11.9002 34.7516C10.8354 34.6336 9.67898 34.2997 8.91419 33.4864C8.23753 32.767 7.93502 31.7316 8.01593 30.4087C8.06386 29.628 8.55551 29.3249 9.42079 28.8565C10.552 28.2442 12.1012 27.4057 11.8868 24.5362C11.793 23.2829 10.9359 22.2259 10.2335 21.5601C6.22352 17.7572 7.38049 12.6954 8.00253 9.97588L8.12158 9.44816C9.31875 3.98744 12.3784 1.39674 18.0422 1.04939C19.1146 0.983942 20.7628 1.09784 22.1784 1.61474C23.6596 2.15535 24.4537 2.96085 24.5398 4.00805C24.562 4.28171 24.8037 4.49558 25.0691 4.48115C27.0444 4.41879 28.2612 5.28305 29.143 7.36457C30.7828 11.2349 31.8867 16.7085 27.835 20.8076C26.4234 22.2357 25.7813 23.3777 25.7524 24.5105C25.6865 27.1254 26.6399 27.916 27.4062 28.5509C27.9535 29.0044 28.3148 29.3038 28.3524 30.2345C28.4529 32.7371 26.377 35.3103 24.3883 36.0416Z" fill="#008771"/>
</svg>
