<svg width="28" height="24" viewBox="0 0 28 24" fill="none" xmlns="http://www.w3.org/2000/svg">
<path d="M18.0006 9.23082C17.7454 9.23082 17.5391 9.02453 17.5391 8.76929V6.46153C17.5391 6.20629 17.7454 6 18.0006 6C18.2558 6 18.4621 6.20629 18.4621 6.46153V8.76929C18.4621 9.02453 18.2558 9.23082 18.0006 9.23082Z" fill="#ECF0F1"/>
<path d="M23.5397 9.23082C23.2844 9.23082 23.0781 9.02453 23.0781 8.76929V6.46153C23.0781 6.20629 23.2844 6 23.5397 6C23.7949 6 24.0012 6.20629 24.0012 6.46153V8.76929C24.0012 9.02453 23.7949 9.23082 23.5397 9.23082Z" fill="#ECF0F1"/>
<path d="M1.38672 23.5389H14.3101V2.30762H1.38672V23.5389Z" fill="#ECF0F1"/>
<path d="M14.3086 23.5406H26.3089V8.771H14.3086V23.5406Z" fill="#B0BAC1"/>
<path d="M24.8833 0.5V5.9617H16.6523V0.5H24.8833Z" fill="#1FC29D" stroke="white"/>
<path d="M19.8483 5.07713C19.593 5.07713 19.3867 4.87084 19.3867 4.6156V1.8463C19.3867 1.59106 19.593 1.38477 19.8483 1.38477C20.1035 1.38477 20.3098 1.59106 20.3098 1.8463V4.6156C20.3098 4.87084 20.1035 5.07713 19.8483 5.07713Z" fill="white"/>
<path d="M21.6959 5.07713C21.4407 5.07713 21.2344 4.87084 21.2344 4.6156V1.8463C21.2344 1.59106 21.4407 1.38477 21.6959 1.38477C21.9511 1.38477 22.1574 1.59106 22.1574 1.8463V4.6156C22.1574 4.87084 21.9511 5.07713 21.6959 5.07713Z" fill="white"/>
<path d="M21.6944 3.69259H19.8482C19.593 3.69259 19.3867 3.4863 19.3867 3.23106C19.3867 2.97582 19.593 2.76953 19.8482 2.76953H21.6944C21.9497 2.76953 22.156 2.97582 22.156 3.23106C22.156 3.4863 21.9497 3.69259 21.6944 3.69259Z" fill="white"/>
<path d="M6.46484 23.5391H9.23414V19.8467H6.46484V23.5391Z" fill="#556080"/>
<path d="M3.69141 7.38502H6.4607V4.61572H3.69141V7.38502Z" fill="#556080"/>
<path d="M9.23828 7.38502H12.0076V4.61572H9.23828V7.38502Z" fill="#556080"/>
<path d="M3.69141 12.4612H6.4607V9.69189H3.69141V12.4612Z" fill="#556080"/>
<path d="M9.23828 12.4612H12.0076V9.69189H9.23828V12.4612Z" fill="#556080"/>
<path d="M3.69141 17.5398H6.4607V14.7705H3.69141V17.5398Z" fill="#556080"/>
<path d="M16.6094 14.7693H19.3787V12H16.6094V14.7693Z" fill="#556080"/>
<path d="M16.6094 19.8474H19.3787V17.0781H16.6094V19.8474Z" fill="#556080"/>
<path d="M21.2266 14.7693H23.9959V12H21.2266V14.7693Z" fill="#556080"/>
<path d="M21.2266 19.8474H23.9959V17.0781H21.2266V19.8474Z" fill="#556080"/>
<path d="M9.23828 17.5398H12.0076V14.7705H9.23828V17.5398Z" fill="#556080"/>
<path d="M27.2314 24.0002H0.46153C0.206291 24.0002 0 23.7939 0 23.5387C0 23.2834 0.206291 23.0771 0.46153 23.0771H27.2313C27.4866 23.0771 27.6929 23.2834 27.6929 23.5387C27.6929 23.7939 27.4866 24.0002 27.2314 24.0002Z" fill="#556080"/>
</svg>
