<svg width="27" height="24" viewBox="0 0 27 24" fill="none" xmlns="http://www.w3.org/2000/svg">
<path d="M21.6975 16.0251C21.697 16.5549 21.8721 17.07 22.1953 17.4898H18.5388V5.27062C18.5388 4.10335 19.313 3.57255 20.0897 3.56123H20.1479C20.9249 3.57412 21.6991 4.10335 21.6991 5.27062L21.6975 16.0251ZM3.64299 3.56217H18.1423C17.7716 4.05321 17.5788 4.65562 17.5954 5.27062V22.3331C17.5946 22.7754 17.4183 23.1993 17.1053 23.5117C16.7922 23.8242 16.368 23.9997 15.9257 23.9997C15.4758 23.9997 15.0442 23.8211 14.7259 23.5032C14.4075 23.1853 14.2283 22.7541 14.2276 22.3041C14.2276 22.179 14.1779 22.0591 14.0895 21.9706C14.001 21.8821 13.881 21.8324 13.7559 21.8324H2.10057V5.27062C2.10057 4.21719 2.69018 3.56217 3.64299 3.56217ZM5.26527 9.65258C5.26527 10.5482 5.53084 11.4236 6.02841 12.1683C6.52597 12.913 7.23318 13.4933 8.06059 13.8361C8.88801 14.1788 9.79848 14.2685 10.6769 14.0938C11.5552 13.919 12.3621 13.4878 12.9954 12.8545C13.6286 12.2212 14.0599 11.4144 14.2346 10.536C14.4094 9.6576 14.3197 8.74713 13.9769 7.91972C13.6342 7.0923 13.0538 6.38509 12.3092 5.88753C11.5645 5.38997 10.689 5.12439 9.79345 5.12439C8.59294 5.12581 7.442 5.60334 6.59311 6.45223C5.74421 7.30112 5.26669 8.45206 5.26527 9.65258ZM3.90587 16.0251C3.90587 16.1501 3.95557 16.2701 4.04403 16.3586C4.13248 16.447 4.25246 16.4967 4.37756 16.4967H15.21C15.3351 16.4967 15.4551 16.447 15.5435 16.3586C15.632 16.2701 15.6817 16.1501 15.6817 16.0251C15.6817 15.9 15.632 15.78 15.5435 15.6915C15.4551 15.6031 15.3351 15.5534 15.21 15.5534H4.37756C4.25246 15.5534 4.13248 15.6031 4.04403 15.6915C3.95557 15.78 3.90587 15.9 3.90587 16.0251ZM3.90587 17.9014C3.90587 18.0265 3.95557 18.1465 4.04403 18.2349C4.13248 18.3234 4.25246 18.3731 4.37756 18.3731H15.21C15.3351 18.3731 15.4551 18.3234 15.5435 18.2349C15.632 18.1465 15.6817 18.0265 15.6817 17.9014C15.6817 17.7763 15.632 17.6563 15.5435 17.5679C15.4551 17.4794 15.3351 17.4297 15.21 17.4297H4.37756C4.31556 17.4297 4.25417 17.442 4.19691 17.4657C4.13964 17.4894 4.08761 17.5242 4.0438 17.5681C3.99999 17.612 3.96526 17.664 3.9416 17.7213C3.91793 17.7786 3.90579 17.84 3.90587 17.902V17.9014ZM3.90587 19.7775C3.90587 19.9026 3.95557 20.0225 4.04403 20.111C4.13248 20.1995 4.25246 20.2492 4.37756 20.2492H15.21C15.3351 20.2492 15.4551 20.1995 15.5435 20.111C15.632 20.0225 15.6817 19.9026 15.6817 19.7775C15.6817 19.6524 15.632 19.5324 15.5435 19.4439C15.4551 19.3555 15.3351 19.3058 15.21 19.3058H4.37756C4.31556 19.3058 4.25417 19.318 4.19691 19.3417C4.13964 19.3655 4.08761 19.4003 4.0438 19.4442C3.99999 19.488 3.96526 19.5401 3.9416 19.5974C3.91793 19.6547 3.90579 19.7161 3.90587 19.7781V19.7775ZM0 22.7761C0.102588 23.1289 0.316802 23.4388 0.610497 23.6595C0.904193 23.8802 1.26153 23.9996 1.62889 24H13.9006C13.6049 23.6493 13.406 23.2274 13.3236 22.7761H0ZM6.20864 9.65258C6.20864 8.94357 6.41889 8.25048 6.81279 7.66096C7.2067 7.07144 7.76657 6.61197 8.42161 6.34064C9.07664 6.06932 9.79743 5.99833 10.4928 6.13665C11.1882 6.27497 11.827 6.61639 12.3283 7.11773C12.8296 7.61908 13.1711 8.25783 13.3094 8.95321C13.4477 9.6486 13.3767 10.3694 13.1054 11.0244C12.8341 11.6795 12.3746 12.2393 11.7851 12.6332C11.1955 13.0271 10.5025 13.2374 9.79345 13.2374C8.84303 13.2363 7.93185 12.8583 7.2598 12.1862C6.58776 11.5142 6.20972 10.603 6.20864 9.65258ZM7.66835 10.8978C7.66835 11.0229 7.71805 11.1429 7.80651 11.2314C7.89496 11.3198 8.01494 11.3695 8.14004 11.3695C8.26514 11.3695 8.38511 11.3198 8.47357 11.2314C8.56203 11.1429 8.61172 11.0229 8.61172 10.8978V10.2595L9.53025 11.0327L8.90134 11.6739C8.81385 11.7635 8.76553 11.8841 8.76701 12.0093C8.76848 12.1345 8.81963 12.254 8.9092 12.3415C8.99877 12.429 9.11943 12.4773 9.24462 12.4758C9.36982 12.4744 9.48931 12.4232 9.57679 12.3336L10.2535 11.6418L11.1123 12.3651C11.1598 12.405 11.2147 12.4351 11.2738 12.4537C11.3329 12.4724 11.3951 12.4792 11.4569 12.4739C11.5187 12.4685 11.5788 12.451 11.6338 12.4223C11.6888 12.3937 11.7376 12.3546 11.7775 12.3071C11.8174 12.2596 11.8475 12.2047 11.8662 12.1456C11.8848 12.0864 11.8917 12.0242 11.8863 11.9624C11.8809 11.9007 11.8634 11.8406 11.8348 11.7855C11.8062 11.7305 11.767 11.6817 11.7195 11.6418L10.9151 10.9648L11.7531 10.1085C11.7965 10.0642 11.8307 10.0119 11.8538 9.95434C11.8769 9.89683 11.8885 9.83533 11.8878 9.77336C11.8872 9.71138 11.8743 9.65014 11.85 9.59313C11.8257 9.53612 11.7904 9.48446 11.7461 9.4411C11.7018 9.39774 11.6494 9.36353 11.5919 9.34042C11.5344 9.31731 11.4729 9.30575 11.4109 9.30641C11.3489 9.30707 11.2877 9.31993 11.2307 9.34425C11.1737 9.36858 11.122 9.40389 11.0786 9.44818L10.1916 10.3548L9.42585 9.71169C9.80247 9.69596 10.1579 9.53332 10.4161 9.25864C10.6742 8.98396 10.8145 8.61909 10.8068 8.24223C10.7992 7.86536 10.6442 7.50649 10.3752 7.24251C10.1061 6.97853 9.74431 6.83045 9.36736 6.83001H8.14098C8.01588 6.83001 7.89591 6.8797 7.80745 6.96816C7.71899 7.05662 7.6693 7.1766 7.6693 7.30169C7.6693 7.30547 7.6693 7.30924 7.6693 7.31333C7.6693 7.31742 7.6693 7.32088 7.6693 7.32496L7.66835 10.8978ZM9.86955 8.27368C9.86939 8.14099 9.81658 8.01379 9.72272 7.91999C9.62887 7.82619 9.50163 7.77346 9.36894 7.77338H8.61424V8.7743H9.36894C9.50138 8.77372 9.62822 8.72074 9.72173 8.62693C9.81523 8.53313 9.86781 8.40613 9.86798 8.27368H9.86955ZM11.3255 0C10.9368 0.000166669 10.5641 0.15464 10.2893 0.429473C10.0144 0.704306 9.85997 1.07701 9.8598 1.46568V2.61974H20.168C21.4051 2.64427 22.64 3.55274 22.64 5.27125V16.0251C22.64 16.4135 22.7943 16.7861 23.069 17.0608C23.3437 17.3355 23.7162 17.4898 24.1047 17.4898C24.4932 17.4898 24.8657 17.3355 25.1404 17.0608C25.4151 16.7861 25.5695 16.4135 25.5695 16.0251V1.46568C25.5691 0.935295 25.7454 0.419901 26.0707 0.000943453L11.3255 0Z" fill="white"/>
</svg>
